<svg id="Layer_1" data-name="Layer 1" xmlns="http://www.w3.org/2000/svg" viewBox="0 0 200 200"><defs><style>.cls-1{fill:#e03c31;}</style></defs><path d="M64.32,32A1.69,1.69,0,0,0,63,33.72V47.15a1.68,1.68,0,0,0,1.68,1.68V66.1c-4.1,1.11-7.42,2.73-9.66,5.05a13.5,13.5,0,0,0-3.78,9.6v21.68h0a.43.43,0,0,0,0,.16v26.88a1.61,1.61,0,0,0,0,.31v24.89c0,3.75-.07,6.91.15,9.66s.75,5.19,2.31,7.14,4,3.18,7.35,3.94a65,65,0,0,0,13.7,1.1,65.11,65.11,0,0,0,13.71-1.1c3.36-.76,5.79-2,7.34-3.94s2.09-4.39,2.31-7.14.16-5.91.16-9.66v-25h0a.74.74,0,0,0,0-.21V80.75a13.53,13.53,0,0,0-3.78-9.61c-2.24-2.31-5.56-3.93-9.66-5V48.83h0a1.68,1.68,0,0,0,1.68-1.68V33.71A1.68,1.68,0,0,0,84.79,32H64.32Zm0,3.36H85.11V45.47H64.32ZM68,48.83H81.43V67.31h0a1.69,1.69,0,0,0,1.32,1.63c4.37,1,7.38,2.55,9.29,4.52a10,10,0,0,1,2.83,7.29v20.16H54.56V80.75a9.94,9.94,0,0,1,2.83-7.29c1.91-2,4.91-3.54,9.29-4.52h0A1.69,1.69,0,0,0,68,67.31V48.83ZM54.56,104.27H94.87v23.52H54.56Zm0,26.88H94.87v23.52c0,3.81.1,7-.1,9.39s-.67,4.11-1.63,5.31-2.53,2.12-5.46,2.78a62.55,62.55,0,0,1-13,1,62.51,62.51,0,0,1-13-1c-2.93-.66-4.5-1.59-5.46-2.78s-1.43-2.86-1.63-5.31-.11-5.58-.11-9.39V131.15Z"/><path class="cls-1" d="M84.79,32H64.32A1.69,1.69,0,0,0,63,33.72V47.15a1.68,1.68,0,0,0,1.68,1.68H84.79a1.68,1.68,0,0,0,1.68-1.68V33.71A1.68,1.68,0,0,0,84.79,32ZM83.11,45.47H66.31V35.39h16.8Z"/><path d="M145.35,85.79h-37a1.61,1.61,0,0,0-.31,0h0a1.69,1.69,0,0,0-1.37,1.68V116c0,5.06,1.69,9.39,5.15,12.34,3.15,2.69,7.63,4.16,13.33,4.41v.05h3.36v-.05c5.63-.25,10.11-1.73,13.28-4.41,3.48-3,5.2-7.27,5.2-12.34V87.47A1.68,1.68,0,0,0,145.35,85.79ZM143.67,116c0,4.33-1.37,7.5-4,9.76s-6.86,3.68-12.76,3.68-10.22-1.42-12.86-3.68-3.94-5.41-3.94-9.76V89.15h33.6Z"/><path class="cls-1" d="M142,162.56c-3.66-2.11-8.3-2.95-13.39-3.1V132.53h-3.36v26.93c-5.08.15-9.72,1-13.38,3.1a13.28,13.28,0,0,0-6.78,12,1.69,1.69,0,0,0,1.69,1.68h40.31a1.68,1.68,0,0,0,1.68-1.68A13.28,13.28,0,0,0,142,162.56Zm-33.12,10.29c.46-3.38,1.87-5.82,4.62-7.4,3.23-1.87,8-2.68,13.43-2.68s10.21.81,13.44,2.68c2.75,1.58,4.16,4,4.62,7.4Z"/></svg>