<svg id="Layer_1" data-name="Layer 1" xmlns="http://www.w3.org/2000/svg" viewBox="0 0 200 200"><defs><style>.cls-1{fill:none;}.cls-2{fill:#fff;stroke:#e03c31;stroke-miterlimit:10;stroke-width:5.67px;}</style></defs><rect class="cls-1" x="41.08" y="146.4" width="12.64" height="11.09" transform="translate(-93.56 78.03) rotate(-45)"/><path class="cls-1" d="M45.2,91.25a7.1,7.1,0,0,0-5,12.11l13.13,13.12L96,159.17a7.09,7.09,0,0,0,12.11-5h0a7,7,0,0,0-2.07-5L50.22,93.33A7.11,7.11,0,0,0,45.2,91.25Z"/><path class="cls-1" d="M50.22,119.58a7.1,7.1,0,0,0-10,10l29.56,29.56a7.07,7.07,0,0,0,5,2.08h0a7.08,7.08,0,0,0,7.09-7.09,7,7,0,0,0-2.07-5Z"/><rect class="cls-1" x="144.99" y="42.5" width="12.64" height="11.09" transform="translate(10.34 121.06) rotate(-45)"/><path class="cls-1" d="M148.49,80.42a7.1,7.1,0,0,0,12.11-5h0a7.06,7.06,0,0,0-2.07-5L129,40.83a7.1,7.1,0,0,0-10,10Z"/><rect class="cls-1" x="73.7" y="94.45" width="51.31" height="11.09" transform="translate(-41.61 99.54) rotate(-45)"/><path class="cls-1" d="M145.4,83.52,102.72,40.83a7.1,7.1,0,0,0-10,10l55.81,55.81a7.1,7.1,0,0,0,12.11-5h0a7.11,7.11,0,0,0-2.08-5Z"/><path d="M154.81,85.75a11.43,11.43,0,0,0,6.81-19.45l-7.77-7.77,10.49-10.48h0a2.19,2.19,0,0,0,0-3.09h0L153.4,34a2.17,2.17,0,0,0-3.09,0L139.82,44.5l-7.76-7.77a11.43,11.43,0,0,0-19.45,6.81l-6.8-6.81A11.47,11.47,0,0,0,89.59,53l20.89,20.89L74.2,110.13,53.31,89.23h0a11.47,11.47,0,0,0-16.22,16.22l6.81,6.81a11.42,11.42,0,0,0-6.81,19.44l7.77,7.77L34.37,150a2.2,2.2,0,0,0,0,3.1L45.31,164a2.17,2.17,0,0,0,3.09,0L58.89,153.5l7.77,7.77h0a11.42,11.42,0,0,0,19.44-6.81l6.81,6.81h0a11.47,11.47,0,1,0,16.22-16.22L88.23,124.16l36.28-36.28,20.89,20.89h0a11.47,11.47,0,1,0,16.22-16.22ZM117.16,43A7.09,7.09,0,0,1,129,39.83l29.56,29.56a7.06,7.06,0,0,1,2.07,5h0a7.09,7.09,0,0,1-12.11,5L118.93,49.86A7.12,7.12,0,0,1,117.16,43ZM79.78,158.17a7.11,7.11,0,0,1-5,2.08h0a7.07,7.07,0,0,1-5-2.08L40.18,128.61a7.1,7.1,0,0,1,10-10l29.56,29.57a7.1,7.1,0,0,1,0,10Zm26.25-10a7,7,0,0,1,2.07,5h0a7.09,7.09,0,0,1-12.11,5L53.31,115.48,40.18,102.36a7.1,7.1,0,0,1,10-10ZM85.14,121.06l-7.85-7.84,36.28-36.28,7.85,7.84Zm75.46-20.4a7.09,7.09,0,0,1-12.11,5L92.68,49.86a7.1,7.1,0,0,1,10-10L145.4,82.52l13.13,13.12a7.11,7.11,0,0,1,2.08,5Z"/><rect class="cls-2" x="144.7" y="36.62" width="19.22" height="16.87" rx="3.13" transform="translate(13.34 122.31) rotate(-45)"/><rect class="cls-2" x="34.79" y="145.52" width="19.22" height="16.87" rx="3.13" transform="translate(-95.85 76.49) rotate(-45)"/></svg>