<svg id="Layer_1" data-name="Layer 1" xmlns="http://www.w3.org/2000/svg" viewBox="0 0 200 200"><defs><style>.cls-1{fill:#e03c31;}</style></defs><path d="M70.29,104.76c-.28.24-.56.47-.85.74-4.73,4.75-6.51,9.5-5.6,14.94a12.35,12.35,0,0,0,10,10.21,14,14,0,0,0,2.34.19,18.89,18.89,0,0,0,13.69-6.55c6.47-7.17,6.51-15.71,5.4-21.6a1.62,1.62,0,0,0-1-1.37,2.67,2.67,0,0,0-2.45.6,2.17,2.17,0,0,0-.74,2.16,21.88,21.88,0,0,1-4.37,17.27,13.43,13.43,0,0,1-10.51,5h-.16c-4.69,0-8.1-3.62-8.1-8.61,0-4.71,2.91-7.58,5.72-10.35l.74-.73c3.08-3.08,5-5.66,5-9-.12-4.19-3.22-8.43-6-12.18l-1.24-1.71a13,13,0,0,1-.7-14.43C75.24,62.57,84,57.61,91.44,58a20.59,20.59,0,0,1,17.76,12.3c3.65,8.46,1.33,18-5.92,24.4a1.63,1.63,0,0,0-.65,1.63,2.66,2.66,0,0,0,1.74,1.85,2,2,0,0,0,2.11-.51,25.61,25.61,0,0,0,8.32-22.6,24.3,24.3,0,0,0-13.4-18.87,25.17,25.17,0,0,0-22.53.14A24.41,24.41,0,0,0,65.55,73.69c-.6,3.48-.7,6.42.81,9.43a42.26,42.26,0,0,0,3.44,5.14c.75,1,1.53,2,2.24,3.11l0,.07.58.9c1.27,1.93,3,4.57,1.73,7.55C73.59,101.94,71.77,103.5,70.29,104.76Z"/><path d="M126.72,49.83A46,46,0,0,0,95.37,31.92C79.79,30,64.88,35.85,55.48,47.46a2.32,2.32,0,0,0-.38,2.4,2.56,2.56,0,0,0,1.8,1.64,1.5,1.5,0,0,0,1.41-.69A40.47,40.47,0,0,1,91.25,36.15a41.4,41.4,0,0,1,32.68,17.08,43,43,0,0,1,6.53,36.27,41.87,41.87,0,0,1-10.13,17.65c-1.4,1.4-2.83,2.68-4.22,3.92a56.62,56.62,0,0,0-6.67,6.65c-7,8.73-8.53,20.39-9.82,30.6l-.06.3a20.51,20.51,0,0,1-40.36-5.14,2.15,2.15,0,0,0-2.42-2.07h0a2,2,0,0,0-1.75.88,2,2,0,0,0-.26,1.12c.3,14,11.27,25,25,25a25.15,25.15,0,0,0,23.92-17.88l.13-.31.08-.2.09-.68a38.07,38.07,0,0,0,.9-5.93l0-.36c1.17-8.18,3.29-17.51,10.16-24.76,1.79-2,3.67-3.87,5.52-5.67a62.64,62.64,0,0,0,7.68-8.43,45.35,45.35,0,0,0,7.7-19.35A46.12,46.12,0,0,0,126.72,49.83Z"/><path class="cls-1" d="M148.75,151.06a2,2,0,0,0,.31-2.14,1.94,1.94,0,0,0-1.8-1.16H140v-32.5a2,2,0,0,0-2-2h-8.75a1.92,1.92,0,0,0-1.41.58,2,2,0,0,0-.59,1.41v25.46a2,2,0,0,0,.52,1.53,2,2,0,0,0,2.95,0,2,2,0,0,0,.52-1.53V117.24H136v32.5a2,2,0,0,0,2,2h4.84l-9.22,10.5-9.21-10.5h4.87a2,2,0,1,0,0-4H120a2,2,0,0,0-1.82,1.16,2,2,0,0,0,.33,2.14L132,166.56a1.91,1.91,0,0,0,1.55.67,2,2,0,0,0,1.55-.67Z"/></svg>