<?xml version="1.0" encoding="utf-8"?>
<!-- Generator: Adobe Illustrator 25.4.1, SVG Export Plug-In . SVG Version: 6.00 Build 0)  -->
<svg version="1.1" id="Camada_1" xmlns="http://www.w3.org/2000/svg" xmlns:xlink="http://www.w3.org/1999/xlink" x="0px" y="0px"
	 viewBox="0 0 1920 1080" style="enable-background:new 0 0 1920 1080;" xml:space="preserve">
<style type="text/css">
	.st0{fill:none;}
	.st1{font-family:'BebasNeue-Regular';}
	.st2{font-size:63.7113px;}
	.st3{letter-spacing:1;}
	.st4{font-size:90px;}
	.st5{letter-spacing:1.72;}
	.st6{font-size:72px;}
	.st7{letter-spacing:111.49;}
	.st8{fill:none;stroke:#E0E0E0;stroke-miterlimit:10;}
	.st9{fill:#E03C31;}
</style>
<g>
	<rect x="536.3" y="160.37" class="st0" width="1105.77" height="81.81"/>
	<text transform="matrix(1 0 0 1 536.3027 204.9667)" class="st1 st2 st3">Índice de Prontidão para Inovação em Demência</text>
	<text transform="matrix(0.583 0 0 0.583 1603.2471 183.7509)" class="st1 st2">4</text>
</g>
<text transform="matrix(0.583 0 0 0.583 393.0196 356.6849)" class="st1 st4 st5">china</text>
<text transform="matrix(0.583 0 0 0.583 219.7691 474.8744)" class="st1 st4 st5">ARÁBIA SAUDITA</text>
<text transform="matrix(0.583 0 0 0.583 306.6563 593.0634)" class="st1 st4 st5">ARGENTINA</text>
<text transform="matrix(0.583 0 0 0.583 403.7769 711.2528)" class="st1 st4 st5">ÍNDIA</text>
<text transform="matrix(0.583 0 0 0.583 376.3345 829.4423)" class="st1 st4 st5">BRASIL</text>
<g>
	<rect x="528.07" y="897.52" class="st0" width="1113.59" height="74.11"/>
	<text transform="matrix(0.583 0 0 0.583 528.0693 923.9393)" class="st1 st6 st7">0 1 2 3 4 5 6 7</text>
</g>
<line class="st8" x1="538.67" y1="286.5" x2="538.67" y2="851.59"/>
<line class="st8" x1="695.64" y1="286.5" x2="695.64" y2="851.59"/>
<line class="st8" x1="846.14" y1="286.5" x2="846.14" y2="851.59"/>
<line class="st8" x1="1002.19" y1="286.5" x2="1002.19" y2="851.59"/>
<line class="st8" x1="1158.24" y1="286.5" x2="1158.24" y2="851.59"/>
<line class="st8" x1="1310.59" y1="286.5" x2="1310.59" y2="851.59"/>
<line class="st8" x1="1461.1" y1="286.5" x2="1461.1" y2="851.59"/>
<line class="st8" x1="1618.99" y1="286.5" x2="1618.99" y2="851.59"/>
<path class="st9" d="M1480.45,361.63H538.72v-43.95h941.73V361.63z M1449.06,477.77H538.72v-40.81h910.34V477.77z M1354.89,597.06
	H538.72v-43.95h816.17V597.06z M1326.63,713.21H538.72V672.4h787.91V713.21z M1310.94,832.49H538.72v-43.95h772.22V832.49z"/>
</svg>
