<svg id="Layer_1" data-name="Layer 1" xmlns="http://www.w3.org/2000/svg" viewBox="0 0 200 200"><defs><style>.cls-1{fill:#e03c31;}</style></defs><path d="M166.38,136.25a33.87,33.87,0,0,0,5-11.76c.84-4.73-.5-7.09-1.79-8.25-2.76-2.46-7.45-2-13.44-.08V25.37H61.42v82.32c-.46,0-.93-.09-1.39-.1a6.3,6.3,0,0,1-1.3-.13,7.32,7.32,0,0,0-.94-.12l-5.61-8a4.44,4.44,0,0,0-2.87-2.05A4.08,4.08,0,0,0,46,98l-3.36,2.54a3.92,3.92,0,0,0-1.48,2.65,4.42,4.42,0,0,0,.92,3.36l6.52,8.26a15.68,15.68,0,0,0,0,3.75,43.36,43.36,0,0,0,4.89,16.6C44.59,139.45,40,144.86,40,150.72c0,14.5,30.24,25.86,68.88,25.86s69-11.36,69-25.86c0-5.33-3.93-10.32-11.4-14.46Zm.76-17.21c.59.53,1.06,2,.57,4.7-1.28,7.17-9.24,20.44-25.32,28.79h0a42.72,42.72,0,0,0,3.36-28.41c9.26-3.79,18.74-7.5,21.39-5.14Zm-28.78,32.89c-5.39,9.37-15.12,14.31-28.12,14.31s-22.73-4.94-28.12-14.31c-6.37-11-5.45-26.24-1-34a13,13,0,0,1,12.17-6.72,46.21,46.21,0,0,1,10.77,1.67,28.34,28.34,0,0,0,6.13,1.15,28.46,28.46,0,0,0,6.13-1.15c7.39-1.84,17.51-4.38,22.93,5.05,4.51,7.76,5.43,23-.94,34ZM65.25,29.29h87.16v88.06c-2.44.89-5,1.93-7.81,3h0a27.1,27.1,0,0,0-2-4.39c-6.87-11.76-19.57-8.64-27.18-6.72-1.21.3-2.38.61-3.36.79a13.75,13.75,0,0,1,2.86-9.47,9.86,9.86,0,0,1,6.38-3.15l-.12-3.83h0A13.6,13.6,0,0,0,112.12,98q-.47.54-.87,1.11c-1.8-5.83-6.94-15.47-21.25-14.57l-1.79.11v1.78c-.1,6.48,2.05,11.94,6,15.39h0a17.66,17.66,0,0,0,11.76,4,15.7,15.7,0,0,0,2.54-.14,24.63,24.63,0,0,0-.36,4.37c-.94-.19-2-.45-3.17-.74-7.39-1.88-19.69-4.94-26.7,6a81.22,81.22,0,0,0-13-6.71ZM108,101.85a14.68,14.68,0,0,1-11.36-3A14.93,14.93,0,0,1,92,88.29c11.84.17,15.12,9.51,16,13.56ZM52.46,118.23v-.17a10,10,0,0,1,0-3.36l.24-.93L45,104.08h0a.65.65,0,0,1,0-.59L48.35,101a.31.31,0,0,1,.23,0,.55.55,0,0,1,.35.24l7.16,10.26,1.26-.28a1.4,1.4,0,0,1,.76,0,9.77,9.77,0,0,0,2,.2c3.93,0,10.08,3.46,16.54,7.32h0a42.18,42.18,0,0,0,2,34.66c-25.2-11.51-26.11-34.13-26.13-35.14Zm56.37,54.51c-39,0-65.14-11.39-65.14-22,0-4.29,4.15-8.65,11.76-12.37,4.84,7.71,13.09,15.85,27.17,20.77,5,5.76,13.62,11,27.65,11,14.48,0,23.09-5.56,28.16-11.56h0a60.55,60.55,0,0,0,25.74-19.17c6.33,3.48,9.79,7.48,9.79,11.36,0,10.63-26.17,22-65.13,22ZM127.19,115v3.83a5.3,5.3,0,0,1,5.48,2.91,27.35,27.35,0,0,1,2.48,14.72l3.83.3c.51-6.28-.67-12.94-3-16.95h0a9.06,9.06,0,0,0-8.79-4.81Z"/><rect class="cls-1" x="103.32" y="46" width="35.45" height="3.83"/><polygon class="cls-1" points="97.39 62.68 94.67 59.98 85.44 69.22 81.21 64.98 78.59 67.69 85.53 74.63 97.39 62.68"/><rect class="cls-1" x="103.32" y="67.09" width="35.45" height="3.83"/><polygon class="cls-1" points="97.39 41.62 94.67 38.91 85.44 48.13 81.21 43.85 78.59 46.61 85.53 53.56 97.39 41.62"/></svg>