<svg id="Layer_1" data-name="Layer 1" xmlns="http://www.w3.org/2000/svg" viewBox="0 0 200 200"><defs><style>.cls-1{fill:#e03c31;}</style></defs><path d="M171.15,32.09H38.43a6.72,6.72,0,0,0-6.72,6.72v124a6.73,6.73,0,0,0,6.72,6.72H171.15a6.73,6.73,0,0,0,6.72-6.72v-124a6.72,6.72,0,0,0-6.72-6.72Zm3.36,130.72a3.37,3.37,0,0,1-3.36,3.36H38.43a3.37,3.37,0,0,1-3.36-3.36v-124a3.37,3.37,0,0,1,3.36-3.36H171.15a3.37,3.37,0,0,1,3.36,3.36ZM166.83,39.29H42.74a3.37,3.37,0,0,0-3.36,3.36V159a3.37,3.37,0,0,0,3.36,3.36H166.83a3.36,3.36,0,0,0,3.36-3.36V42.65A3.36,3.36,0,0,0,166.83,39.29ZM42.74,159V42.65H166.83V159ZM147.5,126h-2.94V96.64a3.37,3.37,0,0,0-3.36-3.36h-8.31a3.36,3.36,0,0,0-3.36,3.36V126h-3a3.36,3.36,0,0,0-3,1.77,3.33,3.33,0,0,0,.16,3.44L134.24,147a3.37,3.37,0,0,0,2.8,1.51h0a3.33,3.33,0,0,0,2.8-1.51l10.46-15.77a3.35,3.35,0,0,0-2.8-5.21ZM137,145.15l-10.46-15.77h3a3.37,3.37,0,0,0,3.36-3.36V96.64h8.31V126a3.36,3.36,0,0,0,3.35,3.36h2.95ZM83,126h-3V96.64a3.37,3.37,0,0,0-3.36-3.36H68.38A3.37,3.37,0,0,0,65,96.64V126H62.07a3.36,3.36,0,0,0-2.8,5.21L69.73,147a3.35,3.35,0,0,0,5.6,0L85.8,131.23A3.36,3.36,0,0,0,83,126ZM72.53,145.15,62.07,129.38H65A3.37,3.37,0,0,0,68.38,126V96.64h8.31V126a3.36,3.36,0,0,0,3.36,3.36h3Z"/><path d="M171.15,169.81H38.43a7,7,0,0,1-7-7v-124a7,7,0,0,1,7-7H171.15a7,7,0,0,1,7,7v124A7,7,0,0,1,171.15,169.81ZM38.43,32.37A6.45,6.45,0,0,0,32,38.81v124a6.45,6.45,0,0,0,6.44,6.43H171.15a6.44,6.44,0,0,0,6.43-6.43v-124a6.45,6.45,0,0,0-6.44-6.44H38.43ZM171.15,166.45H38.43a3.64,3.64,0,0,1-3.64-3.64v-124a3.65,3.65,0,0,1,3.64-3.65H171.15a3.65,3.65,0,0,1,3.64,3.65v124A3.64,3.64,0,0,1,171.15,166.45ZM38.43,35.73a3.08,3.08,0,0,0-3.08,3.08v124a3.08,3.08,0,0,0,3.08,3.07H171.15a3.08,3.08,0,0,0,3.07-3.07v-124a3.08,3.08,0,0,0-3.07-3.08ZM166.83,162.6H42.74A3.64,3.64,0,0,1,39.1,159V42.65A3.65,3.65,0,0,1,42.74,39H166.83a3.66,3.66,0,0,1,3.65,3.64V159A3.65,3.65,0,0,1,166.83,162.6ZM42.74,39.58a3.08,3.08,0,0,0-3.07,3.07V159A3.08,3.08,0,0,0,42.74,162H166.83a3.08,3.08,0,0,0,3.08-3.08V42.65a3.08,3.08,0,0,0-3.08-3.07ZM167.12,159.24H42.46V42.37H167.12ZM43,158.68H166.55V42.94H43Zm94-9.89a3.65,3.65,0,0,1-3-1.63l-10.46-15.77a3.65,3.65,0,0,1,3-5.66h2.66V96.64A3.65,3.65,0,0,1,132.89,93h8.31a3.65,3.65,0,0,1,3.64,3.64v29.09h2.66a3.64,3.64,0,0,1,3,5.66l-10.46,15.77A3.65,3.65,0,0,1,137,148.79ZM126.58,126.3a3.08,3.08,0,0,0-2.57,4.78l10.47,15.77a3.08,3.08,0,0,0,5.12,0l10.47-15.77a3.07,3.07,0,0,0-2.57-4.78h-3.23V96.64a3.08,3.08,0,0,0-3.07-3.07h-8.31a3.08,3.08,0,0,0-3.08,3.07V126.3Zm-54,22.49a3.62,3.62,0,0,1-3-1.63L59,131.39a3.65,3.65,0,0,1,3-5.66h2.66V96.64A3.65,3.65,0,0,1,68.38,93h8.31a3.64,3.64,0,0,1,3.64,3.64v29.09H83a3.64,3.64,0,0,1,3,5.66L75.57,147.16A3.64,3.64,0,0,1,72.53,148.79ZM62.07,126.3a3.07,3.07,0,0,0-2.56,4.78L70,146.85a3.09,3.09,0,0,0,5.13,0l10.46-15.77A3.07,3.07,0,0,0,83,126.3H79.76V96.64a3.08,3.08,0,0,0-3.07-3.07H68.38a3.08,3.08,0,0,0-3.08,3.07V126.3Zm10.46,19.36-11-16.57H65A3.08,3.08,0,0,0,68.09,126V96.36H77V126a3.08,3.08,0,0,0,3.08,3.07h3.47Zm-9.93-16,9.93,15,9.94-15H80.05A3.65,3.65,0,0,1,76.4,126V96.93H68.66V126A3.64,3.64,0,0,1,65,129.66Zm74.44,16-11-16.57h3.48A3.08,3.08,0,0,0,132.6,126V96.36h8.88V126a3.08,3.08,0,0,0,3.07,3.07H148Zm-9.93-16,9.93,15,9.94-15h-2.43a3.65,3.65,0,0,1-3.64-3.64V96.93h-7.74V126a3.64,3.64,0,0,1-3.64,3.64Z"/><path class="cls-1" d="M132.83,52.09a5,5,0,0,0-5-5h-46a5,5,0,0,0-5,5V79.67A3.35,3.35,0,0,0,80.11,83h49.36a3.36,3.36,0,0,0,3.36-3.36ZM106.47,79.67V68.46a1.68,1.68,0,1,0-3.36,0V79.67H80.68a24,24,0,0,1,2.46-10.42l4.59,2.65a1.74,1.74,0,0,0,.84.23A1.68,1.68,0,0,0,89.41,69L84.8,66.33a24.58,24.58,0,0,1,6.51-6.51L94,64.43a1.68,1.68,0,0,0,1.46.84,1.73,1.73,0,0,0,.84-.22,1.69,1.69,0,0,0,.61-2.3l-2.65-4.59a23.92,23.92,0,0,1,8.88-2.38v5.29a1.68,1.68,0,1,0,3.36,0V55.78a23.92,23.92,0,0,1,8.88,2.38l-2.65,4.59a1.68,1.68,0,0,0,2.91,1.68l2.66-4.61a24.4,24.4,0,0,1,6.5,6.51L120.16,69a1.68,1.68,0,1,0,1.68,2.91l4.59-2.65a23.85,23.85,0,0,1,2.46,10.42Zm-1.68-27.33A27.47,27.47,0,0,0,80.11,67.82V52.09a1.68,1.68,0,0,1,1.68-1.68h46a1.68,1.68,0,0,1,1.68,1.68V67.82A27.49,27.49,0,0,0,104.79,52.34Z"/></svg>