<svg id="Layer_1" data-name="Layer 1" xmlns="http://www.w3.org/2000/svg" viewBox="0 0 200 200"><defs><style>.cls-1{fill:#e03c31;}</style></defs><path class="cls-1" d="M95.56,41.83a4.49,4.49,0,0,0,1.59.15c1.54,0,1.35-.2,1.37,1.38,0,.28,0,.56,0,.84A1.46,1.46,0,0,0,100,45.67a1.39,1.39,0,0,0,1.42-1.46c0-.56,0-1.11,0-1.67s.16-.75.7-.72a14.6,14.6,0,0,0,1.75,0,1.58,1.58,0,0,0,1.5-1.45,1.54,1.54,0,0,0-1.53-1.48c-.51,0-1,0-1.52,0s-1-.18-.9-.86a11.69,11.69,0,0,0,0-1.45,1.49,1.49,0,0,0-1.51-1.5,1.44,1.44,0,0,0-1.43,1.46c0,.59,0,1.17,0,1.75s-.18.7-.66.7-1.27,0-1.9,0a1.38,1.38,0,0,0-1.35,1.31,1.48,1.48,0,0,0,1,1.49Z"/><path d="M155.81,139.69l-.29-1.37a34.68,34.68,0,0,0-2.67-8.79c-2.87-5.74-7.41-10.12-14.27-13.82a60.18,60.18,0,0,0-18.67-6.08l-.22-.41c8.45-2.57,12.8-7.2,17.71-14.76a6.53,6.53,0,0,0-.22-8c-3-4-5-8.75-6.17-15.51-1.26-6.92-4.15-12.44-8.6-16.53,0-.39,0-.82.06-1.25,0-.63,0-1.23.06-1.47.18-1.51.37-3.68.56-5.84.18-2,.35-4,.52-5.42l.08-.62a12.33,12.33,0,0,0,0-4.13,7.51,7.51,0,0,0-7.59-6.17h-.06c-4.16,0-8.31,0-12.46,0H94c-3.57,0-7.13,0-10.69.06A7.26,7.26,0,0,0,78,32.13,7.51,7.51,0,0,0,76.15,38c.25,2.06.5,5.64.76,9.25.25,3.4.49,6.76.74,9A29.68,29.68,0,0,0,71.45,68a53.81,53.81,0,0,1-7.12,15.86c-.7,1.07-1.39,2.15-2,3.27a6.88,6.88,0,0,0,.23,7.41,28.72,28.72,0,0,0,3,4,37,37,0,0,0,15.33,10.39,2.26,2.26,0,0,1-.77.71,1.89,1.89,0,0,0-.33.13h0a3.54,3.54,0,0,1-.62.14c-9.49,1.65-17.19,4.82-23.53,9.69-4.94,3.79-8.07,8-9.56,12.8a95.2,95.2,0,0,0-3.86,23.38A4.48,4.48,0,0,0,45,160.45c11.76,5.21,32,8.07,47.09,9.57a2.44,2.44,0,0,0,.26.06l.08,0h.11c3.66.27,7.31.4,10.93.4a141.16,141.16,0,0,0,22.74-1.82,119.46,119.46,0,0,0,28.57-8.08,4.7,4.7,0,0,0,3.1-5,103,103,0,0,0-2-15.87ZM81.53,35.23a2.6,2.6,0,0,1,1.88-.93c3.53-.06,7.07,0,10.59,0h10.86c3.76,0,7.5,0,11.25,0h0a2.8,2.8,0,0,1,3,2.35,8.39,8.39,0,0,1-.1,2.61l-.09.68c-.17,1.45-.35,3.5-.53,5.56s-.36,4.21-.54,5.68h0a32.38,32.38,0,0,0-5.12-2.48,35.45,35.45,0,0,0-18.86-1.4A27.93,27.93,0,0,0,82,52.15c-.13-1.63-.26-3.46-.39-5.28-.27-3.7-.53-7.37-.79-9.48a2.82,2.82,0,0,1,.7-2.16Zm-15,56.71a2.15,2.15,0,0,1-.1-2.52c.58-1,1.21-2,1.86-3A59.35,59.35,0,0,0,76,69.2a24.79,24.79,0,0,1,5.91-10.73,22.21,22.21,0,0,1,12.76-6.56,31,31,0,0,1,16.41,1.18c8.57,3.17,13.56,9.29,15.28,18.71,1.36,7.54,3.55,12.94,7.07,17.54a1.85,1.85,0,0,1,0,2.55c-4.51,6.94-8.16,10.85-15.62,13-1.48.42-3,.75-4.55,1,.63-.81,1.26-1.62,1.87-2.44a33,33,0,0,0,5.93-28,19.18,19.18,0,0,0-.83-2.53l-.34-.9a3,3,0,0,0-1.78-1.93,2.37,2.37,0,0,0-.74-.1,4,4,0,0,0-1.82.42c-3.65,2.17-10.76,3.37-16.47,4.34-2.08.35-4,.67-5.56,1l-10.61,2.2c-3.48.74-4.52,2.06-4.46,5.65a32.59,32.59,0,0,0,6.09,18.83c.86,1.2,1.79,2.34,2.73,3.44A32.81,32.81,0,0,1,69,95.29a24.06,24.06,0,0,1-2.5-3.35Zm26.69,19.71h.23a2.35,2.35,0,0,0,2-1.43,2.74,2.74,0,0,0-.43-2.85l-1.84-2.07a64.32,64.32,0,0,1-4.74-5.66,27.89,27.89,0,0,1-5.2-16.15c0-.35,0-.6,0-.78l.72-.17,10.62-2.2c1.51-.32,3.36-.63,5.36-1,5.31-.9,11.77-2,16.26-4a11.12,11.12,0,0,1,.33,1.08,28.08,28.08,0,0,1-5.11,24.19c-1.18,1.58-2.41,3.12-3.69,4.73l-1.89,2.38a2.36,2.36,0,0,0-.18,2.65,2.32,2.32,0,0,0,2.4,1.14l1.37-.21c1.92-.3,3.78-.61,5.62-1l.65,1.29a27.06,27.06,0,0,1-6.34,8,64.72,64.72,0,0,1-10.8,7.82,1.49,1.49,0,0,0-.2-.15c-7.47-3.6-12.46-11.2-14.44-14.68a7.6,7.6,0,0,0,1.15-1.4c.2-.31.38-.63.57-1a72.74,72.74,0,0,0,7.61,1.36ZM50.52,133.76c1.21-3.92,3.73-7.24,7.93-10.46,5.71-4.39,12.42-7.16,21.08-8.71,1.88,3.4,6.68,10.92,14.17,15.55-.81.42-1.56.84-2.43,1.27A2.35,2.35,0,0,0,90,133.53V165C70.27,163,55.37,159.89,46.87,156a90.38,90.38,0,0,1,3.65-22.21ZM125.41,164a138.81,138.81,0,0,1-30.74,1.45V135a78,78,0,0,0,17.82-11.85,32.4,32.4,0,0,0,7.05-8.77,54.55,54.55,0,0,1,16.81,5.49c6,3.21,9.87,6.95,12.3,11.77a31.05,31.05,0,0,1,2.26,7.64l.29,1.4a75.68,75.68,0,0,1,1.67,15.57A114.76,114.76,0,0,1,125.41,164Z"/><path class="cls-1" d="M118.36,143.53a2.36,2.36,0,0,0,.6,4.64,2.06,2.06,0,0,0,.6-.08c2.73-.71,5.47-1.44,8.2-2.19L138.09,143l.39-.1-.62-2.28-1.5-2"/></svg>