<svg id="Layer_1" data-name="Layer 1" xmlns="http://www.w3.org/2000/svg" viewBox="0 0 200 200"><defs><style>.cls-1{fill:#e03c31;}</style></defs><path class="cls-1" d="M110.62,68.42a14.58,14.58,0,1,0-10.3-4.26,14.52,14.52,0,0,0,10.3,4.26Zm0-24.93a10.38,10.38,0,1,1-7.32,3A10.34,10.34,0,0,1,110.62,43.49Z"/><path d="M168.28,111.55a9,9,0,0,0,0-18H146A24.13,24.13,0,0,0,130.88,99l-4,3.25-13.53-6.71-2.53-3.82v-.12A15.72,15.72,0,0,0,106,72.33a14.09,14.09,0,0,0-20.92,4.84L65.9,114.28a14.36,14.36,0,0,0-9.29,24.28H47a15,15,0,1,0-20.73,0H23.8a2.1,2.1,0,0,0-2.1,2.1V158a2.08,2.08,0,0,0,2.1,2.1H175a2.11,2.11,0,0,0,1.48-.61,2.08,2.08,0,0,0,.62-1.49v-17.3a2.07,2.07,0,0,0-1.5-2,9.25,9.25,0,0,0-6.89-14.39l-31.18-2.67,8-8.81Zm-25.2-2.27L121,133.77a15.89,15.89,0,0,1-11.58,5H67a10.2,10.2,0,0,1,0-20.39h45.7A2.11,2.11,0,0,0,114,118l4.56-3.69,5.15,2.08a6.78,6.78,0,0,0,3,.67,6.63,6.63,0,0,0,2.57-.48,7,7,0,0,0,3.61-3.26,7,7,0,0,0-2.08-8.86l2.66-2.15A20,20,0,0,1,146,97.84h22.28a4.79,4.79,0,1,1-.12,9.56l-23.69,1.24a2.1,2.1,0,0,0-1.51.64ZM173,133.52a5.05,5.05,0,0,1-5,5h-46a18.83,18.83,0,0,0,2.15-1.95L134,125.56l34.36,2.94a5,5,0,0,1,4.63,5Zm0,9.24v13.11H25.9v-13.1H64.4A13.22,13.22,0,0,0,67,143h42.49a19.21,19.21,0,0,0,2.93-.25H173Zm-148.08-15c0-2.85.13-5.59,2.15-7.61S33.81,115,36.67,115s6.59,2.14,8.61,4.16,3.16,5.76,3.16,8.61a10.78,10.78,0,0,1-3.16,7.62c-2,2-5.76,4.15-8.61,4.15s-6.6-2.14-8.61-4.16a10.76,10.76,0,0,1-3.16-7.61ZM95.35,74a9.91,9.91,0,0,1,8.13,1.68,11.49,11.49,0,0,1,4.32,11.51l-3.36-5h0a2.11,2.11,0,0,0-2.61-.16,2.08,2.08,0,0,0-.75,2.5l9.1,13.62h0a1.92,1.92,0,0,0,.81.71l17.17,8.62a2.81,2.81,0,0,1,1.16,3.59,2.76,2.76,0,0,1-1.58,1.58,2.9,2.9,0,0,1-2.34-.13l-16.24-6.65L90.85,92.85a2.1,2.1,0,0,0-2.44,3.36L100,104.49l-4.54,9.66H70.65L88.8,79.06A9.69,9.69,0,0,1,95.35,74Zm18.76,38.44-2.18,1.68H100.17l3.36-7.17,3.36,2.45h0a1.85,1.85,0,0,0,.44.23Z"/><path class="cls-1" d="M36.68,142.82a15.55,15.55,0,1,0-11-4.55,15.54,15.54,0,0,0,11,4.55Zm0-26.58a11.08,11.08,0,1,1-7.8,3.25A11.09,11.09,0,0,1,36.68,116.24Z"/></svg>