<svg id="Layer_1" data-name="Layer 1" xmlns="http://www.w3.org/2000/svg" viewBox="0 0 200 200"><defs><style>.cls-1{fill:#e03c31;}</style></defs><path d="M79.06,117.79c-17.93,0-25.56-25.42-26.31-42.58a2.51,2.51,0,1,1,5-.22c.65,14.63,7,37.77,21.3,37.77h.13c14.53-.15,20.84-23.34,21.4-37.93a2.61,2.61,0,0,1,2.61-2.42A2.53,2.53,0,0,1,105.63,75c-.66,17.08-8.22,42.57-26.37,42.76Z"/><path d="M103.11,78.81h0c-6.93-.08-11.39-3.4-16.11-6.91-.77-.57-1.56-1.16-2.38-1.75-12.58-9-23.34,1.59-27.38,6.54a2.52,2.52,0,0,1-3.9-3.18c10.28-12.6,23.07-15.39,34.2-7.46.86.62,1.67,1.22,2.47,1.81,4.39,3.27,7.86,5.85,13.16,5.92a2.52,2.52,0,0,1,0,5Z"/><path d="M55.26,77.61A2.52,2.52,0,0,1,53,76.16C47.8,65,47.56,54.78,52.29,47.37S66.65,35.73,79.23,35.73a2.52,2.52,0,1,1,0,5c-10.8,0-18.86,3.31-22.69,9.31s-3.42,14.43,1,24a2.52,2.52,0,0,1-1.23,3.34,2.46,2.46,0,0,1-1,.23Z"/><path d="M103.11,77.45a2.55,2.55,0,0,1-1.06-.24,2.52,2.52,0,0,1-1.22-3.34c4.41-9.49,4.77-18,1-23.82S90,40.76,79.14,40.76a2.52,2.52,0,0,1,0-5c12.6,0,22.17,4.13,27,11.62s4.46,17.54-.69,28.64a2.53,2.53,0,0,1-2.29,1.45Z"/><path d="M60,154.81a7.12,7.12,0,1,1,7.12-7.12A7.13,7.13,0,0,1,60,154.81Zm0-9.21A2.09,2.09,0,1,0,62,147.69,2.07,2.07,0,0,0,60,145.6Z"/><path d="M31.38,176a2.51,2.51,0,0,1-2.52-2.51c0-16.3,3.63-31.17,10-40.79,3.65-5.57,9.12-6.41,14-7.15l1.64-.27a2.52,2.52,0,1,1,.83,5l-1.7.27c-4.34.67-8.09,1.24-10.52,4.94-5.81,8.83-9.14,22.69-9.14,38A2.51,2.51,0,0,1,31.38,176Zm33-50.24a2.57,2.57,0,0,1-1.7-.65,2.53,2.53,0,0,1-.16-3.56c1.89-2.08,1.8-6.5,1.48-12.06a2.51,2.51,0,1,1,5-.29c.34,5.86.69,11.93-2.78,15.74a2.5,2.5,0,0,1-1.86.82Z"/><path d="M127.08,176H31.37a2.52,2.52,0,0,1,0-5h95.71a2.52,2.52,0,1,1,0,5Z"/><path d="M57.82,146.11a2.52,2.52,0,0,1-2.35-1.62c-3.71-9.77-4.1-17.12-1.2-22.46,2.19-4,6.19-6.7,11.88-7.94A2.52,2.52,0,0,1,67.23,119c-4.27.93-7.06,2.7-8.53,5.42-2.13,3.92-1.63,10.07,1.48,18.27A2.53,2.53,0,0,1,58.71,146a2.5,2.5,0,0,1-.89.16Z"/><path d="M107.21,164.19a2.54,2.54,0,0,1-.61-.07,2.51,2.51,0,0,1-1.83-3.05c1.61-6.45,2.51-11.33,2.61-11.87.77-4.42-1.66-9-5.32-9.91a5.72,5.72,0,0,0-4.48.86,8.23,8.23,0,0,0-3.42,5.5c-.31,1.71-1.07,6.43-1.77,12.15a2.51,2.51,0,1,1-5-.6c.7-5.84,1.49-10.69,1.81-12.43a13.26,13.26,0,0,1,5.61-8.83,10.71,10.71,0,0,1,8.45-1.53c6.26,1.62,10.3,8.65,9.06,15.68-.1.56-1,5.6-2.68,12.2a2.52,2.52,0,0,1-2.44,1.9Z"/><path d="M92.54,160.61a2.57,2.57,0,0,1-.55-.06l-2.65-.6A2.52,2.52,0,0,1,90.45,155l2.64.6a2.52,2.52,0,0,1-.55,5Z"/><path d="M107.21,164.19a2.14,2.14,0,0,1-.56-.06l-2.64-.59a2.52,2.52,0,0,1,1.11-4.91l2.64.59a2.52,2.52,0,0,1-.55,5Z"/><path d="M127.08,176a2.51,2.51,0,0,1-2.51-2.51c0-15-3.45-29.25-9.23-38-2.43-3.71-6.15-4.28-10.46-4.95l-1.67-.26a2.52,2.52,0,0,1,.83-5l1.61.26c4.8.74,10.24,1.58,13.9,7.16,6.38,9.7,10,24.57,10,40.79a2.51,2.51,0,0,1-2.52,2.51ZM94,125.72a2.48,2.48,0,0,1-1.86-.82c-3.48-3.81-3.11-10.15-2.79-15.74A2.55,2.55,0,0,1,92,106.79a2.52,2.52,0,0,1,2.37,2.66c-.33,5.56-.42,10,1.48,12.06A2.51,2.51,0,0,1,94,125.72Z"/><path d="M102.69,139.45a2.76,2.76,0,0,1-.57-.06,2.51,2.51,0,0,1-1.88-3c1.26-5.45,1-9.65-.84-12.51-1.53-2.42-4.21-4-8.16-4.84a2.52,2.52,0,0,1,1.06-4.93c5.26,1.13,9.08,3.51,11.35,7.07,2.57,4,3.07,9.53,1.49,16.35a2.51,2.51,0,0,1-2.45,1.94Z"/><path d="M79.23,153.36A2.53,2.53,0,0,1,77,152L62.17,124.4A2.52,2.52,0,1,1,66.61,122l14.84,27.64a2.51,2.51,0,0,1-1,3.4,2.45,2.45,0,0,1-1.19.3Z"/><path d="M79.23,153.36a2.38,2.38,0,0,1-1.18-.3,2.51,2.51,0,0,1-1-3.4L91.77,122a2.52,2.52,0,0,1,4.44,2.37L81.45,152a2.5,2.5,0,0,1-2.22,1.33Z"/><path d="M79.23,176a2.51,2.51,0,0,1-2.52-2.51V150.84a2.52,2.52,0,0,1,5,0v22.61A2.51,2.51,0,0,1,79.23,176Z"/><path d="M45.54,176A2.51,2.51,0,0,1,43,173.45v-8.62a2.52,2.52,0,0,1,5,0v8.62A2.51,2.51,0,0,1,45.54,176Z"/><path d="M112.84,176a2.51,2.51,0,0,1-2.52-2.51v-8.62a2.52,2.52,0,0,1,5,0v8.62A2.51,2.51,0,0,1,112.84,176Z"/><path d="M175.79,159.41h-40.6a2.52,2.52,0,1,1,0-5h38.08V48.1h-62a2.52,2.52,0,1,1,0-5h64.49a2.51,2.51,0,0,1,2.51,2.51V156.9a2.51,2.51,0,0,1-2.51,2.51Z"/><path d="M148.67,148.84H131.44a2.52,2.52,0,1,1,0-5h17.23a2.52,2.52,0,0,1,0,5Z"/><path d="M158.22,138.09h-31.9a2.52,2.52,0,1,1,0-5h31.9a2.52,2.52,0,0,1,0,5Z"/><path d="M158.22,127.43H118.73a2.52,2.52,0,1,1,0-5h39.49a2.52,2.52,0,0,1,0,5Z"/><path class="cls-1" d="M135.14,76a1.08,1.08,0,0,0,1.08-1.07V73.69a1.08,1.08,0,0,0-2.16,0v1.25A1.08,1.08,0,0,0,135.14,76Z"/><path class="cls-1" d="M135.14,76.72a1.79,1.79,0,0,1-1.79-1.78V73.69a1.79,1.79,0,1,1,3.58,0v1.25A1.79,1.79,0,0,1,135.14,76.72Zm0-3.4a.37.37,0,0,0-.37.37v1.25a.37.37,0,0,0,.74,0V73.69A.37.37,0,0,0,135.14,73.32Z"/><path class="cls-1" d="M145,76A1.08,1.08,0,0,0,146,74.94V73.69a1.08,1.08,0,1,0-2.16,0v1.25A1.08,1.08,0,0,0,145,76Z"/><path class="cls-1" d="M145,76.72a1.79,1.79,0,0,1-1.79-1.78V73.69a1.79,1.79,0,1,1,3.58,0v1.25A1.79,1.79,0,0,1,145,76.72Zm0-3.4a.37.37,0,0,0-.37.37v1.25a.37.37,0,0,0,.74,0V73.69A.37.37,0,0,0,145,73.32Z"/><path class="cls-1" d="M152.32,93.25h-8.16V89.92c5.5-.11,9.62-4,9.62-9.25V79a4.22,4.22,0,0,0,3.13-6.91v-8.5A4.58,4.58,0,0,0,152.52,59H152a10.92,10.92,0,0,0-9.14-5h-5.65a10.92,10.92,0,0,0-9.14,5h-.51a4.58,4.58,0,0,0-4.38,4.56v8.5a4.12,4.12,0,0,0-.93,2.21,4.23,4.23,0,0,0,4.07,4.7v1.68c0,5.08,3.93,9,9.25,9.24v3.34h-7.8a8.58,8.58,0,0,0-8.58,8.55v6.32a1.09,1.09,0,0,0,1.08,1.08h14.63a1.08,1.08,0,1,0,0-2.16H121.36V101.8a6.42,6.42,0,0,1,6.42-6.4h5.62a6.73,6.73,0,0,0,13.3,0h5.62a6.42,6.42,0,0,1,6.42,6.4V107H145.19a1.08,1.08,0,1,0,0,2.16h14.63a1.08,1.08,0,0,0,1.08-1.08V101.8a8.58,8.58,0,0,0-8.58-8.55Zm2.43-29.67v8h-1.06a3,3,0,0,1-3-3V65a1.08,1.08,0,0,0-1.08-1.08h-.24a1.37,1.37,0,1,1,0-2.73h2.93a2.42,2.42,0,0,1,2.42,2.41Zm-29.4,0a2.42,2.42,0,0,1,2.42-2.41h2.93a1.37,1.37,0,1,1,0,2.73h-.24A1.08,1.08,0,0,0,129.38,65v3.7a3,3,0,0,1-3,3h-1.06Zm-.43,12.56a2,2,0,0,1-.51-1.62,1.89,1.89,0,0,1,.23-.73h1.78a5.13,5.13,0,0,0,5.12-5.11V66a3.52,3.52,0,0,0-.73-6.94,8.76,8.76,0,0,1,6.42-2.81h5.65A8.76,8.76,0,0,1,149.3,59a3.52,3.52,0,0,0-.74,6.94v2.73a5.13,5.13,0,0,0,5.13,5.11h1.77a1.78,1.78,0,0,1,.23.73,2,2,0,0,1-.51,1.62,2.11,2.11,0,0,1-2.18.61,1.07,1.07,0,0,0-.95.16,1.08,1.08,0,0,0-.44.87v.62h-4.27a9.73,9.73,0,0,0-5.47-1.71h-3.28a9.67,9.67,0,0,0-5.46,1.71h-4.64v-.62a1.07,1.07,0,0,0-1.39-1,2.1,2.1,0,0,1-.61.09,2.13,2.13,0,0,1-1.57-.7Zm3.56,4.53v-.11h5a1.08,1.08,0,0,0,.65-.22,7.5,7.5,0,0,1,4.47-1.49h3.28a7.5,7.5,0,0,1,4.47,1.49,1.11,1.11,0,0,0,.65.22h4.63v.11c0,4-3.31,7.1-7.71,7.1h-7.72c-4.39,0-7.71-3-7.71-7.1ZM140.05,99a4.57,4.57,0,0,1-4.46-3.57h1.07a1.07,1.07,0,0,0,1.07-1.07v-4.4H142v4.4a1.07,1.07,0,0,0,1.07,1.07h1.43A4.57,4.57,0,0,1,140.05,99Z"/><path class="cls-1" d="M159.82,109.9H145.19a1.79,1.79,0,1,1,0-3.57H158V101.8a5.71,5.71,0,0,0-5.71-5.69h-5a7.44,7.44,0,0,1-14.48,0h-5a5.71,5.71,0,0,0-5.71,5.69v4.53h12.84a1.79,1.79,0,1,1,0,3.57H120.28a1.78,1.78,0,0,1-1.78-1.78V101.8a9.28,9.28,0,0,1,9.28-9.26h7.09v-2c-5.4-.58-9.25-4.64-9.25-9.89v-1a4.93,4.93,0,0,1-3.13-7.78V63.58a5.26,5.26,0,0,1,5-5.26l.21,0a11.58,11.58,0,0,1,9.52-5h5.65a11.57,11.57,0,0,1,9.52,5l.25,0a5.24,5.24,0,0,1,5,5.26v8.26a4.8,4.8,0,0,1,.93,2.37,4.94,4.94,0,0,1-4.06,5.41v1c0,5.33-4.08,9.49-9.61,9.93v1.94h7.45a9.29,9.29,0,0,1,9.29,9.26v6.32A1.79,1.79,0,0,1,159.82,109.9Zm-14.63-2.15a.37.37,0,0,0,0,.74h14.63a.38.38,0,0,0,.37-.37V101.8A7.87,7.87,0,0,0,152.32,94h-8.87V89.23l.7,0c5.08-.1,8.92-3.78,8.92-8.54l0-2.37.69,0a3.53,3.53,0,0,0,3.39-3.92,3.41,3.41,0,0,0-.78-1.83l-.16-.19V63.58a3.85,3.85,0,0,0-3.7-3.85l-.16-.72v.7h-.69l-.21-.32a10.17,10.17,0,0,0-8.55-4.63h-5.65a10.17,10.17,0,0,0-8.55,4.63l-.21.32-.86,0a3.85,3.85,0,0,0-3.7,3.85v8.76l-.16.19a3.41,3.41,0,0,0-.78,1.83,3.54,3.54,0,0,0,3.39,3.92l.69,0,0,2.38c0,4.67,3.61,8.26,8.59,8.52l.67,0V94h-8.51a7.87,7.87,0,0,0-7.87,7.84v6.32a.38.38,0,0,0,.37.37h14.63a.37.37,0,0,0,0-.74H120.65v-6a7.13,7.13,0,0,1,7.13-7.11H134l.09.61a6,6,0,0,0,11.9,0l.09-.61h6.23a7.13,7.13,0,0,1,7.13,7.11v6Zm-5.14-8.07a5.3,5.3,0,0,1-5.15-4.12l-.19-.87h1.95a.36.36,0,0,0,.36-.36V89.22h5.7v5.11a.36.36,0,0,0,.36.36h2.31l-.19.87A5.3,5.3,0,0,1,140.05,99.68Zm-3.47-3.57a3.88,3.88,0,0,0,6.94,0h-.44a1.78,1.78,0,0,1-1.78-1.78v-3.7h-2.86v3.7a1.78,1.78,0,0,1-1.78,1.78Zm7.33-7.63h-7.72c-4.8,0-8.42-3.36-8.42-7.81h0v-.82h5.7a.35.35,0,0,0,.22-.08,8.26,8.26,0,0,1,4.9-1.63h3.28a8.26,8.26,0,0,1,4.9,1.63.35.35,0,0,0,.22.08h5.34v.82C152.33,85.12,148.71,88.48,143.91,88.48Zm-14.7-7.21a6.1,6.1,0,0,0,2,4,7.35,7.35,0,0,0,5,1.84h7.72c3.77,0,6.67-2.45,7-5.79H147a1.77,1.77,0,0,1-1.07-.36,6.74,6.74,0,0,0-4-1.36h-3.28a6.71,6.71,0,0,0-4,1.36,1.82,1.82,0,0,1-1.08.36Zm23.11-2.16h-5.2l-.19-.13a9,9,0,0,0-5.06-1.58h-3.28A9,9,0,0,0,133.53,79l-.18.13h-5.57V77.78a.36.36,0,0,0-.15-.3.33.33,0,0,0-.32,0,2.86,2.86,0,0,1-2.91-.82l.52-.47-.53.47a2.75,2.75,0,0,1-.69-2.17,2.93,2.93,0,0,1,.31-1l.2-.37h2.21a4.42,4.42,0,0,0,4.41-4.4V65.39l.54-.13a2.8,2.8,0,0,0,2.15-2.73,2.83,2.83,0,0,0-2.73-2.81l-1.56,0,1.06-1.15a9.52,9.52,0,0,1,6.94-3h5.65a9.52,9.52,0,0,1,6.94,3l1.07,1.15-1.57,0a2.81,2.81,0,0,0-.59,5.54l.54.13v3.29a4.42,4.42,0,0,0,4.42,4.4h2.2l.2.37a2.72,2.72,0,0,1,.31,1,2.75,2.75,0,0,1-.69,2.17,2.88,2.88,0,0,1-2.91.82.35.35,0,0,0-.33,0,.38.38,0,0,0-.15.3Zm-4.77-1.42h3.36a1.8,1.8,0,0,1,.71-1.35,1.84,1.84,0,0,1,1.59-.27,1.43,1.43,0,0,0,1.44-.4A1.39,1.39,0,0,0,155,74.6a.3.3,0,0,0,0-.1h-1.28a5.84,5.84,0,0,1-5.84-5.82V66.46a4.22,4.22,0,0,1-2.69-3.93,4.26,4.26,0,0,1,2.66-3.92,8.1,8.1,0,0,0-4.94-1.7h-5.65a8.1,8.1,0,0,0-4.93,1.69,4.23,4.23,0,0,1-.05,7.86v2.22a5.84,5.84,0,0,1-5.83,5.82h-1.29s0,.06,0,.1a1.39,1.39,0,0,0,.34,1.07,1.45,1.45,0,0,0,1.45.4,1.78,1.78,0,0,1,2.3,1.62h3.71A10.43,10.43,0,0,1,138.59,76h3.28A10.43,10.43,0,0,1,147.55,77.69Zm7.91-5.35h-1.77A3.67,3.67,0,0,1,150,68.67V65a.37.37,0,0,0-.37-.37h-.24a2.08,2.08,0,1,1,0-4.15h2.87a3.15,3.15,0,0,1,3.19,3.12h0ZM149.4,61.87a.66.66,0,1,0,0,1.31h.24A1.79,1.79,0,0,1,151.42,65v3.7a2.26,2.26,0,0,0,2.27,2.25H154V63.58a1.71,1.71,0,0,0-1.71-1.7H149.4Zm-23,10.47h-1.77V63.58a3.12,3.12,0,0,1,3.12-3.12h2.93a2.08,2.08,0,1,1,0,4.15h-.24a.37.37,0,0,0-.37.37v3.7A3.67,3.67,0,0,1,126.42,72.34Zm-.36-1.42h.36a2.26,2.26,0,0,0,2.26-2.25V65a1.79,1.79,0,0,1,1.78-1.79h.24a.66.66,0,1,0,0-1.31h-2.93a1.71,1.71,0,0,0-1.71,1.7Z"/><path class="cls-1" d="M141.07,107.71a1.08,1.08,0,1,0-.4,1.3,1.08,1.08,0,0,0,.4-1.3Z"/><path class="cls-1" d="M140.07,109.9a1.78,1.78,0,1,1,1.65-2.46,1.78,1.78,0,0,1-1.65,2.46Zm0-2.15h0a.36.36,0,0,0-.32.27.38.38,0,0,0,.13.4.39.39,0,0,0,.43,0,.39.39,0,0,0,.13-.44h0A.37.37,0,0,0,140.07,107.75Z"/></svg>