<svg id="Layer_1" data-name="Layer 1" xmlns="http://www.w3.org/2000/svg" viewBox="0 0 200 200"><defs><style>.cls-1{fill:#e03c31;}</style></defs><path d="M71.43,74.73H38.49a6.57,6.57,0,0,1-6.57-6.57V35.22a6.58,6.58,0,0,1,6.57-6.57H71.43A6.58,6.58,0,0,1,78,35.22V68.16A6.57,6.57,0,0,1,71.43,74.73ZM38.49,32.9a2.35,2.35,0,0,0-2.32,2.32V68.16a2.35,2.35,0,0,0,2.32,2.32H71.43a2.35,2.35,0,0,0,2.32-2.32V35.22a2.35,2.35,0,0,0-2.32-2.32Z"/><path d="M50.82,42.71a7,7,0,0,1,3.9-1,8.41,8.41,0,0,1,5.05,1.46,5,5,0,0,1,2,4.3,4.81,4.81,0,0,1-.88,2.94A10.13,10.13,0,0,1,59,52.24L58,53a2.87,2.87,0,0,0-1,1.41A6.36,6.36,0,0,0,56.79,56H53.15a10.51,10.51,0,0,1,.42-3.13,5.55,5.55,0,0,1,1.8-2l1-.77a3.43,3.43,0,0,0,.78-.79,2.76,2.76,0,0,0,.53-1.63,3.19,3.19,0,0,0-.59-1.86A2.51,2.51,0,0,0,54.89,45a2.4,2.4,0,0,0-2.21,1A4,4,0,0,0,52,48.14H48.14Q48.31,44.3,50.82,42.71Zm2.23,15.11h4V61.7h-4Z"/><path d="M119.15,74.73H86.21a6.57,6.57,0,0,1-6.57-6.57V35.22a6.58,6.58,0,0,1,6.57-6.57h32.94a6.58,6.58,0,0,1,6.57,6.57V68.16A6.57,6.57,0,0,1,119.15,74.73ZM86.21,32.9a2.35,2.35,0,0,0-2.32,2.32V68.16a2.35,2.35,0,0,0,2.32,2.32h32.94a2.35,2.35,0,0,0,2.32-2.32V35.22a2.36,2.36,0,0,0-2.32-2.32Z"/><path d="M98.54,42.71a7,7,0,0,1,3.9-1,8.35,8.35,0,0,1,5,1.46,5,5,0,0,1,2,4.3,4.87,4.87,0,0,1-.87,2.94,10.13,10.13,0,0,1-2,1.86l-1,.74a2.91,2.91,0,0,0-1,1.41,5.91,5.91,0,0,0-.17,1.58h-3.65a10.77,10.77,0,0,1,.43-3.13,5.55,5.55,0,0,1,1.8-2l1-.77a3.19,3.19,0,0,0,.77-.79,2.7,2.7,0,0,0,.54-1.63,3.13,3.13,0,0,0-.6-1.86A2.49,2.49,0,0,0,102.6,45a2.4,2.4,0,0,0-2.2,1,3.91,3.91,0,0,0-.65,2.15H95.86Q96,44.3,98.54,42.71Zm2.23,15.11h4V61.7h-4Z"/><path d="M166.87,74.73H133.93a6.57,6.57,0,0,1-6.57-6.57V35.22a6.57,6.57,0,0,1,6.57-6.57h32.94a6.58,6.58,0,0,1,6.57,6.57V68.16A6.57,6.57,0,0,1,166.87,74.73ZM133.93,32.9a2.35,2.35,0,0,0-2.32,2.32V68.16a2.35,2.35,0,0,0,2.32,2.32h32.94a2.35,2.35,0,0,0,2.32-2.32V35.22a2.36,2.36,0,0,0-2.32-2.32Z"/><path d="M71.43,122.11H38.49a6.58,6.58,0,0,1-6.57-6.57V82.6A6.58,6.58,0,0,1,38.49,76H71.43A6.58,6.58,0,0,1,78,82.6v32.94A6.58,6.58,0,0,1,71.43,122.11ZM38.49,80.28a2.35,2.35,0,0,0-2.32,2.32v32.94a2.35,2.35,0,0,0,2.32,2.32H71.43a2.35,2.35,0,0,0,2.32-2.32V82.6a2.35,2.35,0,0,0-2.32-2.32Z"/><path d="M119.15,122.11H86.21a6.58,6.58,0,0,1-6.57-6.57V82.6A6.58,6.58,0,0,1,86.21,76h32.94a6.58,6.58,0,0,1,6.57,6.57v32.94A6.58,6.58,0,0,1,119.15,122.11ZM86.21,80.28a2.35,2.35,0,0,0-2.32,2.32v32.94a2.35,2.35,0,0,0,2.32,2.32h32.94a2.35,2.35,0,0,0,2.32-2.32V82.6a2.36,2.36,0,0,0-2.32-2.32Z"/><path d="M98.54,90.08a7.08,7.08,0,0,1,3.9-1,8.42,8.42,0,0,1,5,1.45,5,5,0,0,1,2,4.31,4.87,4.87,0,0,1-.87,2.94,10.13,10.13,0,0,1-2,1.86l-1,.74a2.91,2.91,0,0,0-1,1.41,5.91,5.91,0,0,0-.17,1.58h-3.65a10.91,10.91,0,0,1,.43-3.14,5.62,5.62,0,0,1,1.8-2l1-.77a3.19,3.19,0,0,0,.77-.79,2.7,2.7,0,0,0,.54-1.63,3.13,3.13,0,0,0-.6-1.86,2.49,2.49,0,0,0-2.18-.84,2.39,2.39,0,0,0-2.2,1,4,4,0,0,0-.65,2.16H95.86Q96,91.68,98.54,90.08Zm2.23,15.12h4v3.88h-4Z"/><path d="M166.87,122.11H133.93a6.57,6.57,0,0,1-6.57-6.57V82.6A6.57,6.57,0,0,1,133.93,76h32.94a6.58,6.58,0,0,1,6.57,6.57v32.94A6.58,6.58,0,0,1,166.87,122.11ZM133.93,80.28a2.35,2.35,0,0,0-2.32,2.32v32.94a2.35,2.35,0,0,0,2.32,2.32h32.94a2.35,2.35,0,0,0,2.32-2.32V82.6a2.36,2.36,0,0,0-2.32-2.32Z"/><path d="M146.26,90.08a7,7,0,0,1,3.89-1,8.45,8.45,0,0,1,5,1.45,5,5,0,0,1,2,4.31,4.87,4.87,0,0,1-.87,2.94,10,10,0,0,1-2,1.86l-.95.74a2.85,2.85,0,0,0-1,1.41,5.52,5.52,0,0,0-.17,1.58h-3.65a10.91,10.91,0,0,1,.43-3.14,5.52,5.52,0,0,1,1.8-2l1-.77a3.19,3.19,0,0,0,.77-.79A2.7,2.7,0,0,0,153.1,95a3.13,3.13,0,0,0-.6-1.86,2.5,2.5,0,0,0-2.18-.84,2.39,2.39,0,0,0-2.2,1,4,4,0,0,0-.65,2.16h-3.89Q143.75,91.68,146.26,90.08Zm2.23,15.12h4v3.88h-4Z"/><path d="M71.43,170H38.49a6.58,6.58,0,0,1-6.57-6.57V130.52A6.58,6.58,0,0,1,38.49,124H71.43A6.58,6.58,0,0,1,78,130.52v32.94A6.58,6.58,0,0,1,71.43,170ZM38.49,128.2a2.35,2.35,0,0,0-2.32,2.32v32.94a2.35,2.35,0,0,0,2.32,2.32H71.43a2.35,2.35,0,0,0,2.32-2.32V130.52a2.35,2.35,0,0,0-2.32-2.32Z"/><path d="M50.82,138a7.08,7.08,0,0,1,3.9-1,8.4,8.4,0,0,1,5.05,1.45,5,5,0,0,1,2,4.3,4.82,4.82,0,0,1-.88,3A10.15,10.15,0,0,1,59,147.53l-1,.74a3,3,0,0,0-1,1.41,6.45,6.45,0,0,0-.17,1.59H53.15a10.65,10.65,0,0,1,.42-3.14,5.53,5.53,0,0,1,1.8-2l1-.77a3.64,3.64,0,0,0,.78-.79,2.78,2.78,0,0,0,.53-1.63,3.19,3.19,0,0,0-.59-1.86,2.51,2.51,0,0,0-2.18-.84,2.4,2.4,0,0,0-2.21,1,4,4,0,0,0-.65,2.15H48.14Q48.31,139.6,50.82,138Zm2.23,15.11h4V157h-4Z"/><path d="M119.15,170H86.21a6.58,6.58,0,0,1-6.57-6.57V130.52A6.58,6.58,0,0,1,86.21,124h32.94a6.58,6.58,0,0,1,6.57,6.57v32.94A6.58,6.58,0,0,1,119.15,170ZM86.21,128.2a2.35,2.35,0,0,0-2.32,2.32v32.94a2.35,2.35,0,0,0,2.32,2.32h32.94a2.35,2.35,0,0,0,2.32-2.32V130.52a2.35,2.35,0,0,0-2.32-2.32Z"/><path d="M98.54,138a7.08,7.08,0,0,1,3.9-1,8.35,8.35,0,0,1,5,1.45,5,5,0,0,1,2,4.3,4.88,4.88,0,0,1-.87,3,10.15,10.15,0,0,1-2,1.85l-1,.74a3,3,0,0,0-1,1.41,6,6,0,0,0-.17,1.59h-3.65a10.91,10.91,0,0,1,.43-3.14,5.53,5.53,0,0,1,1.8-2l1-.77a3.37,3.37,0,0,0,.77-.79,2.73,2.73,0,0,0,.54-1.63,3.13,3.13,0,0,0-.6-1.86,2.49,2.49,0,0,0-2.18-.84,2.39,2.39,0,0,0-2.2,1,3.94,3.94,0,0,0-.65,2.15H95.86Q96,139.6,98.54,138Zm2.23,15.11h4V157h-4Z"/><path d="M166.87,170H133.93a6.57,6.57,0,0,1-6.57-6.57V130.52a6.57,6.57,0,0,1,6.57-6.57h32.94a6.58,6.58,0,0,1,6.57,6.57v32.94A6.58,6.58,0,0,1,166.87,170ZM133.93,128.2a2.35,2.35,0,0,0-2.32,2.32v32.94a2.35,2.35,0,0,0,2.32,2.32h32.94a2.35,2.35,0,0,0,2.32-2.32V130.52a2.35,2.35,0,0,0-2.32-2.32Z"/><path d="M146.26,138a7,7,0,0,1,3.89-1,8.38,8.38,0,0,1,5,1.45,5,5,0,0,1,2,4.3,4.88,4.88,0,0,1-.87,3,10,10,0,0,1-2,1.85l-.95.74a2.94,2.94,0,0,0-1,1.41,5.6,5.6,0,0,0-.17,1.59h-3.65a10.91,10.91,0,0,1,.43-3.14,5.44,5.44,0,0,1,1.8-2l1-.77a3.37,3.37,0,0,0,.77-.79,2.73,2.73,0,0,0,.54-1.63,3.13,3.13,0,0,0-.6-1.86,2.5,2.5,0,0,0-2.18-.84,2.39,2.39,0,0,0-2.2,1,3.94,3.94,0,0,0-.65,2.15h-3.89Q143.75,139.6,146.26,138Zm2.23,15.11h4V157h-4Z"/><path class="cls-1" d="M150.5,62.14A10.46,10.46,0,0,1,140,51.69a10.46,10.46,0,1,1,17.85,7.39A10.06,10.06,0,0,1,150.5,62.14Zm0-1.33A9.11,9.11,0,0,0,157,45.25a9.12,9.12,0,1,0-12.9,12.89A8.79,8.79,0,0,0,150.5,60.81Zm-6.14-8.54h.82q1,4.32,5.32,4.32t5.31-4.32h.84a6.93,6.93,0,0,1-2,4.38,6.34,6.34,0,0,1-8.4,0A6.92,6.92,0,0,1,144.36,52.27ZM147.17,50a1.66,1.66,0,0,1-1.65-1.66A1.62,1.62,0,0,1,146,47.2a1.66,1.66,0,1,1,2.35,2.34A1.64,1.64,0,0,1,147.17,50Zm6.66,0a1.64,1.64,0,0,1-1.18-.49,1.56,1.56,0,0,1-.49-1.17,1.59,1.59,0,0,1,.49-1.17,1.63,1.63,0,0,1,1.18-.48,1.66,1.66,0,0,1,1.65,1.65,1.56,1.56,0,0,1-.49,1.17A1.6,1.6,0,0,1,153.83,50Z"/><path class="cls-1" d="M150.5,62.42a10.73,10.73,0,0,1-7.59-18.32,10.73,10.73,0,0,1,15.18,15.18A10.37,10.37,0,0,1,150.5,62.42Zm0-20.89a10.16,10.16,0,0,0-7.19,17.35,10.16,10.16,0,1,0,14.38-14.37A9.84,9.84,0,0,0,150.5,41.53Zm0,19.56a9.39,9.39,0,0,1-6.65-16,9.4,9.4,0,0,1,13.3,13.29A9.1,9.1,0,0,1,150.5,61.09Zm0-18.23a8.83,8.83,0,0,0-6.25,15.08,8.84,8.84,0,1,0,12.5-12.49A8.55,8.55,0,0,0,150.5,42.86Zm0,15.66a6.1,6.1,0,0,1-4.4-1.66,7.24,7.24,0,0,1-2-4.56l0-.31h1.37l.05.22c.62,2.75,2.27,4.09,5,4.09s4.41-1.34,5-4.09l.05-.22H157l0,.31a7.22,7.22,0,0,1-2,4.56A6.1,6.1,0,0,1,150.5,58.52Zm-5.82-6a6.58,6.58,0,0,0,1.82,3.9,6.07,6.07,0,0,0,8,0,6.64,6.64,0,0,0,1.82-3.9H156a5.71,5.71,0,0,1-11.08,0Zm9.15-2.24a1.88,1.88,0,0,1-1.38-.57,1.85,1.85,0,0,1-.58-1.37,1.88,1.88,0,0,1,.58-1.37,1.94,1.94,0,0,1,3.31,1.37,1.86,1.86,0,0,1-.57,1.37A1.84,1.84,0,0,1,153.83,50.31Zm0-3.31a1.32,1.32,0,0,0-1,.4,1.35,1.35,0,0,0,0,1.94,1.36,1.36,0,0,0,1.94,0,1.35,1.35,0,0,0,0-1.94A1.29,1.29,0,0,0,153.83,47Zm-6.66,3.31A1.94,1.94,0,0,1,145.8,47a2,2,0,0,1,2.75,0,1.87,1.87,0,0,1,.57,1.37,1.84,1.84,0,0,1-.57,1.37A1.9,1.9,0,0,1,147.17,50.31Zm0-3.31a1.37,1.37,0,0,0-1,2.34,1.38,1.38,0,0,0,2,0,1.37,1.37,0,0,0-1-2.34Z"/><path class="cls-1" d="M150.5,62.53A10.83,10.83,0,0,1,142.83,44a10.84,10.84,0,0,1,15.34,15.33A10.53,10.53,0,0,1,150.5,62.53Zm0-20.89a10.06,10.06,0,0,0-7.12,17.16,10.06,10.06,0,1,0,14.23-14.22A9.74,9.74,0,0,0,150.5,41.64Zm0,19.56A9.5,9.5,0,0,1,143.77,45a9.51,9.51,0,1,1,13.45,13.44A9.21,9.21,0,0,1,150.5,61.2Zm0-18.23a8.73,8.73,0,1,0,0,17.45,8.72,8.72,0,0,0,6.17-14.89A8.42,8.42,0,0,0,150.5,43Zm0,15.66a6.14,6.14,0,0,1-4.47-1.7A7.36,7.36,0,0,1,144,52.31l-.05-.43h1.57l.07.3c.62,2.7,2.23,4,4.94,4s4.32-1.32,4.93-4l.07-.3h1.58l0,.43A7.36,7.36,0,0,1,155,56.93,6.2,6.2,0,0,1,150.5,58.63Zm-5.69-6a6.35,6.35,0,0,0,1.76,3.71,6,6,0,0,0,7.86,0,6.3,6.3,0,0,0,1.77-3.71h-.08a5.82,5.82,0,0,1-11.25,0Zm9-2.24a2,2,0,0,1-1.46-.6,2.05,2.05,0,0,1,0-2.9,2.07,2.07,0,0,1,2.9,0,2,2,0,0,1,.6,1.44,2,2,0,0,1-2,2.05Zm0-3.31a1.25,1.25,0,0,0-.91.37,1.2,1.2,0,0,0-.37.89,1.19,1.19,0,0,0,.37.89,1.28,1.28,0,0,0,1.8,0,1.27,1.27,0,0,0-.89-2.16Zm-6.66,3.31a2,2,0,0,1-2-2.05,2,2,0,0,1,.6-1.44,2.06,2.06,0,0,1,2.9,0,2,2,0,0,1,.6,1.44,2.07,2.07,0,0,1-2.06,2.05Zm0-3.31a1.27,1.27,0,0,0-.89,2.16,1.26,1.26,0,0,0,1.79,0,1.24,1.24,0,0,0,0-1.78A1.23,1.23,0,0,0,147.17,47.11Z"/><path class="cls-1" d="M150.5,62.81a11.12,11.12,0,0,1-7.87-19,11.13,11.13,0,0,1,15.74,15.73A10.78,10.78,0,0,1,150.5,62.81Zm0-21.67a10.56,10.56,0,0,0-7.47,18A10.56,10.56,0,0,0,158,44.23,10.25,10.25,0,0,0,150.5,41.14Zm0,20.89a10.34,10.34,0,0,1-7.32-17.65A10.34,10.34,0,1,1,157.81,59,10,10,0,0,1,150.5,62Zm0-19.56A9.23,9.23,0,0,0,144,58.22a9.22,9.22,0,1,0,13.05-13A8.9,8.9,0,0,0,150.5,42.47Zm0,18.23a9,9,0,0,1-6.38-15.37,9,9,0,1,1,12.75,12.74A8.74,8.74,0,0,1,150.5,60.7Zm0-17.45a8.44,8.44,0,0,0-6,14.41,8.44,8.44,0,1,0,11.95-11.93A8.14,8.14,0,0,0,150.5,43.25Zm0,15.66a6.43,6.43,0,0,1-4.67-1.77,7.63,7.63,0,0,1-2.14-4.79l-.08-.75h2.11l.12.52c.59,2.59,2.07,3.79,4.66,3.79s4.07-1.2,4.66-3.79l.12-.52h2.12l-.08.75a7.64,7.64,0,0,1-2.15,4.79A6.45,6.45,0,0,1,150.5,58.91Zm-6.26-6.75v.12a7.16,7.16,0,0,0,2,4.45,6.46,6.46,0,0,0,8.56,0,7.05,7.05,0,0,0,2-4.45l0-.12h-1l0,.09c-.65,2.85-2.35,4.23-5.21,4.23s-4.57-1.38-5.22-4.23v-.09Zm6.26,6a5.7,5.7,0,0,1-4.13-1.55,6.69,6.69,0,0,1-1.84-3.87l-.05-.33h.61l.06.21a5.54,5.54,0,0,0,10.7,0l.05-.21h.63l-.05.33a6.63,6.63,0,0,1-1.85,3.87A5.73,5.73,0,0,1,150.5,58.13Zm-3.63-1.86a5.71,5.71,0,0,0,7.29,0,7.11,7.11,0,0,1-7.29,0Zm7-5.57a2.32,2.32,0,0,1-1.65-4,2.33,2.33,0,0,1,3.29,0,2.33,2.33,0,0,1-1.64,4Zm0-4.09a1.8,1.8,0,0,0-1.26.52,1.75,1.75,0,0,0,0,2.49,1.79,1.79,0,0,0,2.5,0,1.75,1.75,0,0,0,0-2.49A1.76,1.76,0,0,0,153.83,46.61Zm-6.66,4.09a2.32,2.32,0,0,1-2.33-2.33,2.24,2.24,0,0,1,.68-1.64,2.33,2.33,0,0,1,1.66-.68h0a2.31,2.31,0,0,1,1.65.68,2.32,2.32,0,0,1,0,3.29A2.28,2.28,0,0,1,147.17,50.7Zm0-4.09a1.75,1.75,0,0,0-1.25.52,1.75,1.75,0,0,0,0,2.49,1.77,1.77,0,0,0,2.49,0,1.68,1.68,0,0,0,.52-1.25,1.7,1.7,0,0,0-.51-1.24,1.8,1.8,0,0,0-1.25-.52Zm6.64,3.31a1.59,1.59,0,0,1-1.1-.45,1.56,1.56,0,0,1,0-2.19,1.57,1.57,0,0,1,2.2,0,1.56,1.56,0,0,1,0,2.19A1.57,1.57,0,0,1,153.82,49.92Zm0-2.53a1,1,0,0,0-.71.29.92.92,0,0,0-.29.69.89.89,0,0,0,.29.69,1,1,0,0,0,1.4,0,1,1,0,0,0,.28-.7,1,1,0,0,0-1-1Zm-6.66,2.53a1.53,1.53,0,0,1-1.09-.45,1.53,1.53,0,0,1,0-2.19,1.56,1.56,0,0,1,2.2,0,1.5,1.5,0,0,1,.45,1.09,1.47,1.47,0,0,1-.46,1.1A1.59,1.59,0,0,1,147.17,49.92Zm0-2.53a1,1,0,0,0-.69,1.67,1,1,0,0,0,1.39,0,.89.89,0,0,0,.29-.69.92.92,0,0,0-.28-.69A.94.94,0,0,0,147.17,47.39Z"/><path class="cls-1" d="M54.73,110.33A10.45,10.45,0,1,1,65.19,99.88a10.45,10.45,0,0,1-10.46,10.45Zm0-1.33a9.12,9.12,0,1,0-6.45-2.67A8.79,8.79,0,0,0,54.73,109Zm-6.13-8.54h.82c.65,2.88,2.42,4.31,5.31,4.31a5,5,0,0,0,5.32-4.31h.83a6.92,6.92,0,0,1-1.94,4.38,6.36,6.36,0,0,1-8.41,0A7,7,0,0,1,48.6,100.46Zm2.81-2.25a1.59,1.59,0,0,1-1.17-.48,1.64,1.64,0,0,1,0-2.34,1.59,1.59,0,0,1,1.17-.48,1.61,1.61,0,0,1,1.18.48,1.59,1.59,0,0,1,.48,1.17,1.56,1.56,0,0,1-.49,1.17A1.61,1.61,0,0,1,51.41,98.21Zm6.65,0a1.63,1.63,0,0,1-1.18-.48,1.64,1.64,0,0,1,0-2.34,1.63,1.63,0,0,1,1.18-.48,1.65,1.65,0,1,1,0,3.3Z"/><path class="cls-1" d="M54.73,110.61a10.72,10.72,0,1,1,7.6-3.14A10.41,10.41,0,0,1,54.73,110.61Zm0-20.89a10.14,10.14,0,1,0,7.2,3A9.87,9.87,0,0,0,54.73,89.72Zm0,19.56a9.39,9.39,0,1,1,6.66-2.75A9.14,9.14,0,0,1,54.73,109.28Zm0-18.23A8.84,8.84,0,1,0,61,93.64,8.55,8.55,0,0,0,54.73,91.05Zm0,15.66A6,6,0,0,1,50.34,105a7.27,7.27,0,0,1-2-4.55l0-.31h1.36l0,.22c.63,2.75,2.28,4.09,5,4.09s4.42-1.34,5-4.09l0-.22H61.2l0,.31a7.33,7.33,0,0,1-2,4.56A6.11,6.11,0,0,1,54.73,106.71Zm-5.81-6a6.57,6.57,0,0,0,1.81,3.9,6.1,6.1,0,0,0,8,0,6.52,6.52,0,0,0,1.82-3.9h-.29a5.2,5.2,0,0,1-5.54,4.32,5.21,5.21,0,0,1-5.54-4.32Zm9.14-2.24a1.87,1.87,0,0,1-1.37-.57,1.91,1.91,0,0,1,0-2.74,1.94,1.94,0,1,1,1.37,3.31Zm0-3.31a1.35,1.35,0,0,0-1,.4,1.38,1.38,0,0,0,0,1.94,1.38,1.38,0,0,0,2,0,1.37,1.37,0,0,0-1-2.34ZM51.41,98.5A1.84,1.84,0,0,1,50,97.93a1.93,1.93,0,0,1,0-2.74,1.84,1.84,0,0,1,1.37-.57,1.94,1.94,0,0,1,0,3.88Zm0-3.31a1.3,1.3,0,0,0-1,.4,1.38,1.38,0,0,0,0,1.94,1.36,1.36,0,0,0,1.94,0,1.29,1.29,0,0,0,.41-1,1.37,1.37,0,0,0-1.38-1.37Z"/><path class="cls-1" d="M54.73,110.72a10.86,10.86,0,1,1,7.67-3.18A10.46,10.46,0,0,1,54.73,110.72Zm0-20.89a10.05,10.05,0,1,0,7.12,2.94A9.74,9.74,0,0,0,54.73,89.83Zm0,19.56a9.51,9.51,0,1,1,6.73-2.78A9.21,9.21,0,0,1,54.73,109.39Zm0-18.23a8.72,8.72,0,1,0,6.18,2.55A8.47,8.47,0,0,0,54.73,91.16Zm0,15.66a6.16,6.16,0,0,1-4.47-1.7,7.38,7.38,0,0,1-2-4.62l-.05-.43h1.57l.07.3c.61,2.7,2.23,4,4.93,4s4.33-1.31,4.94-4l.07-.3h1.58l0,.43a7.33,7.33,0,0,1-2.06,4.62A6.18,6.18,0,0,1,54.73,106.82Zm-5.69-6a6.36,6.36,0,0,0,1.77,3.71A5.39,5.39,0,0,0,54.73,106a5.45,5.45,0,0,0,3.94-1.48,6.36,6.36,0,0,0,1.77-3.71h-.08a5.32,5.32,0,0,1-5.63,4.32,5.3,5.3,0,0,1-5.62-4.32Zm9-2.25A2,2,0,0,1,56.61,98a2,2,0,0,1,0-2.9,2.07,2.07,0,0,1,2.9,0,2,2,0,0,1-1.45,3.49Zm0-3.3a1.22,1.22,0,0,0-.9.37,1.23,1.23,0,0,0,0,1.78,1.26,1.26,0,0,0,1.79,0,1.26,1.26,0,0,0,0-1.78A1.19,1.19,0,0,0,58.06,95.3Zm-6.65,3.3A2,2,0,0,1,50,95.11a2.07,2.07,0,0,1,2.9,0,2.05,2.05,0,0,1,0,2.9A2,2,0,0,1,51.41,98.6Zm0-3.3a1.26,1.26,0,0,0-.9,2.15,1.27,1.27,0,0,0,1.8,0,1.26,1.26,0,0,0-.9-2.15Z"/><path class="cls-1" d="M54.73,111a11.11,11.11,0,1,1,7.87-3.25A10.74,10.74,0,0,1,54.73,111Zm0-21.67a10.55,10.55,0,1,0,7.47,3.09A10.21,10.21,0,0,0,54.73,89.33Zm0,20.89a10.35,10.35,0,1,1,7.32-3A10,10,0,0,1,54.73,110.22Zm0-19.56a9.22,9.22,0,1,0,6.53,2.7A8.93,8.93,0,0,0,54.73,90.66Zm0,18.23a9,9,0,1,1,6.38-2.64A8.71,8.71,0,0,1,54.73,108.89Zm0-17.45a8.45,8.45,0,1,0,6,2.48A8.14,8.14,0,0,0,54.73,91.44Zm0,15.66a6.47,6.47,0,0,1-4.67-1.78,7.62,7.62,0,0,1-2.13-4.79l-.09-.75H50l.12.53c.59,2.59,2.07,3.79,4.66,3.79s4.07-1.2,4.66-3.79l.12-.53h2.13l-.09.75a7.63,7.63,0,0,1-2.14,4.8A6.51,6.51,0,0,1,54.73,107.1Zm-6.25-6.75v.12a7.11,7.11,0,0,0,2,4.45,6.45,6.45,0,0,0,8.55,0,7.06,7.06,0,0,0,2-4.45v-.12H60l0,.09c-.65,2.84-2.36,4.23-5.22,4.23s-4.56-1.39-5.21-4.23l0-.09Zm6.25,6a5.69,5.69,0,0,1-4.12-1.55,6.72,6.72,0,0,1-1.85-3.88l0-.32h.62l.05.21a5,5,0,0,0,5.35,4.1,5,5,0,0,0,5.35-4.1l.06-.21h.63l-.05.32a6.72,6.72,0,0,1-1.85,3.88A5.74,5.74,0,0,1,54.73,106.32Zm-3.63-1.87a5.73,5.73,0,0,0,7.29,0,6.18,6.18,0,0,1-3.66,1A6.27,6.27,0,0,1,51.1,104.45Zm7-5.56a2.28,2.28,0,0,1-1.65-.68,2.32,2.32,0,0,1,0-3.3,2.35,2.35,0,0,1,3.3,0,2.33,2.33,0,0,1-1.65,4Zm0-4.09a1.79,1.79,0,0,0-1.25.51,1.76,1.76,0,0,0,0,2.5,1.79,1.79,0,0,0,2.5,0,1.79,1.79,0,0,0,0-2.5A1.79,1.79,0,0,0,58.06,94.8Zm-6.65,4.09a2.33,2.33,0,0,1-1.65-4,2.34,2.34,0,0,1,1.65-.67h0a2.34,2.34,0,0,1,1.65.67,2.34,2.34,0,0,1-1.66,4Zm0-4.09a1.76,1.76,0,0,0-1.25.51,1.79,1.79,0,0,0,0,2.5,1.79,1.79,0,0,0,2.5,0,1.73,1.73,0,0,0,.52-1.25,1.71,1.71,0,0,0-.52-1.25,1.76,1.76,0,0,0-1.24-.51Zm6.65,3.31a1.55,1.55,0,0,1-1.1-.46,1.52,1.52,0,0,1,0-2.18,1.55,1.55,0,0,1,2.19,0,1.52,1.52,0,0,1,0,2.18A1.5,1.5,0,0,1,58.06,98.11Zm0-2.53a.93.93,0,0,0-.7.29,1,1,0,0,0,0,1.38,1,1,0,0,0,1.39,0,1,1,0,0,0-.69-1.67Zm-6.65,2.53a1.54,1.54,0,0,1-1.1-.46,1.55,1.55,0,0,1,0-2.18,1.56,1.56,0,0,1,2.2,0,1.52,1.52,0,0,1,0,2.18A1.55,1.55,0,0,1,51.41,98.11Zm0-2.53a1,1,0,0,0-.7,1.67,1,1,0,0,0,1.4,0,1,1,0,0,0,0-1.38A.91.91,0,0,0,51.41,95.58Z"/></svg>