<svg id="Layer_1" data-name="Layer 1" xmlns="http://www.w3.org/2000/svg" viewBox="0 0 200 200"><defs><style>.cls-1{fill:#e03c31;}</style></defs><path d="M50.28,148.63a10.8,10.8,0,0,1-7.77-3.06,11,11,0,0,1-3-9.23,16.17,16.17,0,0,1,4.75-9.6c5.69-5.69,14.15-6.5,18.82-1.8S67,138.1,61.33,143.79a15.93,15.93,0,0,1-11,4.84Zm4.94-23a12.37,12.37,0,0,0-8.43,3.78,12.59,12.59,0,0,0-3.71,7.43,7,7,0,0,0,8.14,8.13,12.59,12.59,0,0,0,7.42-3.71c4.23-4.25,4.94-10.34,1.78-13.6a7.1,7.1,0,0,0-5.07-2.1Z"/><path d="M93.54,156.28a10.78,10.78,0,0,1-7.75-3.07,11.11,11.11,0,0,1-3-9.25,17,17,0,0,1,14.37-14.37,11.07,11.07,0,0,1,9.25,3c4.7,4.7,3.89,13.13-1.8,18.82h0a16.22,16.22,0,0,1-9.57,4.8Zm5.12-23.06H97.59A12.61,12.61,0,0,0,90.17,137a12.37,12.37,0,0,0-3.73,7.42,7,7,0,0,0,8.14,8.14,12.33,12.33,0,0,0,7.42-3.74c4.23-4.23,4.94-10.31,1.8-13.58h0a7.16,7.16,0,0,0-5.14-2Z"/><path d="M107.37,144.75a1.86,1.86,0,0,1-1.86-1.86v-57L65.93,79v56.3a1.86,1.86,0,1,1-3.71,0V76.68a1.8,1.8,0,0,1,.65-1.41,1.88,1.88,0,0,1,1.53-.42l43.31,7.64h0a1.89,1.89,0,0,1,1.54,1.83v58.5a1.86,1.86,0,0,1-1.88,1.93Z"/><path d="M107.37,98.92H107L63.71,91.25a1.86,1.86,0,1,1,.67-3.66l43.31,7.64h0a1.89,1.89,0,0,1,1.2.76,1.91,1.91,0,0,1,.31,1.39,1.89,1.89,0,0,1-1.83,1.54Z"/><path d="M85.9,125.73a10.78,10.78,0,0,1-7.75-3.07,11.11,11.11,0,0,1-3-9.25,16.3,16.3,0,0,1,4.8-9.6c5.69-5.69,14.12-6.48,18.82-1.78s3.89,13.14-1.8,18.83h0a16.5,16.5,0,0,1-9.58,4.8ZM91,102.65h0a12.36,12.36,0,0,0-8.41,3.79,12.51,12.51,0,0,0-3.73,7.42A7,7,0,0,0,87,122a12.29,12.29,0,0,0,7.42-3.71C98.66,114,99.35,108,96.21,104.7h0A7.07,7.07,0,0,0,91,102.65Z"/><path d="M129.21,133.37a10.73,10.73,0,0,1-7.77-3.07,11.08,11.08,0,0,1-3-9.25,16.41,16.41,0,0,1,4.8-9.59c5.69-5.69,14.12-6.48,18.82-1.81s3.88,13.16-1.78,18.85h0a16.26,16.26,0,0,1-9.6,4.77,9.2,9.2,0,0,1-1.48.1Zm5.09-23.08h-1.06a13.23,13.23,0,0,0-11.11,11.08,7.08,7.08,0,0,0,8.24,8.22,12.57,12.57,0,0,0,7.42-3.71c4.26-4.26,5-10.34,1.81-13.58a7.06,7.06,0,0,0-5.3-2Z"/><path d="M99.7,114.2a1.87,1.87,0,0,1-1.86-1.85V95.82a1.86,1.86,0,0,1,3.71,0v16.65a1.88,1.88,0,0,1-1.85,1.73Z"/><path d="M143,121.82a1.86,1.86,0,0,1-1.86-1.83V63l-39.57-7V83a1.86,1.86,0,1,1-3.71,0V53.77a1.81,1.81,0,0,1,.66-1.42,1.87,1.87,0,0,1,1.51-.41l43.31,7.65h0a1.83,1.83,0,0,1,1.54,1.8v58.55a1.88,1.88,0,0,1-.55,1.34,1.83,1.83,0,0,1-1.33.54Z"/><path d="M143,76h-.32L99.4,68.32a1.86,1.86,0,0,1,.64-3.66l43.31,7.64h0a1.87,1.87,0,0,1,1.5,2.15A1.82,1.82,0,0,1,143,76Z"/><path class="cls-1" d="M75.36,69.43a1.83,1.83,0,0,1-1.31-.54l-13-13a11,11,0,0,1,14.3-16.72A11,11,0,0,1,89.63,55.9l-13,13a1.89,1.89,0,0,1-1.31.54ZM68.85,40.79a7.42,7.42,0,0,0-5.17,12.49L75.36,65,87,53.28A7.42,7.42,0,0,0,76.69,42.94a1.84,1.84,0,0,1-2.62,0,7.4,7.4,0,0,0-5.22-2.15Z"/><path class="cls-1" d="M156.84,161.55a1.9,1.9,0,0,1-1.31-.55l-8.76-8.75a8,8,0,0,1,10.07-12.37,8,8,0,0,1,10.06,12.44l-8.75,8.76h0a1.86,1.86,0,0,1-1.31.47Zm-4.38-19.32h0a4.31,4.31,0,0,0-3.09,1.26,4.32,4.32,0,0,0,0,6.16l7.42,7.42,7.42-7.42a4.3,4.3,0,0,0,0-6.14,4.36,4.36,0,0,0-6.13,0,1.82,1.82,0,0,1-1.31.56,1.79,1.79,0,0,1-1.31-.56,4.35,4.35,0,0,0-3-1.28Z"/><path class="cls-1" d="M121.19,169.41a1.85,1.85,0,0,1-1.31-.54l-6.65-6.66h0a6.55,6.55,0,0,1,8-10.29,6.55,6.55,0,0,1,7.89,10.29l-6.65,6.66h0a1.81,1.81,0,0,1-1.24.54Zm-3.31-14.67h0a2.85,2.85,0,0,0-2,4.95l5.34,5.34,5.42-5.44a2.84,2.84,0,0,0-4-4,1.84,1.84,0,0,1-2.62,0,2.84,2.84,0,0,0-2.08-.84Z"/></svg>