<svg id="Layer_1" data-name="Layer 1" xmlns="http://www.w3.org/2000/svg" viewBox="0 0 200 200"><defs><style>.cls-1{fill:#e03c31;}</style></defs><path d="M79.68,117.79c-17.93,0-25.56-25.42-26.31-42.58a2.51,2.51,0,0,1,2.4-2.63A2.54,2.54,0,0,1,58.39,75c.64,14.63,7,37.77,21.29,37.77h.14c14.53-.15,20.84-23.34,21.4-37.93a2.61,2.61,0,0,1,2.61-2.42A2.53,2.53,0,0,1,106.25,75c-.66,17.08-8.23,42.57-26.38,42.76Z"/><path d="M103.73,78.81h0c-6.93-.08-11.39-3.4-16.11-6.91-.77-.57-1.56-1.16-2.38-1.75-12.59-9-23.34,1.59-27.39,6.54a2.51,2.51,0,1,1-3.89-3.18C64.21,60.91,77,58.12,88.13,66.05l2.46,1.81c4.4,3.27,7.87,5.85,13.17,5.92a2.52,2.52,0,0,1,0,5Z"/><path d="M55.88,77.61a2.51,2.51,0,0,1-2.28-1.45C48.42,65,48.18,54.78,52.91,47.37S67.26,35.73,79.85,35.73a2.52,2.52,0,0,1,0,5C69,40.76,61,44.07,57.15,50.07s-3.42,14.43,1,24a2.51,2.51,0,0,1-2.28,3.57Z"/><path d="M103.73,77.45a2.53,2.53,0,0,1-2.28-3.58c4.4-9.49,4.76-18,1-23.82s-11.89-9.29-22.71-9.29a2.52,2.52,0,1,1,0-5c12.6,0,22.17,4.13,26.95,11.62S111.17,64.89,106,76a2.51,2.51,0,0,1-2.28,1.45Z"/><path d="M66.62,42.73a2.53,2.53,0,0,1-2.44-1.91,10.18,10.18,0,0,1-.33-2.57c0-6.58,7-11.73,15.91-11.73s15.91,5.15,15.91,11.73A9.08,9.08,0,0,1,95.45,40a2.52,2.52,0,0,1-4.93-1,5.43,5.43,0,0,0,.12-.77c0-3.63-5-6.7-10.88-6.7s-10.87,3.07-10.87,6.7a5.18,5.18,0,0,0,.18,1.35,2.52,2.52,0,0,1-1.84,3,2.49,2.49,0,0,1-.61.08Z"/><path d="M60.57,154.81a7.12,7.12,0,1,1,7.12-7.12A7.12,7.12,0,0,1,60.57,154.81Zm0-9.21a2.09,2.09,0,1,0,2.09,2.09A2.06,2.06,0,0,0,60.57,145.6Z"/><path d="M32,176a2.51,2.51,0,0,1-2.51-2.51c0-16.3,3.63-31.17,10-40.79,3.65-5.57,9.12-6.41,13.95-7.15l1.64-.27a2.52,2.52,0,1,1,.83,5l-1.71.27c-4.34.67-8.08,1.24-10.51,4.94-5.81,8.83-9.14,22.69-9.14,38A2.52,2.52,0,0,1,32,176Zm33-50.24a2.51,2.51,0,0,1-1.86-4.21c1.89-2.08,1.8-6.5,1.47-12.06a2.52,2.52,0,1,1,5-.29c.34,5.86.69,11.93-2.78,15.74a2.5,2.5,0,0,1-1.86.82Z"/><path d="M127.7,176H32a2.52,2.52,0,0,1,0-5H127.7a2.52,2.52,0,0,1,0,5Z"/><path d="M58.44,146.11a2.53,2.53,0,0,1-2.36-1.62c-3.7-9.77-4.09-17.12-1.19-22.46,2.19-4,6.18-6.7,11.88-7.94A2.52,2.52,0,1,1,67.84,119c-4.26.93-7.05,2.7-8.53,5.42-2.12,3.92-1.63,10.07,1.48,18.27A2.53,2.53,0,0,1,59.33,146a2.5,2.5,0,0,1-.89.16Z"/><path d="M107.83,164.19a2.62,2.62,0,0,1-.62-.07,2.52,2.52,0,0,1-1.83-3.05c1.62-6.45,2.51-11.33,2.61-11.87.78-4.42-1.65-9-5.32-9.91a5.71,5.71,0,0,0-4.47.86,8.23,8.23,0,0,0-3.42,5.5c-.31,1.71-1.08,6.43-1.77,12.15a2.52,2.52,0,1,1-5-.6c.71-5.84,1.49-10.69,1.81-12.43a13.3,13.3,0,0,1,5.61-8.83,10.72,10.72,0,0,1,8.45-1.53c6.26,1.62,10.31,8.65,9.07,15.68-.11.56-1,5.6-2.68,12.2a2.53,2.53,0,0,1-2.44,1.9Z"/><path d="M93.16,160.61a2.67,2.67,0,0,1-.56-.06L90,160a2.52,2.52,0,0,1,1.1-4.91l2.65.6a2.52,2.52,0,0,1-.55,5Z"/><path d="M107.83,164.19a2.14,2.14,0,0,1-.56-.06l-2.64-.59a2.52,2.52,0,0,1,1.1-4.91l2.65.59a2.52,2.52,0,0,1-.55,5Z"/><path d="M127.7,176a2.51,2.51,0,0,1-2.52-2.51c0-15-3.45-29.25-9.22-38-2.44-3.71-6.16-4.28-10.46-4.95l-1.67-.26a2.52,2.52,0,0,1,.83-5l1.61.26c4.79.74,10.23,1.58,13.89,7.16,6.39,9.7,10.05,24.57,10.05,40.79A2.51,2.51,0,0,1,127.7,176ZM94.6,125.72a2.5,2.5,0,0,1-1.86-.82c-3.47-3.81-3.11-10.15-2.78-15.74a2.55,2.55,0,0,1,2.66-2.37A2.51,2.51,0,0,1,95,109.45c-.32,5.56-.41,10,1.48,12.06a2.52,2.52,0,0,1-.16,3.56,2.55,2.55,0,0,1-1.7.65Z"/><path d="M103.31,139.45a2.76,2.76,0,0,1-.57-.06,2.51,2.51,0,0,1-1.89-3c1.27-5.45,1-9.65-.83-12.51-1.54-2.42-4.21-4-8.16-4.84a2.52,2.52,0,0,1,1-4.93c5.27,1.13,9.09,3.51,11.36,7.07,2.56,4,3.07,9.53,1.49,16.35a2.52,2.52,0,0,1-2.45,1.94Z"/><path d="M79.85,153.36A2.51,2.51,0,0,1,77.63,152L62.79,124.4A2.51,2.51,0,1,1,67.22,122l14.84,27.64a2.51,2.51,0,0,1-1,3.4,2.45,2.45,0,0,1-1.19.3Z"/><path d="M79.84,153.36a2.41,2.41,0,0,1-1.18-.3,2.5,2.5,0,0,1-1-3.4L92.39,122a2.51,2.51,0,1,1,4.43,2.37L82.06,152a2.5,2.5,0,0,1-2.22,1.33Z"/><path d="M79.85,176a2.51,2.51,0,0,1-2.52-2.51V150.84a2.52,2.52,0,0,1,5,0v22.61A2.51,2.51,0,0,1,79.85,176Z"/><path d="M46.15,176a2.51,2.51,0,0,1-2.51-2.51v-8.62a2.52,2.52,0,0,1,5,0v8.62A2.51,2.51,0,0,1,46.15,176Z"/><path d="M113.46,176a2.51,2.51,0,0,1-2.52-2.51v-8.62a2.52,2.52,0,0,1,5,0v8.62A2.51,2.51,0,0,1,113.46,176Z"/><path d="M176.41,159.41H135.8a2.52,2.52,0,0,1,0-5h38.09V48.1h-62a2.52,2.52,0,1,1,0-5H176.4a2.51,2.51,0,0,1,2.52,2.51V156.9a2.51,2.51,0,0,1-2.52,2.51Z"/><path d="M149.28,148.84H132.05a2.52,2.52,0,0,1,0-5h17.23a2.52,2.52,0,1,1,0,5Z"/><path d="M158.83,138.09h-31.9a2.52,2.52,0,0,1,0-5h31.9a2.52,2.52,0,1,1,0,5Z"/><path d="M158.83,127.43H119.34a2.52,2.52,0,0,1,0-5h39.49a2.52,2.52,0,1,1,0,5Z"/><path class="cls-1" d="M133.08,116.68a8.21,8.21,0,0,1-5.82-2.37,8.1,8.1,0,0,1-2.8.5,8.48,8.48,0,0,1-7.82-5.52,9,9,0,0,1-7.07-8.94c0-.13,0-.27,0-.41a9.42,9.42,0,0,1-2-5.82A9.74,9.74,0,0,1,110,87.83a9.46,9.46,0,0,1-.63-3.35,9.36,9.36,0,0,1,3-7,9.68,9.68,0,0,1-.23-2.08A9.1,9.1,0,0,1,117.45,67a8.83,8.83,0,0,1,8-8.36,8.44,8.44,0,0,1,7.67-5,8.85,8.85,0,0,1,8.57,9.08,2.52,2.52,0,1,1-5,0,3.83,3.83,0,0,0-3.54-4,3.58,3.58,0,0,0-3.42,3,2.53,2.53,0,0,1-3,2,3.29,3.29,0,0,0-.7,0,3.87,3.87,0,0,0-3.54,4.05,3.29,3.29,0,0,0,0,.7,2.5,2.5,0,0,1-2.19,3,3.87,3.87,0,0,0-3.13,4.07,4.86,4.86,0,0,0,.45,2,2.51,2.51,0,0,1-1.16,3.3,4.17,4.17,0,0,0-2.11,3.72,5.11,5.11,0,0,0,.83,2.61,2.53,2.53,0,0,1-.71,3.38,4.48,4.48,0,0,0-1.82,3.65,4.22,4.22,0,0,0,1.25,3.11,2.54,2.54,0,0,1,.75,2.35,4.13,4.13,0,0,0,0,.77,3.83,3.83,0,0,0,3.54,4.05h.43a2.51,2.51,0,0,1,2.48,2.1,3.69,3.69,0,0,0,3.4,3.27,3.25,3.25,0,0,0,2-.69,2.51,2.51,0,0,1,3.72.81,3.26,3.26,0,0,0,2.91,1.76,3.83,3.83,0,0,0,3.54-4.05,2.52,2.52,0,1,1,5,0,8.85,8.85,0,0,1-8.58,9.08Z"/><path class="cls-1" d="M139.13,110.12a2.51,2.51,0,0,1-2.51-2.52V62.73a2.52,2.52,0,1,1,5,0V107.6a2.51,2.51,0,0,1-2.52,2.51Z"/><path class="cls-1" d="M115.34,81A2.52,2.52,0,0,1,114,76.4a8.48,8.48,0,0,1,7.08-1,2.51,2.51,0,1,1-1.52,4.79,3.55,3.55,0,0,0-2.82.4,2.46,2.46,0,0,1-1.36.41Z"/><path class="cls-1" d="M118.57,109.43a2.51,2.51,0,0,1-.38-5,3.55,3.55,0,0,0,2.79-2.38,2.52,2.52,0,0,1,4.74,1.71A8.62,8.62,0,0,1,119,109.4a2.56,2.56,0,0,1-.39,0Z"/><path class="cls-1" d="M139.13,90.67A2.52,2.52,0,0,1,136.77,89a3.55,3.55,0,0,0-3.11-2.37,2.51,2.51,0,0,1-2.42-2.6,2.54,2.54,0,0,1,2.61-2.43,8.64,8.64,0,0,1,7.64,5.66A2.51,2.51,0,0,1,140,90.51a2.39,2.39,0,0,1-.87.16Z"/><path class="cls-1" d="M128.3,96.38a2.53,2.53,0,0,1-1-.19,13,13,0,0,1-7.5-8.14,2.52,2.52,0,1,1,4.8-1.51,8,8,0,0,0,4.62,5,2.51,2.51,0,0,1-1,4.84Z"/><path class="cls-1" d="M121.22,95.19A2.52,2.52,0,0,1,120,90.48a8.68,8.68,0,0,1,5.78-1,2.51,2.51,0,1,1-.88,4.95,3.63,3.63,0,0,0-2.41.39,2.44,2.44,0,0,1-1.24.34Z"/><path class="cls-1" d="M132.14,106.36a2.52,2.52,0,0,1-2.34-1.58,10.21,10.21,0,0,0-1-1.93,2.52,2.52,0,1,1,4.19-2.79,15.19,15.19,0,0,1,1.52,2.85,2.51,2.51,0,0,1-1.4,3.27A2.56,2.56,0,0,1,132.14,106.36Z"/><path class="cls-1" d="M131.2,66.61a2.51,2.51,0,0,1-2.2-1.3,3.34,3.34,0,0,0-2.31-1.65,2.51,2.51,0,1,1,1-4.93,8.36,8.36,0,0,1,5.72,4.14,2.52,2.52,0,0,1-1,3.42,2.47,2.47,0,0,1-1.22.32Z"/><path class="cls-1" d="M132,77.79a2.58,2.58,0,0,1-1-.21,12.68,12.68,0,0,1-5.85-5.21,2.52,2.52,0,1,1,4.33-2.56A7.69,7.69,0,0,0,133,73a2.52,2.52,0,0,1-1,4.83Z"/><path class="cls-1" d="M128.47,79h-.21a2.52,2.52,0,0,1-2.3-2.72,11.82,11.82,0,0,1,1-3.82,2.52,2.52,0,0,1,4.59,2.09,6.43,6.43,0,0,0-.55,2.15A2.52,2.52,0,0,1,128.47,79Z"/><path class="cls-1" d="M145.19,116.68a8.84,8.84,0,0,1-8.57-9.08,2.52,2.52,0,1,1,5,0,3.83,3.83,0,0,0,3.54,4.05,3.45,3.45,0,0,0,2.95-1.83,2.51,2.51,0,0,1,3.76-.67,2.83,2.83,0,0,0,1.82.62,3.7,3.7,0,0,0,3.49-3.27,2.51,2.51,0,0,1,2.48-2.1h.43a3.83,3.83,0,0,0,3.54-4.05,4.2,4.2,0,0,0-.13-.79,2.56,2.56,0,0,1,.81-2.39,4,4,0,0,0,1.28-3,4.37,4.37,0,0,0-1.87-3.62,2.53,2.53,0,0,1-.67-3.53,4.35,4.35,0,0,0,.75-2.49,4,4,0,0,0-2.07-3.7,2.49,2.49,0,0,1-1.31-1.5,2.53,2.53,0,0,1,.19-2,3.75,3.75,0,0,0,.46-1.86A3.93,3.93,0,0,0,158,71.37a2.51,2.51,0,0,1-2.24-2.5,7.93,7.93,0,0,1,.06-.87c0-.11,0-.21,0-.32a3.87,3.87,0,0,0-3.54-4.05,4,4,0,0,0-.61,0,2.67,2.67,0,0,1-3-1.87,3.73,3.73,0,0,0-3.44-3.09,3.83,3.83,0,0,0-3.54,4,2.52,2.52,0,1,1-5,0,8.85,8.85,0,0,1,8.57-9.09,8.56,8.56,0,0,1,7.63,5,8.86,8.86,0,0,1,8,8.37,9.13,9.13,0,0,1,5.31,8.46,9.22,9.22,0,0,1-.24,2.11,9.2,9.2,0,0,1,3,6.93,9.53,9.53,0,0,1-.59,3.33,9.41,9.41,0,0,1,2.38,6.31,9.22,9.22,0,0,1-2,5.79c0,.14,0,.29,0,.44a9,9,0,0,1-7.07,8.94,8.56,8.56,0,0,1-7.9,5.52,7.9,7.9,0,0,1-2.77-.5,8.26,8.26,0,0,1-5.76,2.37Z"/><path class="cls-1" d="M162.84,81a2.45,2.45,0,0,1-1.39-.43,3.24,3.24,0,0,0-3.38-.09,2.52,2.52,0,0,1-2.56-4.34,8.26,8.26,0,0,1,8.73.25,2.52,2.52,0,0,1-1.4,4.61Z"/><path class="cls-1" d="M159.69,109.43l-.33,0a8.42,8.42,0,0,1-7.2-9.48,2.52,2.52,0,0,1,5,.66,3.39,3.39,0,0,0,2.87,3.83,2.52,2.52,0,0,1-.33,5Z"/><path class="cls-1" d="M139.13,98.68a2.42,2.42,0,0,1-.79-.13,2.52,2.52,0,0,1-1.6-3.18,8.43,8.43,0,0,1,7.68-5.73,2.52,2.52,0,0,1,.17,5A3.38,3.38,0,0,0,141.52,97a2.51,2.51,0,0,1-2.39,1.72Z"/><path class="cls-1" d="M152.61,96.38a2.51,2.51,0,0,1-1-4.82,7.76,7.76,0,0,0,4.56-6.29,2.52,2.52,0,0,1,5,.47,12.84,12.84,0,0,1-7.56,10.43,2.49,2.49,0,0,1-1,.21Z"/><path class="cls-1" d="M159.17,95.19a2.5,2.5,0,0,1-1.12-.27,3.61,3.61,0,0,0-2.33-.29,2.52,2.52,0,1,1-.93-4.95,8.65,8.65,0,0,1,5.51.74,2.52,2.52,0,0,1-1.13,4.77Z"/><path class="cls-1" d="M147.06,66.61a2.45,2.45,0,0,1-1.22-.32,2.51,2.51,0,0,1-1-3.42,8.38,8.38,0,0,1,5.72-4.14,2.51,2.51,0,0,1,1,4.93,3.34,3.34,0,0,0-2.31,1.66,2.53,2.53,0,0,1-2.2,1.29Z"/><path class="cls-1" d="M146.38,80.6a2.43,2.43,0,0,1-1.16-.29,2.51,2.51,0,0,1-1.07-3.39,7.26,7.26,0,0,0,.7-4.74,2.52,2.52,0,0,1,4.94-1,12.29,12.29,0,0,1-1.18,8.06,2.51,2.51,0,0,1-2.23,1.35Z"/><path class="cls-1" d="M147.4,77.45a2.52,2.52,0,0,1-.49-5,8.72,8.72,0,0,0,2.85-1.13,2.52,2.52,0,1,1,2.63,4.29,14,14,0,0,1-4.49,1.78,2.73,2.73,0,0,1-.5,0Z"/><path class="cls-1" d="M146.21,106.36a2.55,2.55,0,0,1-.72-.1,2.53,2.53,0,0,1-1.69-3.14,9.64,9.64,0,0,1,1.71-3.21,2.52,2.52,0,1,1,4,3.09,4.82,4.82,0,0,0-.86,1.57,2.53,2.53,0,0,1-2.41,1.79Z"/></svg>