<svg id="Layer_1" data-name="Layer 1" xmlns="http://www.w3.org/2000/svg" viewBox="0 0 200 200"><defs><style>.cls-1{fill:#e03c31;}</style></defs><path d="M170.18,105.24a2.22,2.22,0,0,0-2.22,2.22v33.29h-4.44V94.15a11.08,11.08,0,0,0-8.88-10.87V76.39a2.29,2.29,0,0,0-.15-.77,17.63,17.63,0,0,0,6.33-22,11.06,11.06,0,1,0-18-11.05,2,2,0,0,0,0,.74,17.64,17.64,0,0,0-5.89,33.45v7.68a10.82,10.82,0,0,0-1.6,1.06L121.68,96.37h-7a8.82,8.82,0,0,0-8.75,7.33,8.87,8.87,0,0,0,1.11,6H95.7a8.83,8.83,0,0,0-7.64-13.31h-7L67.46,85.48a11.27,11.27,0,0,0-1.59-1.06v-8a1.74,1.74,0,0,0-.05-.22A17.49,17.49,0,0,0,73,53.37s0-.1-.07-.14h0A17.7,17.7,0,1,0,41,68.36l0,0a17.79,17.79,0,0,0,7.15,7.77,1.74,1.74,0,0,0,0,.22v6.89a11.11,11.11,0,0,0-8.88,10.87v46.6H34.79V107.46a2.22,2.22,0,1,0-4.43,0v66.59a2.22,2.22,0,0,0,4.43,0V145.19H61.43v28.86a2.22,2.22,0,0,0,4.44,0V145.19H70.3v22.2a8.88,8.88,0,0,0,17.76,0V133.3a6.67,6.67,0,0,0-5.35-6.53l-8-1.61a1.59,1.59,0,0,0,.08-.39V113l.89.67a2.21,2.21,0,0,0,1.33.44h22.2v57.71H94.72a2.22,2.22,0,1,0,0,4.43H108a2.22,2.22,0,1,0,0-4.43H103.6V114.12h22.19a2.19,2.19,0,0,0,1.33-.44L128,113v11.76a1.59,1.59,0,0,0,.08.39l-8,1.61h0a6.64,6.64,0,0,0-5.36,6.53v34.09a8.88,8.88,0,0,0,17.76,0v-22.2h4.44v28.86a2.22,2.22,0,0,0,4.44,0V145.19H168v28.86a2.22,2.22,0,0,0,4.44,0V107.46a2.22,2.22,0,0,0-2.22-2.22ZM43.67,60.86a13.28,13.28,0,0,1,24-7.92L49.89,56.46a2.22,2.22,0,0,0-1.78,2.18V65.3H44.49a13.26,13.26,0,0,1-.82-4.44Zm3.46,8.87h3.2a2.22,2.22,0,0,0,2.22-2.22V60.46l17.14-3.4h0a12.91,12.91,0,0,1,.61,3.8,13.27,13.27,0,0,1-23.17,8.87ZM61.43,78v5.15c-.3,0-.6-.08-.89-.08h-8V78a16,16,0,0,0,8.88,0Zm20.42,53.14a2.22,2.22,0,0,1,1.77,2.18v34.09a4.44,4.44,0,0,1-8.88,0V143a2.22,2.22,0,0,0-2.22-2.22H43.67V123.49Zm1.77-21.44H77.7L60.54,96.81a2.22,2.22,0,1,0-2.66,3.55l12.42,9.32v14.61L43.67,119V94.15a6.66,6.66,0,0,1,6.66-6.66H60.54A6.69,6.69,0,0,1,64.7,89l14.2,11.38a2.27,2.27,0,0,0,1.39.48h3.33Zm4.44,0v-8.87a4.44,4.44,0,0,1,0,8.87Zm26.63,0a4.44,4.44,0,0,1,0-8.87Zm38.84-71a6.61,6.61,0,0,1,4.88,11.12,17.67,17.67,0,0,0-11.17-6.42,6.62,6.62,0,0,1,6.29-4.7Zm-8.88,8.88A13.32,13.32,0,0,1,158,60.86a13.16,13.16,0,0,1-3.24,8.6,35.23,35.23,0,0,1-6.68-12.93,2.21,2.21,0,0,0-1.49-1.77,27.39,27.39,0,0,1-8.23-5.55,13.12,13.12,0,0,1,6.32-1.67ZM131.34,60.86A13.2,13.2,0,0,1,134.79,52a36.23,36.23,0,0,0,9.13,6.5,43.43,43.43,0,0,0,7.4,13.82,13.06,13.06,0,0,1-6.67,1.87,13.32,13.32,0,0,1-13.31-13.31ZM150.2,77.64v5.41h-8a8.91,8.91,0,0,0-.89.08V78.28a17.82,17.82,0,0,0,3.33.33,17.46,17.46,0,0,0,5.55-1Zm8.88,63.11H130.23A2.22,2.22,0,0,0,128,143v24.42a4.44,4.44,0,0,1-8.88,0V133.3a2.22,2.22,0,0,1,1.78-2.18l38.17-7.63Zm0-21.79-26.63,5.33V109.68l12.43-9.32a2.22,2.22,0,1,0-2.67-3.55l-17.16,12.87h-5.92v-8.87h3.33a2.18,2.18,0,0,0,1.38-.49L138.05,89a6.63,6.63,0,0,1,4.16-1.46h10.21a6.66,6.66,0,0,1,6.66,6.66Z"/><path class="cls-1" d="M96.94,47.54h8.88a2.22,2.22,0,0,0,0-4.44H96.94a2.22,2.22,0,0,0,0,4.44Z"/><path class="cls-1" d="M115,36.17a6.69,6.69,0,0,0-4.71-2H92.5a6.66,6.66,0,0,0-6.66,6.66v8.88a6.66,6.66,0,0,0,6.66,6.66h2.37l2.22,5.77a2.22,2.22,0,0,0,3.64.77l6.54-6.54h3a6.66,6.66,0,0,0,6.66-6.66V40.88A6.67,6.67,0,0,0,115,36.17Zm-2.49,13.59a2.21,2.21,0,0,1-.65,1.57,2.23,2.23,0,0,1-1.57.65h-3.9a2.21,2.21,0,0,0-1.57.65L100,57.41l-1.54-4A2.22,2.22,0,0,0,96.4,52H92.5a2.21,2.21,0,0,1-2.22-2.22V40.88a2.22,2.22,0,0,1,2.22-2.22h17.75a2.23,2.23,0,0,1,1.57.65,2.21,2.21,0,0,1,.65,1.57Z"/></svg>