<svg id="Layer_1" data-name="Layer 1" xmlns="http://www.w3.org/2000/svg" viewBox="0 0 200 200"><defs><style>.cls-1{fill:#e03c31;}</style></defs><path class="cls-1" d="M154.54,128.09a22.23,22.23,0,0,0-.58-4.44,18.86,18.86,0,0,0,5.86,1.08,9.72,9.72,0,0,0,4.64-1.08,14.85,14.85,0,0,0,6.56-9,2.61,2.61,0,0,0-1.39-2.94c-.79-.39-7.87-3.73-12.84-1h0a13.76,13.76,0,0,0-5.88,6.72,13.42,13.42,0,0,0-2.63-2.36,2.63,2.63,0,1,0-2.78,4.36,10.52,10.52,0,0,1,3.78,8.53,23.21,23.21,0,0,0-8.19,2.63,9.79,9.79,0,0,0-11-11.29,5.26,5.26,0,0,1,2.13-1.92,10,10,0,0,1,7.87.53,2.63,2.63,0,0,0,3.52-1.11,2.61,2.61,0,0,0-1.23-3.51,15.2,15.2,0,0,0-12.42-.53,11.81,11.81,0,0,0-5.8,6.49,9.6,9.6,0,0,0-7.35-3.5,9.43,9.43,0,0,0-4.57,17.72A9.18,9.18,0,0,0,109.6,140v.15a9.6,9.6,0,0,0-3.1-.52,9.47,9.47,0,0,0-9.5,9.45,9.23,9.23,0,0,0,2,5.77,9.45,9.45,0,1,0,12.52,9,9.15,9.15,0,0,0-2-5.75,9.29,9.29,0,0,0,2.62-1.39,9.53,9.53,0,0,0,18.38,1.18,22.68,22.68,0,1,0,24.15-29.79Zm4.72-12.71h0a8.53,8.53,0,0,1,5.83.21A8,8,0,0,1,162,119a8.22,8.22,0,0,1-5.8-.21,8.22,8.22,0,0,1,3.09-3.44Zm-29.34,28a4.09,4.09,0,0,1,2.1-3.6,22.61,22.61,0,0,0-2.1,4.75,3.18,3.18,0,0,1,0-1.15ZM123.51,140a4.2,4.2,0,1,0-.1,0Zm12.63-11.37h0a4.34,4.34,0,1,0-.11,0Zm-19.35-7.59a4.2,4.2,0,1,1-4.25,4.2,4.22,4.22,0,0,1,4.25-4.2Zm-14.86,47a4.2,4.2,0,1,1,4.36-4.2,4.25,4.25,0,0,1-4.36,4.2Zm4.6-14.75a4.23,4.23,0,1,1,3-1.22,4.21,4.21,0,0,1-3,1.22Zm14.91,5.56a4.2,4.2,0,1,1,4.25-4.2,4.21,4.21,0,0,1-4.25,4.2ZM151.86,168a18,18,0,0,1-17.43-17.43,17.76,17.76,0,0,1,17.43-17.43,17.43,17.43,0,0,1,0,34.86Z"/><path d="M63.24,117.64l15-11.28h.53l12.34,14.8a2.62,2.62,0,0,0,4,0l12.34-14.8h.52l7.17,5.25a2.63,2.63,0,0,0,3.15-4.2l-1.58-1A65.08,65.08,0,0,0,129.92,67c0-25.86-15.46-44.62-36.75-44.62S56.42,41.12,56.42,67a65.13,65.13,0,0,0,13.12,39.38l-9.45,7.08a15.79,15.79,0,0,0-6.3,12.6V172a2.65,2.65,0,0,0,.77,1.86,2.62,2.62,0,0,0,1.86.76H82.67a2.63,2.63,0,0,0,0-5.25H74.79v-31.5a2.63,2.63,0,0,0-5.25,0v31.5H59V126a10.51,10.51,0,0,1,4.2-8.4Zm29.93-2.25-7.54-9H100.7ZM61.67,67c0-22.81,13.25-39.37,31.5-39.37s31.5,16.56,31.5,39.37a59.53,59.53,0,0,1-12,36.25l-2.15-1.6a2.6,2.6,0,0,0-1.57-.52H77.42a2.65,2.65,0,0,0-1.58.52l-2.15,1.6A59.46,59.46,0,0,1,61.67,67Z"/><path d="M119.42,69.16V60.42a2.65,2.65,0,0,0-.87-2,2.75,2.75,0,0,0-2-.68A30,30,0,0,1,91.64,49a2.59,2.59,0,0,0-4.48,1.31,22.54,22.54,0,0,0,.15,8.27A31.23,31.23,0,0,1,74,47.68a2.62,2.62,0,0,0-4.59.53A36.34,36.34,0,0,0,67,64v5.12c-.08,14.75,19.74,26.77,26.17,26.77s26.25-12,26.25-26.69Zm-47.25,0V63.91a38.32,38.32,0,0,1,.6-9.32,36.12,36.12,0,0,0,18,10.5,2.62,2.62,0,0,0,3-3.65,18.68,18.68,0,0,1-1.54-5,35.82,35.82,0,0,0,22,6.72v6c0,11.76-17.85,21.44-21,21.44s-21-9.68-21-21.36Z"/></svg>