<svg id="Layer_1" data-name="Layer 1" xmlns="http://www.w3.org/2000/svg" viewBox="0 0 200 200"><defs><style>.cls-1{fill:#e03c31;}.cls-2{fill:#fff;}</style></defs><path d="M88.75,119.08C70,119.08,63.83,92,63.21,77.62a2.43,2.43,0,1,1,4.86-.21c.63,14.25,6.79,36.8,20.69,36.8h.13c14.19-.15,20.33-22.7,20.88-36.87A2.49,2.49,0,0,1,112.29,75a2.43,2.43,0,0,1,2.34,2.52c-.63,16.61-8,41.37-25.68,41.56Z"/><path d="M42.28,175a2.43,2.43,0,0,1-2.44-2.43c0-15.71,3.55-30,9.74-39.33,3.55-5.32,8.82-6.14,13.48-6.85,3.85-.6,7.17-1.11,9.6-3.82,1.94-2.07,1.76-6.4,1.54-11.42l2.42-.33,2.43-.1c.28,6.34.51,11.62-2.8,15.14-3.55,4-8.28,4.7-12.45,5.34s-7.81,1.2-10.17,4.74c-5.66,8.51-8.91,21.85-8.91,36.63A2.43,2.43,0,0,1,42.28,175Z"/><path d="M135.64,175a2.43,2.43,0,0,1-2.43-2.43c0-14.7-3.29-28-9-36.63-2.36-3.54-6-4.1-10.14-4.74s-8.87-1.37-12.5-5.37c-3.36-3.57-3-9.28-2.69-15.31a2.43,2.43,0,1,1,4.86.27c-.28,5-.55,9.65,1.41,11.73,2.5,2.76,5.82,3.27,9.66,3.87,4.65.71,9.9,1.53,13.45,6.85,6.25,9.36,9.82,23.7,9.82,39.33a2.43,2.43,0,0,1-2.43,2.43Z"/><path d="M135.64,175H42.28a2.44,2.44,0,1,1,0-4.87h93.36a2.44,2.44,0,0,1,0,4.87Z"/><path d="M112.12,81.1c-6.69,0-11-3.2-15.52-6.6-.78-.58-1.58-1.18-2.41-1.78C82,64.12,71.48,74.3,67.51,79.07A2.43,2.43,0,0,1,63.77,76c10-12.11,22.48-14.8,33.24-7.21.88.63,1.7,1.25,2.51,1.85,4.21,3.15,7.53,5.63,12.59,5.63a2.44,2.44,0,1,1,0,4.87Z"/><path d="M65.64,80a2.43,2.43,0,0,1-2.21-1.41c-5-10.8-5.24-20.71-.65-27.91S76.71,39.34,88.92,39.34a2.44,2.44,0,0,1,0,4.87c-10.49,0-18.31,3.21-22,9s-3.32,14,1,23.24a2.42,2.42,0,0,1-1.18,3.23,2.37,2.37,0,0,1-1,.23Z"/><path d="M112.2,79.87a2.53,2.53,0,0,1-1-.23A2.42,2.42,0,0,1,110,76.41c4.27-9.23,4.61-17.46,1-23.17s-11.58-9-22.11-9a2.44,2.44,0,1,1,0-4.87c12.25,0,21.56,4,26.21,11.28s4.35,17-.64,27.84a2.44,2.44,0,0,1-2.21,1.41Z"/><path d="M76.12,46a2.44,2.44,0,0,1-2.34-1.77,9.28,9.28,0,0,1-.34-2.48c0-6.41,6.76-11.43,15.39-11.43s15.48,5,15.48,11.43a8.22,8.22,0,0,1-.13,1.71,2.43,2.43,0,0,1-4.77-.95,3.87,3.87,0,0,0,0-.76c0-3.56-4.85-6.56-10.61-6.56s-10.52,3-10.52,6.56a4.76,4.76,0,0,0,.15,1.15,2.44,2.44,0,0,1-1.67,3,2.57,2.57,0,0,1-.67.09Z"/><path d="M88.92,155.89a2.34,2.34,0,0,1-1-.23l-15.19-7.1a2.42,2.42,0,0,1-1.25-3.05l.86-2.33-2.26-.36a2.42,2.42,0,0,1-1.65-1.06,2.44,2.44,0,0,1-.34-1.93l4-16.27a2.44,2.44,0,0,1,2.1-1.83,2.42,2.42,0,0,1,2.45,1.35l14.44,29.3a2.43,2.43,0,0,1-2.18,3.51ZM76.79,145.1l6.88,3.21L75.23,131.2l-1.8,7.23,2.58.41a2.43,2.43,0,0,1,1.9,3.25Z"/><path d="M88.92,155.89a2.44,2.44,0,0,1-2.19-3.51l14.45-29.3a2.42,2.42,0,0,1,2.45-1.35,2.45,2.45,0,0,1,2.1,1.84l4,16.26a2.43,2.43,0,0,1-2,3l-2.23.36.84,2.36a2.44,2.44,0,0,1-1.27,3L90,155.66a2.34,2.34,0,0,1-1,.23Zm13.69-24.69-8.44,17.11,6.9-3.22-1.07-3a2.43,2.43,0,0,1,1.9-3.21l2.51-.41Z"/><path d="M88.92,131.58a25.33,25.33,0,0,1-16-5.54A2.43,2.43,0,1,1,76,122.26a20.89,20.89,0,0,0,25.83,0A2.43,2.43,0,1,1,104.9,126a25.41,25.41,0,0,1-16,5.54Z"/><path d="M88.92,175a2.43,2.43,0,0,1-2.44-2.43V153.46a2.44,2.44,0,1,1,4.87,0v19.07A2.43,2.43,0,0,1,88.92,175Z"/><path d="M53.75,175a2.43,2.43,0,0,1-2.43-2.43V162.7a2.44,2.44,0,0,1,4.87,0v9.83A2.43,2.43,0,0,1,53.75,175Z"/><path d="M122.27,175a2.43,2.43,0,0,1-2.44-2.43V162.7a2.44,2.44,0,0,1,4.87,0v9.83A2.43,2.43,0,0,1,122.27,175Z"/><path d="M139.36,107.6a9.08,9.08,0,0,1-6.71-3,9.09,9.09,0,0,1-3.45.66,9.65,9.65,0,0,1-8.88-6.38,9.55,9.55,0,0,1-6-3.53,2.44,2.44,0,1,1,3.81-3,4.64,4.64,0,0,0,3.54,1.81h.5a2.42,2.42,0,0,1,2.39,2,5,5,0,0,0,4.62,4.28,4.19,4.19,0,0,0,2.63-.88,2.41,2.41,0,0,1,2-.48,2.47,2.47,0,0,1,1.64,1.21,4.51,4.51,0,0,0,3.9,2.46c2.61,0,4.75-2.42,4.75-5.41a2.43,2.43,0,0,1,4.86,0c0,5.67-4.31,10.28-9.61,10.28Zm-17.5-53.16a2.43,2.43,0,0,1-1.09-4.61c.21-.11.43-.2.64-.29.23-5.33,4.29-9.62,9.3-9.79a9.49,9.49,0,0,1,8.65-5.86c5.3,0,9.61,4.61,9.61,10.27a2.43,2.43,0,1,1-4.86,0c0-3-2.13-5.4-4.75-5.4a4.85,4.85,0,0,0-4.56,4.1A2.42,2.42,0,0,1,132,44.75a5.93,5.93,0,0,0-1-.13c-2.62,0-4.75,2.42-4.75,5.4a5.59,5.59,0,0,0,0,1,2.4,2.4,0,0,1-.45,1.87,2.46,2.46,0,0,1-1.68,1,3.5,3.5,0,0,0-1.24.33,2.39,2.39,0,0,1-1.09.26Z"/><path d="M146.54,99.76a2.43,2.43,0,0,1-2.44-2.43V44.16a2.44,2.44,0,0,1,4.87,0V97.33A2.43,2.43,0,0,1,146.54,99.76Z"/><path d="M124.25,64.51a2.28,2.28,0,0,1-1-.2,2.6,2.6,0,0,0-1-.13,2.44,2.44,0,0,1,0-4.87,7.09,7.09,0,0,1,2.86.53,2.43,2.43,0,0,1-1,4.67Z"/><path d="M122.18,99a2.43,2.43,0,0,1-.37-4.84,4.65,4.65,0,0,0,3.76-3.13,2.43,2.43,0,1,1,4.63,1.49A9.5,9.5,0,0,1,122.56,99a2.43,2.43,0,0,1-.38,0Z"/><path d="M146.54,76.73a2.44,2.44,0,0,1-2.31-1.67A4.69,4.69,0,0,0,140,71.94a2.44,2.44,0,0,1-2.29-2.57,2.47,2.47,0,0,1,2.57-2.3,9.62,9.62,0,0,1,8.53,6.45,2.44,2.44,0,0,1-1.54,3.08,2.35,2.35,0,0,1-.77.13Z"/><path d="M138.28,95.39a2.45,2.45,0,0,1-2.25-1.5,16,16,0,0,0-1.29-2.52,2.44,2.44,0,0,1,4.11-2.62A21.63,21.63,0,0,1,140.53,92a2.44,2.44,0,0,1-2.25,3.38Z"/><path d="M137.13,48.17A2.44,2.44,0,0,1,135,46.94a4.6,4.6,0,0,0-3.08-2.21,2.44,2.44,0,0,1,1-4.77,9.51,9.51,0,0,1,6.32,4.56,2.44,2.44,0,0,1-2.11,3.65Z"/><path d="M153.72,107.6c-5.3,0-9.61-4.61-9.61-10.27a2.43,2.43,0,1,1,4.86,0c0,3,2.13,5.4,4.75,5.4a4.61,4.61,0,0,0,4-2.46,2.45,2.45,0,0,1,1.65-1.2,2.41,2.41,0,0,1,2,.47,4.19,4.19,0,0,0,2.63.88,5,5,0,0,0,4.62-4.28,2.43,2.43,0,0,1,2.39-2h.5c2.62,0,4.75-2.43,4.75-5.41a5.71,5.71,0,0,0-.14-1.08,2.49,2.49,0,0,1,.73-2.18,5.77,5.77,0,0,0,1.72-4.17,5.44,5.44,0,0,0-2.39-4.61A2.45,2.45,0,0,1,175,75.13a2.42,2.42,0,0,1,.38-1.88,6,6,0,0,0,1.05-3.33A5.61,5.61,0,0,0,173.65,65a2.44,2.44,0,0,1-1.09-3.18,6.17,6.17,0,0,0,.6-2.61,5.15,5.15,0,0,0-4.28-5.34A2.45,2.45,0,0,1,166.75,51a6.3,6.3,0,0,0,.14-1c0-3-2.13-5.41-4.75-5.41a4.45,4.45,0,0,0-.93.12,2.43,2.43,0,0,1-2.85-1.88,5,5,0,0,0-4.64-4.1c-2.62,0-4.75,2.42-4.75,5.41a2.43,2.43,0,0,1-4.86,0c0-5.67,4.31-10.28,9.61-10.28a9.72,9.72,0,0,1,8.72,5.86c5,.17,9.09,4.48,9.31,9.83A10.23,10.23,0,0,1,178,59.19a10.59,10.59,0,0,1-.34,2.68A10.65,10.65,0,0,1,180.5,74a10.52,10.52,0,0,1,2.9,7.3,10.75,10.75,0,0,1-2.35,6.75c0,.23,0,.45,0,.68a10.11,10.11,0,0,1-8.24,10.18,9.66,9.66,0,0,1-8.89,6.37,9.09,9.09,0,0,1-3.45-.66,9.36,9.36,0,0,1-6.78,3Z"/><path d="M174.77,65.26a2.48,2.48,0,0,1-1.3-.38,4.56,4.56,0,0,0-4.76-.11,2.43,2.43,0,0,1-2.41-4.23,9.32,9.32,0,0,1,9.76.22,2.44,2.44,0,0,1-1.29,4.5Z"/><path d="M171,99l-.36,0a9.44,9.44,0,0,1-8-10.77,2.44,2.44,0,1,1,4.82.71,4.57,4.57,0,0,0,3.89,5.24A2.44,2.44,0,0,1,171,99Z"/><path d="M146.54,86.22a2.39,2.39,0,0,1-.83-.15A2.42,2.42,0,0,1,144.25,83a9.48,9.48,0,0,1,8.66-6.31,2.44,2.44,0,0,1,.14,4.87,4.63,4.63,0,0,0-4.22,3.11,2.44,2.44,0,0,1-2.29,1.6Z"/><path d="M156,48.17a2.4,2.4,0,0,1-1.28-.37,2.43,2.43,0,0,1-.79-3.35A9.88,9.88,0,0,1,160.24,40a2.44,2.44,0,1,1,1,4.77A5.07,5.07,0,0,0,158,47,2.43,2.43,0,0,1,156,48.17Z"/><path class="cls-1" d="M133.74,83.5a2.46,2.46,0,0,1-.91-.18,14.7,14.7,0,0,1-8.6-9.39,2.43,2.43,0,1,1,4.66-1.41,9.88,9.88,0,0,0,5.77,6.29,2.43,2.43,0,0,1-.92,4.69Z"/><path class="cls-1" d="M125.33,82a2.43,2.43,0,0,1-1.19-4.56,9.55,9.55,0,0,1,6.53-1,2.43,2.43,0,0,1-.95,4.77,4.76,4.76,0,0,0-3.22.48,2.39,2.39,0,0,1-1.18.31Z"/><path class="cls-1" d="M138.12,61.46a2.33,2.33,0,0,1-1-.2,15,15,0,0,1-6.73-5.91,2.44,2.44,0,0,1,4.15-2.56,10.14,10.14,0,0,0,4.5,4,2.44,2.44,0,0,1-1,4.68Z"/><path class="cls-1" d="M133.91,62.86l-.32,0a2.43,2.43,0,0,1-2.09-2.74,14.15,14.15,0,0,1,1.19-4.16,2.43,2.43,0,0,1,4.42,2,9.46,9.46,0,0,0-.79,2.77,2.43,2.43,0,0,1-2.41,2.11Z"/><path class="cls-1" d="M162.55,83.5a2.44,2.44,0,0,1-1-4.67,9.64,9.64,0,0,0,5.73-7.9,2.44,2.44,0,1,1,4.85.46,14.52,14.52,0,0,1-8.63,11.9,2.43,2.43,0,0,1-1,.21Z"/><path class="cls-1" d="M170.31,82.09a2.42,2.42,0,0,1-1.13-.28,5.12,5.12,0,0,0-3.11-.41,2.43,2.43,0,1,1-.76-4.81,9.77,9.77,0,0,1,6.14.92,2.43,2.43,0,0,1-1.14,4.58Z"/><path class="cls-1" d="M155.2,64.84a2.49,2.49,0,0,1-1.11-.27A2.43,2.43,0,0,1,153,61.29a9.47,9.47,0,0,0,.85-6.1,2.43,2.43,0,1,1,4.78-.92,14.31,14.31,0,0,1-1.3,9.25,2.44,2.44,0,0,1-2.17,1.32Z"/><path class="cls-1" d="M156.36,61.05a2.44,2.44,0,0,1-.5-4.82,11,11,0,0,0,3.58-1.42A2.43,2.43,0,1,1,162,58.94,15.5,15.5,0,0,1,156.86,61a2.2,2.2,0,0,1-.5.06Z"/><path d="M155,95.39a2.31,2.31,0,0,1-.77-.13,2.43,2.43,0,0,1-1.54-3.08,13.11,13.11,0,0,1,1.82-3.55,2.44,2.44,0,0,1,3.95,2.86,8.14,8.14,0,0,0-1.15,2.23A2.44,2.44,0,0,1,155,95.39Z"/><path class="cls-2" d="M149.78,177.21A28.08,28.08,0,1,1,169.6,169a28,28,0,0,1-19.82,8.23Z"/><path class="cls-1" d="M149.78,165.76a2.25,2.25,0,0,1-2.25-2.25V139.25a2.25,2.25,0,0,1,4.5,0v24.26a2.25,2.25,0,0,1-2.25,2.25Z"/><path d="M149.78,177.21A28.08,28.08,0,1,1,169.6,169a28,28,0,0,1-19.82,8.23Zm0-51.59a23.59,23.59,0,1,0,16.63,6.91,23.53,23.53,0,0,0-16.63-6.91Z"/><path class="cls-1" d="M149.67,155.84A10.86,10.86,0,0,1,138.82,145v-2a1.54,1.54,0,0,0-1.53-1.53,2.25,2.25,0,1,1,0-4.5,6,6,0,0,1,6,6v2A6.35,6.35,0,0,0,156,145v-2a6,6,0,0,1,6.08-6,2.28,2.28,0,0,1,1.66.62,2.25,2.25,0,0,1,0,3.22,2.22,2.22,0,0,1-1.59.66,1.61,1.61,0,0,0-1.76,1.53v2a10.84,10.84,0,0,1-10.75,10.83Z"/></svg>