<?xml version="1.0" encoding="utf-8"?>
<!-- Generator: Adobe Illustrator 26.0.1, SVG Export Plug-In . SVG Version: 6.00 Build 0)  -->
<svg version="1.1" xmlns="http://www.w3.org/2000/svg" xmlns:xlink="http://www.w3.org/1999/xlink" x="0px" y="0px"
	 viewBox="0 0 595.3 428.2" style="enable-background:new 0 0 595.3 428.2;" xml:space="preserve">
<style type="text/css">
	.st0{fill:none;stroke:#1D1D1B;stroke-width:1.1366;stroke-miterlimit:10;}
	.st1{fill:none;stroke:#1D1D1B;stroke-width:1.1366;stroke-miterlimit:10;stroke-dasharray:3.4129,3.4129;}
	.st2{fill:#FFFFFF;stroke:#E03C31;stroke-width:3.4097;stroke-miterlimit:10;}
	.st3{fill:none;}
	.st4{font-family:'MyriadPro-Regular';}
	.st5{font-size:10.2292px;}
	.st6{font-size:7.956px;}
	.st7{fill:#E03C31;}
	.st8{fill:none;stroke:#000000;stroke-width:2.4339;stroke-linecap:round;stroke-linejoin:round;stroke-miterlimit:10;}
	.st9{stroke:#FFFFFF;stroke-miterlimit:10;}
	.st10{fill:#FFFFFF;}
	.st11{fill:#E03C31;stroke:#E03C31;stroke-width:0.7009;stroke-miterlimit:10;}
	.st12{fill:#1D1D1B;}
	.st13{fill:#E03C31;stroke:#000000;stroke-miterlimit:10;}
</style>
<g id="Layer_1">
</g>
<g id="Layer_2">
	<g>
		<g>
			<line class="st0" x1="61.6" y1="193.4" x2="61.6" y2="191.7"/>
			<path class="st1" d="M61.6,188.2v-81.1c0-26,21.1-47,47-47h0c26,0,47,21.1,47,47v205.3c0,26,21.2,47,47.2,47h0
				c26,0,47-21.1,47-47l-0.1-205.3c0-26,21.1-47,47-47h0c26,0,47,21.1,47,47v205.3c0,26,21.2,47,47.2,47h0c26,0,47-21.1,47-47
				l0.1-205.3c0-26,21.1-47,47-47h0c26,0,47,21.1,47,47v118.1"/>
			<line class="st0" x1="532.3" y1="226.9" x2="532.3" y2="228.6"/>
		</g>
	</g>
	<circle class="st2" cx="61" cy="226.1" r="38.3"/>
	<circle class="st2" cx="202.4" cy="340.2" r="38.3"/>
	<circle class="st2" cx="390.3" cy="340.2" r="38.3"/>
	<circle class="st2" cx="533.2" cy="226.1" r="38.3"/>
	<circle class="st2" cx="108.9" cy="80.2" r="38.3"/>
	<circle class="st2" cx="296.7" cy="80.2" r="38.3"/>
	<circle class="st2" cx="486.2" cy="80.2" r="38.3"/>
</g>
<g id="Layer_3">
	<rect x="41.3" y="14.5" class="st3" width="134.8" height="19.2"/>
	<text transform="matrix(1 0 0 1 61.6955 21.8017)"><tspan x="0" y="0" class="st4 st5">Análise das mudanças </tspan><tspan x="-17.5" y="11.4" class="st4 st5">cognitivas e comportamentais</tspan></text>
	<rect x="257.2" y="14.5" class="st3" width="79.7" height="20"/>
	<text transform="matrix(1 0 0 1 263.0207 21.8017)"><tspan x="0" y="0" class="st4 st5">Exames físicos e </tspan><tspan x="6.1" y="11.4" class="st4 st5">neurológicos</tspan></text>
	<rect x="413.4" y="14.5" class="st3" width="143.5" height="17.5"/>
	<text transform="matrix(1 0 0 1 419.3571 21.8012)"><tspan x="0" y="0" class="st4 st5">Exames de imagem do cérebro  </tspan><tspan x="23.8" y="9.5" class="st4 st6">(tomografia, ressonância)</tspan></text>
	<rect x="145.2" y="386.1" class="st3" width="109.3" height="33.2"/>
	<text transform="matrix(1 0 0 1 149.1652 393.4032)"><tspan x="0" y="0" class="st4 st5">Realização de resolução </tspan><tspan x="-3.7" y="11.4" class="st4 st5">de problemas, memória e </tspan><tspan x="-0.1" y="22.7" class="st4 st5">outros testes cognitivos</tspan></text>
	<rect x="350.1" y="386.1" class="st3" width="79.7" height="23.5"/>
	<text transform="matrix(1 0 0 1 350.1276 393.4032)" class="st4 st5">Exames de sangue</text>
	<rect x="491.9" y="271.3" class="st3" width="84.1" height="47.6"/>
	<text transform="matrix(1 0 0 1 502.0847 278.5233)"><tspan x="0" y="0" class="st4 st5">Biomarcadores </tspan><tspan x="-8.6" y="9.5" class="st4 st6">(tomografia por emissão </tspan><tspan x="1" y="19.1" class="st4 st6">de pósitrons/PET e </tspan><tspan x="3.2" y="28.6" class="st4 st6">exame de líquido </tspan><tspan x="-6.3" y="38.2" class="st4 st6">cefalorraquidiano/LCR)</tspan></text>
	<rect x="16.5" y="271.3" class="st3" width="87.9" height="33"/>
	<text transform="matrix(1 0 0 1 24.2145 278.5233)"><tspan x="0" y="0" class="st4 st5">Apresentação do </tspan><tspan x="-3.1" y="11.4" class="st4 st5">histórico médico e </tspan><tspan x="-6.1" y="22.7" class="st4 st5">familiar do paciente</tspan></text>
	<g>
		<path d="M59.2,244.2h3.4h0c0.4,0,0.8-0.2,1.1-0.4c0.3-0.3,0.4-0.7,0.4-1.1v-0.9H65c0.4,0,0.8-0.2,1.1-0.4c0.3-0.3,0.4-0.7,0.4-1.1
			v-3.4c0-0.4-0.2-0.8-0.4-1.1c-0.3-0.3-0.7-0.4-1.1-0.4h-0.9v-0.9c0-0.4-0.2-0.8-0.4-1.1c-0.3-0.3-0.7-0.4-1.1-0.4h-3.4
			c-0.4,0-0.8,0.2-1.1,0.4s-0.4,0.7-0.4,1.1v0.9h-0.9c-0.4,0-0.8,0.2-1.1,0.4c-0.3,0.3-0.4,0.7-0.4,1.1v3.4v0c0,0.4,0.2,0.8,0.4,1.1
			c0.3,0.3,0.7,0.4,1.1,0.4h0.9v0.9c0,0.4,0.2,0.8,0.4,1.1S58.8,244.2,59.2,244.2L59.2,244.2z"/>
		<polygon class="st7" points="56.8,240.3 56.8,236.9 59.2,236.9 59.2,234.5 62.6,234.5 62.6,236.9 65,236.9 65,240.3 62.6,240.3 
			62.6,242.7 59.2,242.7 59.2,240.3 		"/>
		<path d="M75.1,206.2h-3.7v1.5h3.7l0,31.7l-7,7H46.8v-38.7h3.7v-1.5h-3.7c-0.4,0-0.8,0.2-1.1,0.4s-0.4,0.7-0.4,1.1v38.7
			c0,0.4,0.2,0.8,0.4,1.1c0.3,0.3,0.7,0.4,1.1,0.4h28.3c0.4,0,0.8-0.2,1.1-0.4c0.3-0.3,0.4-0.7,0.4-1.1v-38.7c0-0.4-0.2-0.8-0.4-1.1
			C75.8,206.4,75.5,206.2,75.1,206.2L75.1,206.2z M70.2,246.4l4.9-4.9v4.9H70.2z"/>
		<path d="M55,206.2h11.9v1.5H55V206.2z"/>
		<path d="M77.3,203.2H44.5c-0.6,0-1.2,0.2-1.6,0.7c-0.4,0.4-0.7,1-0.7,1.6v43.2c0,0.6,0.2,1.2,0.7,1.6c0.4,0.4,1,0.7,1.6,0.7h32.8
			c0.6,0,1.2-0.2,1.6-0.7c0.4-0.4,0.7-1,0.7-1.6v-43.2c0-0.6-0.2-1.2-0.7-1.6C78.5,203.5,77.9,203.2,77.3,203.2z M53.5,204.7h14.9
			v4.5c0,0.4-0.3,0.7-0.7,0.7H54.2c-0.4,0-0.7-0.3-0.7-0.7V204.7z M78,248.7c0,0.4-0.3,0.7-0.7,0.7H44.5c-0.4,0-0.7-0.3-0.7-0.7
			v-43.2c0-0.4,0.3-0.7,0.7-0.7H52v4.5c0,0.6,0.2,1.2,0.7,1.6c0.4,0.4,1,0.7,1.6,0.7h13.4c0.6,0,1.2-0.2,1.6-0.7
			c0.4-0.4,0.7-1,0.7-1.6v-4.5h7.4c0.4,0,0.7,0.3,0.7,0.7L78,248.7z"/>
		<path d="M49,214.4c0,0.4,0.3,0.7,0.7,0.7h22.3c0.4,0,0.7-0.3,0.7-0.7c0-0.4-0.3-0.7-0.7-0.7H49.7C49.3,213.7,49,214,49,214.4z"/>
		<path d="M72.1,217.4H49.7c-0.4,0-0.7,0.3-0.7,0.7c0,0.4,0.3,0.7,0.7,0.7h22.3c0.4,0,0.7-0.3,0.7-0.7
			C72.8,217.7,72.5,217.4,72.1,217.4z"/>
		<path d="M72.1,221.1H49.7c-0.4,0-0.7,0.3-0.7,0.7c0,0.4,0.3,0.7,0.7,0.7h22.3c0.4,0,0.7-0.3,0.7-0.7
			C72.8,221.4,72.5,221.1,72.1,221.1z"/>
		<path d="M72.1,224.8H49.7c-0.4,0-0.7,0.3-0.7,0.7c0,0.4,0.3,0.7,0.7,0.7h22.3c0.4,0,0.7-0.3,0.7-0.7
			C72.8,225.2,72.5,224.8,72.1,224.8z"/>
		<path d="M72.8,229.3c0-0.4-0.3-0.7-0.7-0.7H49.7c-0.4,0-0.7,0.3-0.7,0.7c0,0.4,0.3,0.7,0.7,0.7h22.3
			C72.5,230,72.8,229.7,72.8,229.3z"/>
	</g>
	<path class="st8" d="M105.1,57.4C97.2,57.6,91,63.9,91,71.8l-4.1,12.4c-0.1,0.4,0.2,0.8,0.6,0.8h5.3v5.5c0,1.4,1.1,2.6,2.6,2.6h5.4
		c1.1,0,2.1,0.9,2.1,2.1v4.2"/>
	<line class="st8" x1="119.7" y1="99.4" x2="119.7" y2="79.4"/>
	<path class="st9" d="M136.3,82.9l-10.7-8.7c2.5-4,2.7-9,0.7-13.2c-2-4.2-6.1-7.1-10.8-7.6c-4.7-0.5-9.3,1.4-12.2,5
		c-2.9,3.6-3.8,8.5-2.3,13c1.5,4.4,5.2,7.8,9.7,8.9c4.6,1.1,9.4-0.2,12.7-3.5l10.7,8.7L136.3,82.9z M107.5,75
		c-2.1-1.7-3.5-4.2-3.8-6.9c-0.3-2.7,0.5-5.4,2.2-7.5s4.2-3.5,6.9-3.8c2.7-0.3,5.4,0.5,7.5,2.2c2.1,1.7,3.5,4.2,3.8,6.9
		c0.3,2.7-0.5,5.4-2.2,7.5c-1.7,2.1-4.2,3.5-6.9,3.8C112.3,77.5,109.6,76.7,107.5,75L107.5,75z"/>
	<g>
		<g>
			<path class="st7" d="M111.2,66.2c-0.5,0-1.1,0.2-1.5,0.6c-0.4,0.4-0.6,0.9-0.6,1.4c0,0.5,0.2,1.1,0.6,1.5
				c0.4,0.4,0.9,0.6,1.4,0.6c0.5,0,1.1-0.2,1.5-0.6c0.4-0.4,0.6-0.9,0.6-1.4c0-0.5-0.2-1.1-0.6-1.5
				C112.2,66.4,111.7,66.2,111.2,66.2z M111.1,68.9c-0.3,0-0.5-0.2-0.6-0.4c-0.1-0.3,0-0.5,0.2-0.7c0.2-0.2,0.5-0.2,0.7-0.1
				c0.3,0.1,0.4,0.4,0.4,0.6C111.8,68.6,111.5,68.9,111.1,68.9z"/>
			<path class="st7" d="M116.5,69.1c0.1-0.5,0.1-1,0-1.5c0-0.2-0.2-0.4-0.4-0.5l-0.8-0.4c0-0.1,0-0.1-0.1-0.2l0.3-0.8
				c0.1-0.2,0-0.4-0.1-0.6c-0.3-0.4-0.6-0.7-1-1.1c-0.2-0.1-0.4-0.2-0.6-0.1l-0.8,0.3c-0.1,0-0.1-0.1-0.2-0.1l-0.4-0.8l0,0
				c-0.1-0.2-0.3-0.3-0.5-0.4c-0.5-0.1-1-0.1-1.5,0c-0.2,0-0.4,0.2-0.5,0.4l-0.4,0.8c-0.1,0-0.1,0-0.2,0.1l-0.8-0.3l0,0
				c-0.2-0.1-0.4,0-0.6,0.1c-0.4,0.3-0.7,0.6-1.1,1c-0.1,0.2-0.2,0.4-0.1,0.6l0.3,0.8c0,0.1-0.1,0.1-0.1,0.2l-0.8,0.4
				c-0.2,0.1-0.3,0.3-0.4,0.5c-0.1,0.5-0.1,1,0,1.5c0,0.2,0.2,0.4,0.4,0.5l0.8,0.4c0,0.1,0,0.1,0.1,0.2l-0.3,0.8
				c-0.1,0.2,0,0.4,0.1,0.6c0.3,0.4,0.6,0.7,1,1.1c0.2,0.1,0.4,0.2,0.6,0.1l0.8-0.3c0.1,0,0.1,0.1,0.2,0.1l0.4,0.8h0
				c0.1,0.2,0.3,0.3,0.5,0.4c0.5,0.1,1,0.1,1.5,0c0.2,0,0.4-0.2,0.5-0.4l0.4-0.8c0.1,0,0.1,0,0.2-0.1l0.8,0.3c0.2,0.1,0.4,0,0.6-0.1
				c0.4-0.3,0.7-0.6,1-1c0.1-0.2,0.2-0.4,0.1-0.6l-0.3-0.8c0-0.1,0.1-0.1,0.1-0.2l0.8-0.4v0C116.3,69.5,116.5,69.3,116.5,69.1
				L116.5,69.1z M113.9,69.7L113.9,69.7c-0.1,0.2-0.1,0.3-0.1,0.5l0.2,0.8c-0.1,0.1-0.2,0.2-0.3,0.3l-0.7-0.3c-0.2-0.1-0.4,0-0.5,0
				c-0.2,0.1-0.3,0.1-0.5,0.2c-0.2,0.1-0.3,0.2-0.4,0.3l-0.4,0.7c-0.1,0-0.1,0-0.2,0c-0.1,0-0.1,0-0.2,0l-0.3-0.7
				c-0.1-0.2-0.2-0.3-0.4-0.3c-0.2-0.1-0.3-0.1-0.5-0.2c-0.2-0.1-0.3-0.1-0.5-0.1l-0.8,0.2c-0.1-0.1-0.2-0.2-0.3-0.3l0.3-0.7
				c0.1-0.2,0-0.4,0-0.5c-0.1-0.2-0.1-0.3-0.2-0.5c-0.1-0.2-0.2-0.3-0.3-0.4l-0.7-0.4c0-0.1,0-0.3,0-0.4l0.7-0.3
				c0.2-0.1,0.3-0.2,0.3-0.4c0.1-0.2,0.1-0.3,0.2-0.5c0.1-0.2,0.1-0.3,0.1-0.5l-0.2-0.8c0.1-0.1,0.2-0.2,0.3-0.3l0.7,0.3
				c0.2,0.1,0.4,0,0.5,0c0.2-0.1,0.3-0.1,0.5-0.2c0.2-0.1,0.3-0.2,0.4-0.3l0.4-0.7c0.1,0,0.1,0,0.2,0c0.1,0,0.1,0,0.2,0l0.3,0.7
				c0.1,0.2,0.2,0.3,0.4,0.3c0.2,0.1,0.3,0.1,0.5,0.2c0.2,0.1,0.3,0.1,0.5,0.1l0.8-0.2c0.1,0.1,0.2,0.2,0.3,0.3l-0.3,0.7
				c-0.1,0.2,0,0.4,0,0.5c0.1,0.2,0.1,0.3,0.2,0.5c0.1,0.2,0.2,0.3,0.3,0.4l0.7,0.4c0,0.1,0,0.3,0,0.4l-0.7,0.3
				c-0.2,0.1-0.3,0.2-0.3,0.4C114.1,69.4,114,69.6,113.9,69.7L113.9,69.7z"/>
		</g>
		<g>
			<path class="st7" d="M118.8,62.3c-0.4,0-0.7,0.1-1,0.4s-0.4,0.6-0.4,1c0,0.4,0.1,0.7,0.4,1c0.3,0.3,0.6,0.4,1,0.4
				c0.4,0,0.7-0.1,1-0.4s0.4-0.6,0.4-1c0-0.4-0.1-0.7-0.4-1C119.6,62.4,119.2,62.3,118.8,62.3z M118.8,64.1c-0.2,0-0.4-0.1-0.4-0.3
				c-0.1-0.2,0-0.4,0.1-0.5c0.1-0.1,0.3-0.2,0.5-0.1c0.2,0.1,0.3,0.2,0.3,0.4C119.3,63.9,119.1,64.1,118.8,64.1z"/>
			<path class="st7" d="M122.4,64.2c0.1-0.3,0.1-0.7,0-1c0-0.1-0.1-0.3-0.2-0.4l-0.5-0.3c0,0,0-0.1,0-0.1l0.2-0.6
				c0-0.1,0-0.3-0.1-0.4c-0.2-0.3-0.4-0.5-0.7-0.7c-0.1-0.1-0.3-0.1-0.4-0.1l-0.6,0.2c0,0-0.1,0-0.1-0.1l-0.3-0.5l0,0
				c-0.1-0.1-0.2-0.2-0.3-0.3c-0.3-0.1-0.7-0.1-1,0c-0.1,0-0.3,0.1-0.4,0.2l-0.3,0.5c0,0-0.1,0-0.1,0l-0.6-0.2l0,0
				c-0.1,0-0.3,0-0.4,0.1c-0.3,0.2-0.5,0.4-0.7,0.7c-0.1,0.1-0.1,0.3-0.1,0.4l0.2,0.6c0,0,0,0.1-0.1,0.1l-0.5,0.3
				c-0.1,0.1-0.2,0.2-0.3,0.3c-0.1,0.3-0.1,0.7,0,1c0,0.1,0.1,0.3,0.2,0.4l0.5,0.3c0,0,0,0.1,0,0.1l-0.2,0.6c0,0.1,0,0.3,0.1,0.4
				c0.2,0.3,0.4,0.5,0.7,0.7c0.1,0.1,0.3,0.1,0.4,0.1l0.6-0.2c0,0,0.1,0,0.1,0.1l0.3,0.5l0,0c0.1,0.1,0.2,0.2,0.3,0.3
				c0.3,0.1,0.7,0.1,1,0c0.1,0,0.3-0.1,0.4-0.2l0.3-0.5c0,0,0.1,0,0.1,0l0.6,0.2c0.1,0,0.3,0,0.4-0.1c0.3-0.2,0.5-0.4,0.7-0.7
				c0.1-0.1,0.1-0.3,0.1-0.4l-0.2-0.6c0,0,0-0.1,0.1-0.1l0.5-0.3l0,0C122.3,64.5,122.4,64.4,122.4,64.2L122.4,64.2z M120.7,64.7
				L120.7,64.7c-0.1,0.1-0.1,0.2,0,0.4l0.2,0.5c-0.1,0.1-0.1,0.1-0.2,0.2l-0.5-0.2c-0.1,0-0.2,0-0.4,0c-0.1,0.1-0.2,0.1-0.3,0.1
				c-0.1,0-0.2,0.1-0.3,0.2l-0.2,0.5c0,0-0.1,0-0.1,0c0,0-0.1,0-0.1,0l-0.2-0.5c-0.1-0.1-0.1-0.2-0.3-0.2c-0.1,0-0.2-0.1-0.3-0.1
				c-0.1-0.1-0.2-0.1-0.4,0l-0.5,0.2c-0.1-0.1-0.1-0.1-0.2-0.2l0.2-0.5c0-0.1,0-0.2,0-0.4c-0.1-0.1-0.1-0.2-0.1-0.3
				c0-0.1-0.1-0.2-0.2-0.3l-0.5-0.2c0-0.1,0-0.2,0-0.3l0.5-0.2c0.1-0.1,0.2-0.1,0.2-0.3c0-0.1,0.1-0.2,0.1-0.3
				c0.1-0.1,0.1-0.2,0-0.4l-0.2-0.5c0.1-0.1,0.1-0.1,0.2-0.2l0.5,0.2c0.1,0,0.2,0,0.4,0c0.1-0.1,0.2-0.1,0.3-0.1
				c0.1,0,0.2-0.1,0.3-0.2l0.3-0.5c0,0,0.1,0,0.1,0s0.1,0,0.1,0l0.2,0.5c0.1,0.1,0.1,0.2,0.3,0.2c0.1,0,0.2,0.1,0.3,0.1
				c0.1,0.1,0.2,0.1,0.4,0l0.5-0.2c0.1,0.1,0.1,0.1,0.2,0.2l-0.2,0.5c0,0.1,0,0.2,0,0.4c0.1,0.1,0.1,0.2,0.1,0.3
				c0,0.1,0.1,0.2,0.2,0.3l0.5,0.3c0,0.1,0,0.2,0,0.3l-0.5,0.2c-0.1,0.1-0.2,0.1-0.2,0.3C120.8,64.5,120.8,64.6,120.7,64.7
				L120.7,64.7z"/>
		</g>
	</g>
	<g>
		<path d="M190.5,315.3c-1.3,0.1-2.5,0.4-3.7,0.9c-5,2.2-7.6,8.1-5.3,13.1c2.1,4.4,7.5,6.7,12.1,4.6c4-1.8,6.1-6.6,4.1-10.6
			c-1.7-3.4-6-5.2-9.6-3.5c-3,1.4-4.6,5.1-3,8.2c1.3,2.5,4.5,3.8,7.2,2.4c2.1-1.1,3.2-3.7,1.9-5.9c-1-1.6-3.2-2.4-4.9-1.3
			c-0.6,0.4-1,1-1.2,1.6c-0.2,0.7-0.1,1.5,0.4,2.1c0.6,0.8,1.8-0.2,1.2-0.9c-0.2-0.2-0.2-0.5-0.1-0.8c0.1-0.3,0.3-0.6,0.6-0.8
			c0.9-0.6,2.2-0.1,2.8,0.8c0.8,1.3,0.1,3.1-1.3,3.8c-1.9,1-4.2,0-5.1-1.8c-1.2-2.3,0-5.1,2.3-6.2c2.8-1.3,6.3,0.1,7.6,2.8
			c1.6,3.2-0.1,7.1-3.4,8.6c-3.8,1.7-8.4-0.2-10.1-3.9c-2-4.2,0.3-9.3,4.6-11.1c1-0.4,2.1-0.7,3.2-0.8
			C191.6,316.7,191.5,315.3,190.5,315.3C190.5,315.3,190.5,315.3,190.5,315.3L190.5,315.3z"/>
		<path d="M224.9,315.4c-8.1,4.7-11.1,9.1-11.3,13.4c-0.2,4.2,2.3,8.1,4.3,11.5c2.1,3.6,3.8,6.7,2.9,10.1c-1,3.3-4.7,7-14.3,11
			c-0.9,0.4-0.3,1.7,0.6,1.4c9.8-4.1,14-8,15.2-12c1.2-4-0.9-7.8-3-11.4c-2.1-3.6-4.2-7.1-4-10.7s2.7-7.6,10.6-12.1
			c0.7-0.4,0.4-1.5-0.4-1.4C225.1,315.3,225,315.3,224.9,315.4L224.9,315.4z"/>
		<path class="st7" d="M208.1,319.8c-1.2,0-2.2,1-2.2,2.2c0,1.2,1,2.2,2.2,2.2c1.2,0,2.2-1,2.2-2.2
			C210.4,320.8,209.4,319.8,208.1,319.8L208.1,319.8z"/>
		<path class="st7" d="M208.1,321.2c0.4,0,0.7,0.3,0.7,0.7s-0.3,0.7-0.7,0.7c-0.4,0-0.7-0.3-0.7-0.7
			C207.4,321.6,207.7,321.2,208.1,321.2z"/>
		<path d="M221.5,327.6c-0.7,0-1,0.8-0.5,1.3l0.6,0.6L221,330c-0.7,0.7,0.4,1.8,1.1,1.1l0.6-0.6l0.6,0.6c0.7,0.7,1.8-0.4,1.1-1.1
			l-0.6-0.6l0.6-0.6c0.5-0.5,0.1-1.3-0.5-1.3c-0.2,0-0.4,0.1-0.5,0.2l-0.6,0.6l-0.6-0.6C221.9,327.6,221.7,327.6,221.5,327.6
			L221.5,327.6z"/>
		<path d="M202.9,330.9c-1.2,0-2.2,1-2.2,2.2v4.6c-1.1,0.2-2.3,0.8-3.4,1.4c-1.1,0.6-2.1,1.4-3,2.2l-15.2-0.7c-1,0-1.1,1.4-0.1,1.5
			l14.2,0.7c0.1,0.5,0.8,0.9,1.3,0.4c0.9-0.9,2.2-2,3.5-2.8c1.4-0.8,2.6-1.3,3.3-1.3c0.1,0,0.1,0,0.3,0.1c0.2,0.1,0.5,0.2,0.7,0.3
			c0.6,0.3,1.3,0.7,2,1.1c1.3,0.8,2.6,1.6,2.6,1.6c0.4,0.2,0.5,0.7,0.3,1c-0.1,0.2-0.2,0.2-0.4,0.3c-0.2,0-0.4,0-0.7-0.1l-3.7-1.3
			c-0.3-0.1-0.7,0-0.9,0.3c0,0-1.3,2.1-3.3,2.6c-1,0.2-0.6,1.7,0.4,1.4c0.8-0.2,1.5-0.6,2-1v9.9h-1.8c-1.3,0-3.2-0.7-4.3-1.7
			c-0.1-0.1-0.3-0.2-0.5-0.2c-0.6,0-1,0.8-0.5,1.3l-14.5,0.6c-1,0.1-0.9,1.5,0.1,1.5l16.5-0.7c1,0.5,2.2,0.7,3.2,0.7h1.8v1.5
			c0,0.1,0,0.3,0.1,0.4l2.2,3.7c0.3,0.5,1,0.5,1.3,0l2.2-3.7c0.1-0.1,0.1-0.2,0.1-0.4V357h2.2c1.2,0,2.2-1,2.2-2.2
			c0-0.6-0.2-1.1-0.6-1.5c0.4-0.4,0.6-0.9,0.6-1.5c0-0.6-0.2-1.1-0.6-1.5c0.4-0.4,0.6-0.9,0.6-1.5c0-0.6-0.2-1.1-0.6-1.5
			c0.4-0.4,0.6-0.9,0.6-1.5c0-1.2-1-2.2-2.2-2.2h-0.1c0.3-1-0.1-2-1-2.6c-0.1-0.1-0.6-0.4-1.2-0.7l0-7.1c0-1.2-1-2.2-2.2-2.2
			L202.9,330.9z"/>
		<path class="st7" d="M202.9,332.4h1.5c0.4,0,0.7,0.3,0.7,0.7v1.5h-3v-1.5C202.2,332.7,202.5,332.4,202.9,332.4z"/>
		<path class="st10" d="M202.2,336.1h3v3.2c-0.7-0.4-1.4-0.8-2-1.1c-0.3-0.2-0.6-0.3-0.9-0.4c0,0-0.1,0-0.1,0L202.2,336.1z"/>
		<path class="st10" d="M202.5,343.8l1.7,0.6c-0.3,0.4-0.5,0.9-0.5,1.4c0,0.6,0.2,1.1,0.6,1.5c-0.4,0.4-0.6,0.9-0.6,1.5
			c0,0.6,0.2,1.1,0.6,1.5c-0.4,0.4-0.6,0.9-0.6,1.5c0,0.6,0.2,1.1,0.6,1.5c-0.4,0.4-0.6,0.9-0.6,1.5c0,1,0.6,1.8,1.5,2.1v1.4
			l-1.5,2.5l-1.5-2.5v-14.1C202.3,344,202.4,343.9,202.5,343.8L202.5,343.8z"/>
		<path class="st10" d="M205.9,345h3c0.4,0,0.7,0.3,0.7,0.7c0,0.4-0.3,0.7-0.7,0.7l-3,0c-0.4,0-0.7-0.3-0.7-0.7
			C205.2,345.4,205.5,345,205.9,345L205.9,345z"/>
		<path class="st7" d="M216.3,345.8c-1.2,0-2.2,1-2.2,2.2c0,1.2,1,2.2,2.2,2.2s2.2-1,2.2-2.2S217.6,345.8,216.3,345.8z"/>
		<path class="st7" d="M216.3,347.3c0.4,0,0.7,0.3,0.7,0.7c0,0.4-0.3,0.7-0.7,0.7c-0.4,0-0.7-0.3-0.7-0.7
			C215.6,347.6,215.9,347.3,216.3,347.3z"/>
		<path class="st10" d="M205.9,348h3c0.4,0,0.7,0.3,0.7,0.7c0,0.4-0.3,0.7-0.7,0.7h-3c-0.4,0-0.7-0.3-0.7-0.7
			C205.2,348.4,205.5,348,205.9,348L205.9,348z"/>
		<path class="st10" d="M205.9,351h3c0.4,0,0.7,0.3,0.7,0.7c0,0.4-0.3,0.7-0.7,0.7h-3c-0.4,0-0.7-0.3-0.7-0.7
			C205.2,351.3,205.5,351,205.9,351L205.9,351z"/>
		<path class="st10" d="M205.9,354h3c0.4,0,0.7,0.3,0.7,0.7c0,0.4-0.3,0.7-0.7,0.7h-3c-0.4,0-0.7-0.3-0.7-0.7
			C205.2,354.3,205.5,354,205.9,354z"/>
		<path d="M193.5,359l0.6,0.6l-0.6,0.6c-0.7,0.7,0.4,1.8,1.1,1.1l0.6-0.6l0.6,0.6c0.7,0.7,1.8-0.4,1.1-1.1l-0.6-0.6l0.6-0.6
			c0.5-0.5,0.1-1.3-0.5-1.3c-0.2,0-0.4,0.1-0.5,0.2l-0.6,0.6l-0.6-0.6c-0.1-0.1-0.3-0.2-0.5-0.2C193.3,357.7,193,358.5,193.5,359
			L193.5,359z"/>
	</g>
	<g>
		<path class="st11" d="M297.3,78.7c-0.3,0-0.5,0.2-0.5,0.5c0,0.3,0.2,0.5,0.5,0.5c1.5,0,2.7,1.2,2.7,2.7c0,0.3,0.2,0.5,0.5,0.5
			c0.3,0,0.5-0.2,0.5-0.5C301,80.4,299.3,78.7,297.3,78.7L297.3,78.7z"/>
		<path class="st11" d="M306,67.8l0-7.9c0-0.1-0.1-1.8-1.3-2.5c-0.7-0.5-1.6-0.5-2.6-0.1c-0.1,0-1.8,0.6-2.9,1.7c-0.1,0-0.1,0-0.2,0
			c-2,0-3.7,1.6-3.7,3.7c0,0.5,0.1,1,0.3,1.4c-1.8,0.5-3.1,2.1-3.1,4.1c0,0.4,0.1,0.7,0.2,1.1c-1.3,0.7-2.1,2.1-2.1,3.6
			c0,1.1,0.4,2.1,1.1,2.8c-0.2,0.5-0.4,1.1-0.4,1.7c0,1.7,1,3.2,2.6,3.9c-0.2,0.4-0.2,0.8-0.2,1.3c0,2,1.6,3.7,3.7,3.7
			c0.1,0,0.2,0,0.3,0c0.6,1.5,2.2,2.6,4.1,2.6c2.4,0,4.3-1.6,4.3-3.7v-3.6v0V67.8L306,67.8L306,67.8L306,67.8z M305,65.2
			c-0.7-0.7-1.6-1.2-2.7-1.2c-0.3,0-0.5,0.2-0.5,0.5c0,0.3,0.2,0.5,0.5,0.5c1.5,0,2.7,1.2,2.7,2.7v11.1c-0.7-0.7-1.6-1.1-2.7-1.1
			c-0.3,0-0.5,0.2-0.5,0.5c0,0.3,0.2,0.5,0.5,0.5c1.5,0,2.7,1.2,2.7,2.7v3.6c0,1.5-1.5,2.7-3.3,2.7c-1.6,0-3-0.9-3.3-2.2
			c-0.1-0.3-0.3-0.4-0.6-0.4v0c0,0,0,0,0,0c-0.2,0-0.4,0.1-0.5,0.1c-1.5,0-2.7-1.2-2.7-2.7c0-0.5,0.1-0.9,0.3-1.3c0,0,0-0.1,0-0.1
			c0,0,0,0,0,0c0,0,0,0,0-0.1c0,0,0,0,0-0.1c0,0,0-0.1,0-0.1c0,0,0-0.1,0-0.1c0,0,0-0.1-0.1-0.1c0,0,0,0-0.1-0.1c0,0-0.1,0-0.1-0.1
			c0,0,0,0,0,0c0,0,0,0-0.1,0c0,0,0,0-0.1,0c-1.4-0.4-2.4-1.6-2.4-3.1c0-0.4,0.1-0.7,0.2-1c0.7,0.4,1.5,0.7,2.3,0.7
			c0.3,0,0.5-0.2,0.5-0.5c0-0.3-0.2-0.5-0.5-0.5c-1.8,0-3.2-1.4-3.2-3.2c0-1.2,0.7-2.4,1.9-2.9h0c0,0,0,0,0,0
			c0.4-0.2,0.9-0.3,1.3-0.3c0.3,0,0.5-0.2,0.5-0.5c0-0.3-0.2-0.5-0.5-0.5c-0.4,0-0.8,0.1-1.2,0.2c-0.1-0.2-0.1-0.5-0.1-0.7
			c0-1.8,1.4-3.2,3.2-3.2c1.2,0,2.3,0.7,2.9,1.8c0.1,0.3,0.4,0.3,0.7,0.2c0.2-0.1,0.4-0.4,0.2-0.7c-0.7-1.4-2.2-2.3-3.8-2.3
			c0,0,0,0-0.1,0c-0.2-0.4-0.3-0.8-0.3-1.2c0-1.5,1.2-2.7,2.7-2.7c1,0,1.9,0.5,2.3,1.4c0.2,0.4,0.3,0.8,0.3,1.3
			c0,0.3,0.2,0.5,0.5,0.5c0.3,0,0.5-0.2,0.5-0.5c0-0.6-0.2-1.2-0.5-1.8c-0.4-0.7-1-1.3-1.8-1.6c0.9-0.6,2-1,2-1
			c0.7-0.3,1.3-0.3,1.7,0c0.8,0.5,0.8,1.7,0.8,1.7V65.2z"/>
		<path class="st11" d="M299.5,69.7c-0.1-0.3-0.3-0.4-0.6-0.4c-0.3,0.1-0.5,0.3-0.4,0.6c0.2,1,0.7,1.9,1.5,2.6c0,0.1,0,0.1,0,0.2
			c0.1,1.5-1,2.7-2.5,2.8c-0.3,0-0.5,0.3-0.5,0.5c0,0.3,0.2,0.5,0.5,0.5h0c1.8-0.1,3.3-1.6,3.4-3.4c0.6,0.3,1.3,0.5,2.1,0.5
			c0.3,0,0.6,0,0.9-0.1c0.3-0.1,0.5-0.3,0.4-0.6c-0.1-0.3-0.3-0.4-0.6-0.4c-0.9,0.2-1.9,0-2.7-0.6C300.2,71.5,299.7,70.7,299.5,69.7
			L299.5,69.7z"/>
		<path class="st11" d="M315,78.7c-2,0-3.7,1.6-3.7,3.7c0,0.3,0.2,0.5,0.5,0.5c0.3,0,0.5-0.2,0.5-0.5c0-1.5,1.2-2.7,2.7-2.7
			c0.3,0,0.5-0.2,0.5-0.5C315.5,78.9,315.3,78.7,315,78.7L315,78.7z"/>
		<path class="st11" d="M321.7,72.7c0-1.5-0.8-2.9-2.1-3.6c0.1-0.4,0.2-0.7,0.2-1.1c0-1.9-1.3-3.6-3.1-4.1c0.2-0.4,0.3-0.9,0.3-1.4
			c0-2-1.6-3.7-3.7-3.7c-0.1,0-0.1,0-0.2,0c-1.1-1-2.8-1.6-2.9-1.7c-1-0.4-1.9-0.4-2.6,0.1c-1.2,0.8-1.3,2.5-1.3,2.5v7.9v0v0v13.6v0
			v3.6c0,2,1.9,3.7,4.3,3.7c1.9,0,3.6-1.1,4.1-2.6c0.1,0,0.2,0,0.3,0c2,0,3.7-1.6,3.7-3.7c0-0.4-0.1-0.9-0.2-1.3
			c1.5-0.7,2.6-2.2,2.6-3.9c0-0.6-0.1-1.2-0.4-1.7C321.3,74.7,321.7,73.8,321.7,72.7L321.7,72.7z M317.6,80.3
			C317.6,80.3,317.6,80.4,317.6,80.3c-0.1,0-0.1,0-0.1,0.1c0,0,0,0,0,0c0,0-0.1,0-0.1,0.1c0,0,0,0-0.1,0.1c0,0,0,0.1-0.1,0.1
			c0,0,0,0,0,0.1c0,0,0,0.1,0,0.1c0,0,0,0.1,0,0.1c0,0,0,0,0,0.1c0,0,0,0,0,0c0,0,0,0.1,0,0.1c0.2,0.4,0.3,0.8,0.3,1.3
			c0,1.5-1.2,2.7-2.7,2.7c-0.2,0-0.4,0-0.5-0.1c0,0,0,0,0,0c0,0,0,0,0,0c-0.3,0-0.5,0.1-0.6,0.4c-0.3,1.3-1.6,2.2-3.3,2.2
			c-1.8,0-3.3-1.2-3.3-2.7v-3.6c0-1.5,1.2-2.7,2.7-2.7c0.3,0,0.5-0.2,0.5-0.5c0-0.3-0.2-0.5-0.5-0.5c-1.1,0-2,0.5-2.7,1.2V67.8
			c0-1.5,1.2-2.7,2.7-2.7c0.3,0,0.5-0.2,0.5-0.5c0-0.3-0.2-0.5-0.5-0.5c-1.1,0-2,0.4-2.7,1.2v-5.4c0,0,0.1-1.2,0.8-1.7
			c0.4-0.3,1-0.3,1.7,0c0,0,1.1,0.4,2,1c-0.7,0.3-1.4,0.9-1.8,1.6c-0.3,0.5-0.5,1.2-0.5,1.8c0,0.3,0.2,0.5,0.5,0.5
			c0.3,0,0.5-0.2,0.5-0.5c0-0.5,0.1-0.9,0.3-1.3c0.5-0.8,1.4-1.4,2.3-1.4c1.5,0,2.7,1.2,2.7,2.7c0,0.4-0.1,0.8-0.3,1.2
			c0,0,0,0-0.1,0c-1.6,0-3.1,0.9-3.8,2.3c-0.1,0.3,0,0.6,0.2,0.7c0.2,0.1,0.6,0,0.7-0.2c0.5-1.1,1.6-1.8,2.9-1.8
			c1.8,0,3.2,1.4,3.2,3.2c0,0.2,0,0.5-0.1,0.7c-0.4-0.1-0.8-0.2-1.2-0.2c-0.3,0-0.5,0.2-0.5,0.5s0.2,0.5,0.5,0.5
			c0.5,0,0.9,0.1,1.3,0.3h0c0,0,0,0,0,0h0c1.1,0.5,1.9,1.7,1.9,2.9c0,1.8-1.4,3.2-3.2,3.2c-0.3,0-0.5,0.2-0.5,0.5
			c0,0.3,0.2,0.5,0.5,0.5c0.8,0,1.6-0.3,2.3-0.7c0.1,0.3,0.2,0.7,0.2,1C320,78.7,319,80,317.6,80.3L317.6,80.3z"/>
		<path class="st11" d="M314.8,76.5L314.8,76.5c0.3,0,0.5-0.2,0.5-0.5c0-0.3-0.2-0.5-0.5-0.5c-1.5-0.1-2.6-1.4-2.5-2.8
			c0-0.1,0-0.1,0-0.2c0.8-0.7,1.3-1.6,1.5-2.6c0.1-0.3-0.1-0.5-0.4-0.6c-0.3,0-0.5,0.1-0.6,0.4c-0.2,0.9-0.7,1.8-1.5,2.3
			c-0.8,0.5-1.7,0.7-2.7,0.6c-0.3-0.1-0.5,0.1-0.6,0.4c-0.1,0.3,0.1,0.5,0.4,0.6c0.3,0.1,0.6,0.1,0.9,0.1c0.7,0,1.4-0.2,2.1-0.5
			C311.5,75,312.9,76.4,314.8,76.5L314.8,76.5z"/>
	</g>
	<g>
		<circle class="st10" cx="307.9" cy="72.4" r="2.8"/>
		<g>
			<g>
				<path class="st12" d="M280.2,91.2C280.2,91.2,280.2,91.2,280.2,91.2l-1.2,0c-4.3-0.1-7.5-4.1-8-10.1c0-0.5-0.1-1.5-0.2-2.5
					c-0.1-0.9-0.1-1.8-0.2-2.2c0-0.2,0-0.4-0.1-0.6c-0.3-3.6-0.5-6,3.2-7.7l0,0l1.5-0.6l0.8,2.1l-1.5,0.6c-2.2,1-2.2,1.8-1.9,5.5
					c0,0.2,0,0.4,0.1,0.6c0,0.4,0.1,1.3,0.2,2.2c0.1,1,0.1,2.1,0.2,2.5c0.4,4.8,2.7,8,5.8,8h1.1c0,0,0,0,0,0c2.5,0,5.3-3.1,5.8-8
					c0-0.5,0.1-1.5,0.2-2.5c0.1-0.9,0.1-1.8,0.2-2.2c0-0.2,0-0.4,0.1-0.6c0.3-3.7,0.3-4.5-1.9-5.5l-1.5-0.6l0.8-2.1l1.6,0.6
					c3.7,1.7,3.5,4.1,3.2,7.7c0,0.2,0,0.4-0.1,0.6c0,0.4-0.1,1.3-0.2,2.2c-0.1,1-0.1,2.1-0.2,2.5c-0.2,2.7-1.2,5.2-2.6,7.1
					C284.1,90.1,282.2,91.2,280.2,91.2z"/>
			</g>
			<g>
				<path class="st12" d="M283.5,70.4c-0.1,0-0.3,0-0.4-0.1l-2.4-0.8c-0.4-0.1-0.6-0.4-0.8-0.7c-0.2-0.3-0.2-0.7,0-1.1l0.6-1.4
					c0.1-0.3,0.4-0.6,0.8-0.7c0.3-0.1,0.7-0.1,1.1,0.1l2.3,1.2c0.6,0.3,0.9,1.1,0.6,1.8l-0.4,1C284.6,70.1,284.1,70.4,283.5,70.4z
					 M283.6,68.8L283.6,68.8L283.6,68.8z M281.4,67.4L281.4,67.4C281.4,67.4,281.4,67.4,281.4,67.4z M282.5,67.2L282.5,67.2
					C282.5,67.2,282.5,67.2,282.5,67.2z"/>
			</g>
			<g>
				<path class="st12" d="M275.5,70.4c-0.5,0-1.1-0.3-1.3-0.8l-0.4-1c-0.3-0.7,0-1.4,0.6-1.8l2.3-1.2c0.3-0.2,0.7-0.2,1.1-0.1
					c0.3,0.1,0.6,0.4,0.8,0.7l0.6,1.4c0.1,0.3,0.1,0.7,0,1.1c-0.2,0.3-0.4,0.6-0.8,0.7l-2.4,0.8C275.8,70.4,275.7,70.4,275.5,70.4z
					 M275.5,68.8L275.5,68.8L275.5,68.8z M277.7,67.4C277.7,67.4,277.7,67.4,277.7,67.4L277.7,67.4z M276.6,67.2
					C276.6,67.2,276.6,67.2,276.6,67.2L276.6,67.2z"/>
			</g>
			<g>
				<path class="st12" d="M298.9,103.9h-10.7c-5.4,0-9.7-4.4-9.7-9.7v-4.2h2.2v4.2c0,4.1,3.4,7.5,7.5,7.5h10.7
					c4.1,0,7.5-3.4,7.5-7.5V75.4h2.2v18.9C308.6,99.6,304.3,103.9,298.9,103.9z"/>
			</g>
			<g>
				<path class="st12" d="M307.5,76.5c-2.1,0-3.9-1.7-3.9-3.9c0-2.1,1.7-3.9,3.9-3.9c2.1,0,3.9,1.7,3.9,3.9
					C311.4,74.7,309.7,76.5,307.5,76.5z M307.5,71c-0.9,0-1.6,0.7-1.6,1.6c0,0.9,0.7,1.6,1.6,1.6c0.9,0,1.6-0.7,1.6-1.6
					C309.2,71.7,308.4,71,307.5,71z"/>
			</g>
		</g>
	</g>
	<g>
		<path class="st7" d="M392.2,355.7v-21h-3.5v21c0,1,0.8,1.8,1.8,1.8C391.4,357.5,392.2,356.7,392.2,355.7z"/>
		<path d="M396.6,325.4h-12.3c-0.7,0-1.3,0.6-1.3,1.3v2.8c0,0.7,0.6,1.3,1.3,1.3h0.5v6.1c0.7,1.2,1.4,2.5,2.1,3.8l0-9.9h7.3v24.7
			c0,2-1.6,3.6-3.6,3.6c-2,0-3.6-1.6-3.6-3.6v-4.2c-0.6,0.6-1.3,1.2-2.1,1.6v2.5c0,3.1,2.6,5.7,5.7,5.7s5.7-2.5,5.7-5.7l0-24.7h0.5
			c0.7,0,1.3-0.6,1.3-1.3v-2.8C397.9,326,397.3,325.4,396.6,325.4L396.6,325.4z"/>
		<path class="st7" d="M386.8,346.7c0-2.4-3.2-7.9-4.2-9.5c-0.3-0.5-0.8-0.7-1.2-0.7c-0.5,0-1,0.3-1.2,0.7c-1,1.6-4.2,7.1-4.2,9.5
			c0,3,2.4,5.4,5.4,5.4C384.4,352.1,386.8,349.7,386.8,346.7z M380.7,344.4c-0.1,0.1-1.4,2.2-0.4,3.7c0.1,0.2,0.2,0.4,0.1,0.6
			c0,0.2-0.2,0.4-0.4,0.6c-0.2,0.1-0.3,0.2-0.5,0.2c-0.3,0-0.6-0.2-0.7-0.4c-1.6-2.4,0.3-5.4,0.4-5.6c0.1-0.2,0.3-0.3,0.5-0.4
			c0.2,0,0.5,0,0.6,0.1C380.8,343.4,381,343.9,380.7,344.4L380.7,344.4z"/>
	</g>
	<g>
		<path d="M485.4,63c0.4,0,0.7,0.2,0.9,0.6c0.1,0.4,0.1,0.8-0.2,1c-0.3,0.3-0.7,0.4-1,0.2c-0.4-0.1-0.6-0.5-0.6-0.9
			C484.4,63.5,484.8,63,485.4,63L485.4,63z"/>
		<path d="M487.4,64c0,0.4,0.2,0.7,0.6,0.9c0.4,0.1,0.8,0.1,1-0.2c0.3-0.3,0.4-0.7,0.2-1c-0.1-0.4-0.5-0.6-0.9-0.6
			C487.8,63,487.4,63.5,487.4,64L487.4,64z"/>
		<path d="M508.5,73.7v23.8c0,0.6-0.2,1.1-0.6,1.5c-0.4,0.4-0.9,0.6-1.5,0.6h-5.5c-0.5,0-0.8-0.4-0.8-0.8c0-0.5,0.4-0.8,0.8-0.8h5.5
			c0.2,0,0.4-0.2,0.4-0.4v-0.8h-5.9c-0.5,0-0.8-0.4-0.8-0.8V92c0-0.5,0.4-0.8,0.8-0.8h5.9v-1.7h-5.9c-0.5,0-0.8-0.4-0.8-0.8v-3.8
			c0-0.5,0.4-0.8,0.8-0.8h5.9V73.7c0-11-9-20-20-20c-11,0-20,9-20,20v10.2h5.9c0.5,0,0.8,0.4,0.8,0.8v3.8c0,0.5-0.4,0.8-0.8,0.8
			h-5.9v1.7h5.9c0.5,0,0.8,0.4,0.8,0.8v3.8c0,0.5-0.4,0.8-0.8,0.8h-5.9v0.8c0,0.2,0.2,0.4,0.4,0.4h5.5c0.5,0,0.8,0.4,0.8,0.8
			c0,0.5-0.4,0.8-0.8,0.8h-5.5c-0.6,0-1.1-0.2-1.5-0.6c-0.4-0.4-0.6-0.9-0.6-1.5V73.7c0-11.9,9.7-21.7,21.7-21.7
			S508.5,61.8,508.5,73.7L508.5,73.7z"/>
		<rect x="466.9" y="92.9" class="st10" width="5.1" height="2.1"/>
		<rect x="466.9" y="85.6" class="st10" width="5.1" height="2.1"/>
		<rect x="501.7" y="85.6" class="st10" width="5.1" height="2.1"/>
		<rect x="501.7" y="92.9" class="st10" width="5.1" height="2.1"/>
		<path d="M498.2,94c0.1,0.3,0.1,0.6,0.1,0.9v2.9c0,0.5-0.2,1-0.6,1.4c-0.4,0.4-0.8,0.6-1.4,0.6h-19.1c-0.5,0-1-0.2-1.4-0.6
			c-0.4-0.4-0.6-0.8-0.6-1.4v-2.9c0-0.3,0-0.6,0.1-0.9l3.7-11.4v-3.1c0-0.5,0.2-1,0.6-1.4c0.4-0.4,0.8-0.6,1.4-0.6h11.5
			c0.5,0,1,0.2,1.4,0.6c0.4,0.4,0.6,0.8,0.6,1.4v3.1L498.2,94z"/>
		<polygon class="st7" points="477.4,93.7 496.3,93.7 493,83.5 480.7,83.5 		"/>
		<path class="st7" d="M480.9,81.8h11.9v-2.3c0-0.1-0.1-0.2-0.2-0.2h-11.5c-0.1,0-0.2,0.1-0.2,0.2L480.9,81.8z"/>
		<path class="st13" d="M496.6,97.7v-2.3h-19.5v2.3c0,0.1,0.1,0.2,0.2,0.2h19.1C496.5,97.9,496.6,97.9,496.6,97.7L496.6,97.7z"/>
		<path d="M483,65.7c0.2-0.1,0.4-0.3,0.4-0.5c0.1-0.2,0.1-0.4,0-0.6c-0.1-0.2-0.3-0.4-0.5-0.4c-0.2-0.1-0.4-0.1-0.6,0
			c-2.2,1.1-4,2.9-5,5.1c-1,2.3-1.2,4.8-0.6,7.2c0.1,0.5,0.6,0.7,1,0.6c0.5-0.1,0.7-0.6,0.6-1c-0.5-2-0.4-4.1,0.5-6
			C479.6,68.1,481.1,66.6,483,65.7L483,65.7z"/>
		<path d="M496,77.1c0.2,0.1,0.4,0,0.6-0.1c0.2-0.1,0.3-0.3,0.4-0.5c0.6-2.4,0.4-4.9-0.6-7.2c-1-2.3-2.8-4.1-5-5.1
			c-0.2-0.1-0.4-0.1-0.6,0c-0.2,0.1-0.4,0.2-0.5,0.4c-0.1,0.2-0.1,0.4,0,0.6c0.1,0.2,0.2,0.4,0.4,0.5c1.9,0.9,3.4,2.4,4.2,4.3
			c0.9,1.9,1,4,0.5,6C495.3,76.5,495.6,77,496,77.1L496,77.1z"/>
		<path d="M497.5,84.4L497.5,84.4c0.2,0,0.5-0.1,0.6-0.3c2.6-2.8,4.1-6.5,4-10.4c-0.8-20.3-29.7-20.3-30.6,0c0,3.8,1.4,7.5,4,10.4
			c0.3,0.3,0.9,0.4,1.2,0c0.2-0.2,0.3-0.4,0.3-0.6c0-0.2-0.1-0.4-0.2-0.6c-2.4-2.6-3.7-6-3.6-9.6c0.1-3.5,1.6-6.9,4.1-9.4
			c2.5-2.5,5.9-3.8,9.5-3.8c11.8,0,18,14.2,10,22.8C496.3,83.5,496.7,84.4,497.5,84.4L497.5,84.4z"/>
		<path d="M482.2,86.5h9.3c0.5,0,0.8-0.4,0.8-0.8c0-0.5-0.4-0.8-0.8-0.8h-9.3c-0.5,0-0.8,0.4-0.8,0.8
			C481.3,86.1,481.7,86.5,482.2,86.5z"/>
	</g>
	<g>
		<path d="M554.3,204.9h-40.3c-0.4,0-0.7,0.3-0.7,0.7v37.7c0,0.4,0.3,0.7,0.7,0.7h40.3c0.4,0,0.7-0.3,0.7-0.7v-37.7
			c0-0.2-0.1-0.4-0.2-0.5C554.7,205,554.5,204.9,554.3,204.9L554.3,204.9z M553.7,242.6h-38.9v-36.4h38.9V242.6z"/>
		<path d="M518.8,210.2h2.9v-1.4h-3.6c-0.4,0-0.7,0.3-0.7,0.7v3.7h1.4L518.8,210.2z"/>
		<path d="M517.4,238.7h8.7v1.4h-8.7V238.7z"/>
		<path d="M546.6,211.3h4.4v1.4h-4.4V211.3z"/>
		<path d="M517.4,236.2h6.1v1.4h-6.1V236.2z"/>
		<path d="M545.1,208.9h5.9v1.4h-5.9V208.9z"/>
		<path d="M549.9,238.6H547v1.4h3.6c0.4,0,0.7-0.3,0.7-0.7v-3.7h-1.4L549.9,238.6z"/>
		<path class="st7" d="M520.7,225.4c0,1.9,0.5,3.8,1.5,5.4v0.2h0.1c0,0,0,0,0,0v0.1h0c0.7,1,1.5,1.9,2.5,2.6c1.8,1.4,4,2.1,6.2,2.1
			c0.5,0,1-0.2,1.4-0.6c0.4-0.4,0.6-0.9,0.6-1.4v-19c0-0.5-0.3-1.1-0.7-1.4c-0.4-0.4-0.9-0.6-1.4-0.6c-2.7,0-5.4,1.1-7.3,3
			c-1.9,1.9-3,4.6-3,7.3L520.7,225.4z M531.6,214.8v4.4h-2.4v1.4h0.1v0.1h2.3v3.6h-5.2h0c-0.1,0-0.2,0-0.3-0.1
			c-0.2-0.2-0.3-0.4-0.3-0.7V222h-0.1v-0.1h-1.4v1.4c0,0.8,0.4,1.5,1,1.9c0.4,0.3,0.8,0.5,1.3,0.5h5v3.5h-2.4v1.4h0.1v0.1h2.3v3.1
			c0,0.3-0.3,0.6-0.6,0.6c-1.9,0-3.8-0.6-5.3-1.7c-0.6-0.4-1.1-1-1.6-1.5h1.4c1.2,0,2.1-1,2.1-2.3v-1.4h-0.1v-0.1h-1.4v1.4
			c0,0.5-0.3,0.9-0.8,0.9h-2.2c-0.7-1.3-1-2.7-1-4.1v-2.2c0-1.5,0.4-2.9,1.1-4.2h2.3c0.1,0,0.2,0,0.3,0.1c0.2,0.2,0.3,0.4,0.3,0.7
			v1.4h0.1v0.1h1.4V220c0-0.8-0.4-1.5-1-1.9c-0.4-0.3-0.8-0.5-1.3-0.5h-1.1c1.7-2.1,4.2-3.3,6.9-3.3c0.1,0,0.3,0,0.3,0.1
			C531.6,214.6,531.6,214.7,531.6,214.8L531.6,214.8z"/>
		<path class="st7" d="M537.4,236c3.5,0,6.8-1.8,8.7-4.7h0.1v-0.2h0c1-1.6,1.5-3.5,1.5-5.4v-2.2c0-2.7-1.1-5.4-3-7.3
			c-1.9-1.9-4.6-3-7.3-3c-0.5,0-1,0.2-1.4,0.6c-0.4,0.4-0.6,0.9-0.6,1.4v19c0,0.5,0.2,1,0.6,1.4C536.4,235.8,536.9,236,537.4,236
			L537.4,236z M537.4,214.5c2.7,0,5.3,1.2,7,3.4H543c-1.2,0-2.1,1-2.1,2.3v1.4h1.4v-1.4c0-0.5,0.3-0.9,0.8-0.9h2.3v0
			c0.7,1.3,1.1,2.8,1.1,4.2v2.2c0,1.5-0.4,2.9-1.1,4.2H543c-0.4,0-0.8-0.4-0.8-0.9v-1.4h-1.4v1.4c0,1.2,1,2.3,2.1,2.3h1.4
			c-1.7,2.1-4.3,3.4-7,3.4c-0.3,0-0.6-0.3-0.6-0.6v-3.2h2.4v-1.4h-2.4v-3.7h5.2c1.2,0,2.1-1,2.1-2.3l0-1.4h-1.4v1.4
			c0,0.5-0.3,0.9-0.8,0.9h-5.2l0-3.7h2.4v-1.4h-2.4V215C536.8,214.7,537.1,214.5,537.4,214.5L537.4,214.5z"/>
	</g>
</g>
</svg>
