<svg id="Layer_1" data-name="Layer 1" xmlns="http://www.w3.org/2000/svg" viewBox="0 0 200 200"><defs><style>.cls-1{fill:#e03c31;}</style></defs><path d="M125.42,60.52a8,8,0,1,0-2.34,5.63,8,8,0,0,0,2.34-5.63Zm-11.63,0h0a3.66,3.66,0,1,1,3.66,3.65,3.67,3.67,0,0,1-3.66-3.65Z"/><path class="cls-1" d="M100.82,105.74a2.15,2.15,0,0,0,.34-2.31,2.11,2.11,0,0,0-2-1.26H91.34V67a2.13,2.13,0,0,0-.63-1.52,2.16,2.16,0,0,0-1.52-.63H79.74A2.15,2.15,0,0,0,77.57,67V94.56a2.18,2.18,0,0,0,.56,1.65,2.16,2.16,0,0,0,1.6.7,2.16,2.16,0,0,0,2.16-2.35V69.15H87v35.17a2.16,2.16,0,0,0,2.15,2.15h5.25l-10,11.35-10-11.35h5.28a2.15,2.15,0,1,0,0-4.3H69.69a2.17,2.17,0,0,0-2,1.26,2.13,2.13,0,0,0,.36,2.31l14.65,16.77a2.07,2.07,0,0,0,1.68.72,2.16,2.16,0,0,0,1.68-.72Z"/><path d="M75.67,141.16c-1.5-1.41-4.4-1.68-9.41-2.07a61,61,0,0,1-8.4-1c-3-.71-3.58-1.68-3.66-1.87-.76-2.23-.64-7.44-.54-12,.2-8.23.19-12.26-2-13.79h0a13.81,13.81,0,0,0-3.92-1.54c-4.13-1.18-4-1.68-3.74-2.61A25.75,25.75,0,0,1,48,99.51c2.41-3.36,4.66-6.36,4.66-9.32V88.61C52.54,83.33,52.18,71,60.3,62.4,66.75,55.68,80,48.22,97.76,48a2.16,2.16,0,0,0,0-4.31c-19.13.25-33.48,8.3-40.54,15.75-9.34,9.87-8.95,23.52-8.8,29.29v1.46c0,1.54-2.12,4.45-3.83,6.72h0a27.83,27.83,0,0,0-4.8,8.13,5.15,5.15,0,0,0,0,3.29,5.22,5.22,0,0,0,2,2.64,15.42,15.42,0,0,0,4.75,2,13.74,13.74,0,0,1,2.46.84c.57,1.38.45,6.72.36,10.25-.13,5.44-.25,10.56.76,13.44,1.68,4.72,9.17,5.29,15.84,5.78a31.07,31.07,0,0,1,6.72.92c.14.2.89,1.48.81,6.3a46.69,46.69,0,0,1-.4,5.76A2.15,2.15,0,0,0,75,158.8h.27a2.13,2.13,0,0,0,2.13-1.88,62.89,62.89,0,0,0,.44-6.28c.12-6.56-1.2-8.56-2.17-9.48Z"/><path d="M75.28,159.51H75a2.85,2.85,0,0,1-2.63-3.42.34.34,0,0,1,0-.09,44.77,44.77,0,0,0,.38-5.55c.06-3.67-.37-5.18-.58-5.69a30,30,0,0,0-6.26-.82c-6.88-.51-14.64-1.08-16.49-6.26-1.06-3-.93-8.2-.79-13.69.06-2.67.19-8-.24-9.71a13.28,13.28,0,0,0-2-.67,16.15,16.15,0,0,1-5-2,5.94,5.94,0,0,1-2.28-6.75,28.59,28.59,0,0,1,4.94-8.37c1.08-1.43,3.66-4.85,3.66-6.26V88.73c-.15-5.93-.52-19.73,9-29.77,7.15-7.56,21.69-15.73,41-16a2.87,2.87,0,0,1,.07,5.73c-17.47.22-30.56,7.47-37,14.18-7.91,8.37-7.56,20.51-7.41,25.7v1.6c0,3-2.17,6.09-4.47,9.3l-.32.43a25.28,25.28,0,0,0-4,6.58,2.87,2.87,0,0,0,0,.31c0,.1.41.51,3.34,1.35A14.52,14.52,0,0,1,52,109.77c2.58,1.78,2.59,5.93,2.38,14.42-.1,4.56-.21,9.68.5,11.78h0s.48.79,3.15,1.41a62,62,0,0,0,8.28,1c5.35.41,8.2.69,9.86,2.25h0c1.08,1,2.51,3.18,2.39,10A61.4,61.4,0,0,1,78.1,157,2.84,2.84,0,0,1,75.28,159.51ZM97.7,44.39c-18.84.25-33,8.19-40,15.54-9.11,9.62-8.76,23-8.61,28.73v1.53c0,1.74-2.05,4.6-4,7.15a27.15,27.15,0,0,0-4.7,8,4.51,4.51,0,0,0,1.72,5.1,14.63,14.63,0,0,0,4.51,1.84,14.64,14.64,0,0,1,2.59.88l.25.12.11.26c.59,1.42.53,6,.42,10.53-.12,5.12-.25,10.42.72,13.19,1.53,4.31,8.81,4.84,15.23,5.31a31.73,31.73,0,0,1,6.83.94l.27.07.15.23c.31.45,1,2,.93,6.7a44.52,44.52,0,0,1-.4,5.72l0,.18a1.42,1.42,0,0,0,.26,1.16,1.4,1.4,0,0,0,1,.57h.23a1.44,1.44,0,0,0,1.42-1.26,61.69,61.69,0,0,0,.43-6.21c.12-7-1.43-8.46-1.95-9h0c-1.3-1.23-4.11-1.51-9-1.88a62.53,62.53,0,0,1-8.48-1c-3.07-.71-3.93-1.72-4.18-2.26-.81-2.41-.7-7.66-.6-12.29.19-7.81.2-11.92-1.72-13.25a13.6,13.6,0,0,0-3.67-1.43c-4-1.12-4.74-1.77-4.28-3.48a26.09,26.09,0,0,1,4.21-7l.28-.4C50,95.51,52,92.79,52,90.19V88.61c-.15-5.34-.51-17.9,7.8-26.7,6.65-6.92,20.12-14.4,38-14.61a1.46,1.46,0,0,0,0-2.91Z"/><path d="M114.48,79.84h6A2.15,2.15,0,0,0,122.56,78l.47-3.11.64-.26,2.53,1.86a2.17,2.17,0,0,0,2.81-.22l4.2-4.2a2.16,2.16,0,0,0,.22-2.8l-1.88-2.52c.1-.22.18-.44.26-.66l3.13-.45h0a2.16,2.16,0,0,0,1.83-2.14V57.55a2.16,2.16,0,0,0-1.83-2.14L131.82,55h0a5.32,5.32,0,0,0-.26-.66l1.88-2.53a2.16,2.16,0,0,0-.22-2.81l-4.2-4.2a2.16,2.16,0,0,0-2.81-.2l-2.52,1.88-.67-.28-.45-3.11h0a2.15,2.15,0,0,0-2.13-1.85h-6A2.16,2.16,0,0,0,112.34,43l-.45,3.11-.67.28-2.52-1.86a2.16,2.16,0,0,0-2.81.22L101.68,49a2.16,2.16,0,0,0-.22,2.81l1.9,2.52a4.46,4.46,0,0,0-.27.67l-3.09.45a2.16,2.16,0,0,0-1.84,2.14v5.94A2.16,2.16,0,0,0,100,65.63l3.12.45a1.85,1.85,0,0,0,.27.66l-1.88,2.53h0a2.17,2.17,0,0,0,.17,2.81l4.2,4.2a2.17,2.17,0,0,0,2.8.22l2.54-1.89.64.27.47,3.11h0a2.15,2.15,0,0,0,2.15,1.85Zm-2.42-9.63h0a2.18,2.18,0,0,0-2.34.15l-2.1,1.57L106,70.35l1.57-2.1h0a2.18,2.18,0,0,0,.15-2.34,10.52,10.52,0,0,1-1-2.35A2.18,2.18,0,0,0,105.1,62l-2.57-.38V59.41L105,59a2.2,2.2,0,0,0,1.68-1.54,10,10,0,0,1,1-2.35,2.18,2.18,0,0,0-.15-2.34L106,50.69l1.58-1.58,2.1,1.56h0a2.14,2.14,0,0,0,2.33.13,12,12,0,0,1,2.35-1,2.16,2.16,0,0,0,1.55-1.68l.39-2.57h2.21l.39,2.57a2.15,2.15,0,0,0,1.55,1.68,12,12,0,0,1,2.35,1,2.16,2.16,0,0,0,2.42-.13l2.1-1.57,1.58,1.58-1.57,2.1h0a2.15,2.15,0,0,0-.15,2.32,10.67,10.67,0,0,1,1,2.37A2.18,2.18,0,0,0,129.9,59l2.57.39v2.22L129.9,62a2.21,2.21,0,0,0-1.76,1.55,10.52,10.52,0,0,1-1,2.35,2.2,2.2,0,0,0,.15,2.34l1.56,2.1-1.58,1.58-2.09-1.57a2.18,2.18,0,0,0-2.34-.15,11,11,0,0,1-2.35,1A2.19,2.19,0,0,0,119,72.87l-.38,2.58h-2.24L116,72.87a2.21,2.21,0,0,0-1.55-1.68,10.52,10.52,0,0,1-2.35-1Z"/><path d="M136.65,86.56a6.73,6.73,0,0,1-6.72-6.72,2.16,2.16,0,0,0-4.31,0A11.09,11.09,0,1,0,136.7,68.77a2.15,2.15,0,1,0,0,4.3,6.77,6.77,0,1,1,0,13.54Z"/><path d="M158.6,73.84l-4.24-.64c-.18-.47-.37-.94-.59-1.39l2.56-3.46h0a2.16,2.16,0,0,0-.2-2.81l-5.31-5.29h0A2.19,2.19,0,0,0,148,60l-3.36,2.56a14.81,14.81,0,0,0-1.41-.57l-.62-4.25h0a2.16,2.16,0,0,0-4.27.64l.82,5.56h0a2.14,2.14,0,0,0,1.54,1.68,13.77,13.77,0,0,1,3.09,1.3,2.22,2.22,0,0,0,2.34-.15l3-2.25,2.67,2.68-2.23,3h0a2.11,2.11,0,0,0-.15,2.32,15.45,15.45,0,0,1,1.27,3.09,2.15,2.15,0,0,0,1.68,1.54l3.73.56v3.78l-3.73.55a2.15,2.15,0,0,0-1.68,1.55,13.93,13.93,0,0,1-1.29,3.09,2.15,2.15,0,0,0,.15,2.32l2.25,3-2.67,2.67-3-2.25a2.15,2.15,0,0,0-2.45-.09,14.1,14.1,0,0,1-3.09,1.28A2.21,2.21,0,0,0,139,95.38l-.55,3.73h-3.73l-.56-3.73h0a2.15,2.15,0,0,0-1.54-1.68,13.63,13.63,0,0,1-3.08-1.28,2.2,2.2,0,0,0-2.33.15l-3,2.26-2.68-2.68,2.25-3a2.13,2.13,0,0,0,.15-2.31,15,15,0,0,1-1.28-3.1A2.21,2.21,0,0,0,121,82.16l-5.58-.82a2.15,2.15,0,0,0-.64,4.26l4.27.62h0c.17.48.36.94.57,1.4l-2.55,3.46h0a2.16,2.16,0,0,0,.2,2.81l5.29,5.3a2.16,2.16,0,0,0,2.81.21l3.46-2.57c.47.21.92.4,1.39.58l.58,4.27a2.15,2.15,0,0,0,2.13,1.85h7.49a2.17,2.17,0,0,0,2.14-1.85l.62-4.25c.48-.18.94-.37,1.39-.59L148,99.41a2.16,2.16,0,0,0,2.81-.2l5.31-5.31h0a2.15,2.15,0,0,0,.2-2.8l-2.57-3.48c.2-.46.4-.93.57-1.4l4.25-.62h0a2.19,2.19,0,0,0,1.9-2.13V76a2.16,2.16,0,0,0-1.88-2.14Z"/><path d="M132.3,106.28a2.18,2.18,0,0,0-3,.68l-.12.18c-3.14,5-6.11,9.73-6.85,14.42-1.58,10.08,1.34,29.06,4.65,36h0a2.17,2.17,0,0,0,2,1.23,2,2,0,0,0,.93-.22,2.13,2.13,0,0,0,1-2.87c-2.95-6.22-5.68-24.58-4.28-33.48.6-3.82,3.36-8.17,6.25-12.79l.12-.18h0a2.22,2.22,0,0,0,.28-1.63,2.17,2.17,0,0,0-1-1.35Z"/><path d="M129,159.51a2.89,2.89,0,0,1-2.59-1.63c-3.35-7-6.29-26.35-4.71-36.43.74-4.73,3.66-9.4,6.74-14.34l.33-.53a2.87,2.87,0,0,1,4.85,3.06l-.28.43c-2.79,4.45-5.42,8.66-6,12.27-1.38,8.78,1.3,26.92,4.22,33.06a2.84,2.84,0,0,1-1.34,3.82A2.72,2.72,0,0,1,129,159.51Zm2.2-52.84a1.43,1.43,0,0,0-1.23.67l-.33.52c-3,4.82-5.84,9.37-6.54,13.81-1.55,9.87,1.32,28.73,4.59,35.6a1.47,1.47,0,0,0,1.92.68,1.42,1.42,0,0,0,.75-.83,1.4,1.4,0,0,0-.06-1.1c-3-6.31-5.76-24.91-4.35-33.9.62-3.89,3.32-8.22,6.19-12.8l.28-.44a1.5,1.5,0,0,0,.19-1.09,1.48,1.48,0,0,0-.64-.9h0A1.46,1.46,0,0,0,131.16,106.67Z"/></svg>