<svg id="Layer_1" data-name="Layer 1" xmlns="http://www.w3.org/2000/svg" viewBox="0 0 200 200"><defs><style>.cls-1{fill:#e03c31;}</style></defs><path class="cls-1" d="M101.57,101.27a16.16,16.16,0,1,1,16.16-16.15A16.17,16.17,0,0,1,101.57,101.27Zm0-25.85a9.7,9.7,0,1,0,9.7,9.7A9.71,9.71,0,0,0,101.57,75.42Z"/><path class="cls-1" d="M101.57,123.88a38.77,38.77,0,0,1,0-77.53,3.23,3.23,0,1,1,0,6.46,32.31,32.31,0,1,0,32.31,32.31,3.23,3.23,0,1,1,6.46,0,38.81,38.81,0,0,1-38.77,38.76Z"/><path class="cls-1" d="M97,62a3.24,3.24,0,0,1-2.29-5.52l6.85-6.85-6.85-6.86a3.23,3.23,0,1,1,4.57-4.56l9.14,9.13a3.24,3.24,0,0,1,0,4.57L99.29,61A3.23,3.23,0,0,1,97,62Z"/><path d="M72.13,175.58H72a3.23,3.23,0,1,1,0-6.46,10.57,10.57,0,0,0,5-1.27,11.89,11.89,0,0,0,7-11.27A13.13,13.13,0,0,0,76,144.65a64.63,64.63,0,1,1,52.62-118c15.5,7.29,25.67,23.26,26.18,40.94l22.88,21.68a3.23,3.23,0,0,1-1.59,5.51L162.5,97.46v26a19.88,19.88,0,0,1-19.86,19.86H127a3.23,3.23,0,1,1,0-6.46h15.68a13.42,13.42,0,0,0,13.4-13.4V94.81a3.23,3.23,0,0,1,2.59-3.17l10-2L149.33,71.31a3.21,3.21,0,0,1-1-2.35c0-15.75-8.83-30.08-22.49-36.5A58.17,58.17,0,1,0,78.48,138.7a19.51,19.51,0,0,1,12.08,17.75,18.91,18.91,0,0,1-18.43,19.12Z"/><path d="M107.57,175.58a3.23,3.23,0,0,1-3.23-3.23V140a3.24,3.24,0,0,1,6.47,0v32.31A3.24,3.24,0,0,1,107.57,175.58Z"/></svg>