<?xml version="1.0" encoding="utf-8"?>
<!-- Generator: Adobe Illustrator 26.0.1, SVG Export Plug-In . SVG Version: 6.00 Build 0)  -->
<svg version="1.1" xmlns="http://www.w3.org/2000/svg" xmlns:xlink="http://www.w3.org/1999/xlink" x="0px" y="0px"
	 viewBox="0 0 595.3 132.6" style="enable-background:new 0 0 595.3 132.6;" xml:space="preserve">
<style type="text/css">
	.st0{fill:#E0E0E0;}
	.st1{fill:#FFBEA8;}
	.st2{fill:#FF9B79;}
	.st3{fill:#E03C31;}
	.st4{fill:none;}
	.st5{fill:#1D1D1B;}
	.st6{font-family:'SourceSansPro-Regular';}
	.st7{font-size:10px;}
	.st8{fill:none;stroke:#1D1D1B;stroke-miterlimit:10;}
	.st9{fill:none;stroke:#1D1D1B;stroke-width:0.7483;stroke-miterlimit:10;}
	.st10{fill:#FFFFFF;}
	.st11{font-family:'BebasNeue-Regular';}
	.st12{font-size:12px;}
</style>
<g id="Layer_1">
</g>
<g id="Layer_2">
	<polygon class="st0" points="559.7,11.3 447.9,11.3 447.9,57.8 559.7,57.8 582.7,34.5 	"/>
	<polygon class="st1" points="450,11.3 338.3,11.3 338.3,57.8 450,57.8 473.1,34.5 	"/>
	<polygon class="st2" points="341.2,11.3 229.4,11.3 229.4,57.8 341.2,57.8 364.3,34.5 	"/>
	<polygon class="st3" points="231.6,11.3 119.8,11.3 119.8,57.8 231.6,57.8 254.6,34.5 	"/>
	<polygon points="121.7,11.3 9.9,11.3 9.9,57.8 121.7,57.8 144.8,34.5 	"/>
	<rect x="21.2" y="94.7" class="st4" width="90" height="20"/>
	<text transform="matrix(1 0 0 1 36.6455 101.8274)" class="st5 st6 st7">Sem sintomas</text>
	<rect x="132.4" y="94.7" class="st4" width="90" height="33.7"/>
	<text transform="matrix(1 0 0 1 136.9964 101.8274)"><tspan x="0" y="0" class="st5 st6 st7">Sintomas leves que </tspan><tspan x="1" y="11" class="st5 st6 st7">não interferem nas </tspan><tspan x="3.7" y="22" class="st5 st6 st7">atividades diárias</tspan></text>
	<rect x="241.8" y="94.7" class="st4" width="98" height="36.4"/>
	<text transform="matrix(1 0 0 1 262.0652 101.8274)"><tspan x="0" y="0" class="st5 st6 st7">Sintomas que </tspan><tspan x="-19.8" y="11" class="st5 st6 st7">interferem em algumas </tspan><tspan x="-8" y="22" class="st5 st6 st7">atividades diárias</tspan></text>
	<rect x="354.5" y="94.7" class="st4" width="98" height="36.4"/>
	<text transform="matrix(1 0 0 1 374.6761 101.8274)"><tspan x="0" y="0" class="st5 st6 st7">Sintomas que </tspan><tspan x="-16.4" y="11" class="st5 st6 st7">interferem em muitas </tspan><tspan x="-8" y="22" class="st5 st6 st7">atividades diárias</tspan></text>
	<rect x="467.3" y="94.7" class="st4" width="98" height="36.4"/>
	<text transform="matrix(1 0 0 1 487.533 101.8274)"><tspan x="0" y="0" class="st5 st6 st7">Sintomas que </tspan><tspan x="-16.7" y="11" class="st5 st6 st7">interferem na maioria </tspan><tspan x="-16.4" y="22" class="st5 st6 st7">das atividades diárias</tspan></text>
	<line class="st8" x1="9.9" y1="85.4" x2="583.7" y2="85.4"/>
	<line class="st9" x1="65.6" y1="92.5" x2="65.6" y2="86.3"/>
	<line class="st9" x1="178.7" y1="92.5" x2="178.7" y2="86.3"/>
	<line class="st9" x1="516.5" y1="92.5" x2="516.5" y2="86.3"/>
	<line class="st9" x1="403" y1="92.5" x2="403" y2="86.3"/>
	<line class="st9" x1="290.8" y1="92.5" x2="290.8" y2="86.3"/>
</g>
<g id="Layer_3">
	<g>
		<text transform="matrix(1 0 0 1 45.0754 38.442)" class="st10 st11 st12">Pré-clínico</text>
	</g>
	<g>
		<text transform="matrix(1 0 0 1 149.4073 28.3759)"><tspan x="0" y="0" class="st10 st11 st12">Comprometimento</tspan><tspan x="6.9" y="11" class="st10 st11 st12">cognitivo leve </tspan><tspan x="14.9" y="22" class="st10 st11 st12">devido à DA</tspan></text>
	</g>
	<text transform="matrix(1 0 0 1 268.7987 33.4422)"><tspan x="0" y="0" class="st11 st12">Demência leve</tspan><tspan x="6.3" y="10" class="st11 st12">devido à DA</tspan></text>
	<text transform="matrix(1 0 0 1 367.4065 33.4422)"><tspan x="0" y="0" class="st11 st12">Demência moderada</tspan><tspan x="18.1" y="10" class="st11 st12">devido à DA</tspan></text>
	<text transform="matrix(1 0 0 1 484.3109 33.4422)"><tspan x="0" y="0" class="st11 st12">Demência grave</tspan><tspan x="9.4" y="10" class="st11 st12">devido à DA</tspan></text>
</g>
</svg>
