<svg id="Layer_1" data-name="Layer 1" xmlns="http://www.w3.org/2000/svg" viewBox="0 0 200 200"><defs><style>.cls-1{fill:#e03c31;}</style></defs><path d="M159.31,92.75a23.15,23.15,0,0,0-1.52-10.09c-7-19.73-25.4-19.5-31.94-18.73-1.76-3-6.32-7.72-18-10.6-11.94-2.95-19.64,2-23.16,6.27a42.64,42.64,0,0,0-22-2.45c-12.4,1.77-16.89,12.36-18.23,16.73C35.8,76,22.54,83.61,24.33,100.46,25.41,110.63,29.2,118.2,35.59,123a29.46,29.46,0,0,0,17.6,5.39c.93,0,1.69,0,2.4-.09a22.28,22.28,0,0,0,1.28,3.26c7.34,14.66,25,12.63,31.58,11.29,1.66,3.1,5.82,7.88,16.1,10.42h0a34.82,34.82,0,0,0,8.38,1,29.82,29.82,0,0,0,11-2,38.93,38.93,0,0,0,16,4.2,18.92,18.92,0,0,0,6.29-1,15.61,15.61,0,0,0,9.42-9.5,29.53,29.53,0,0,0,1.84-7.17c3.22-.49,11.56-3.23,14.64-18.49,2.73-13.44-6.36-23.31-12.78-27.55Zm7.27,26.44c-2.13,10.5-6.83,13.17-9.07,13.85a21.5,21.5,0,0,0-3.24-9.29,26.69,26.69,0,0,0-21.37-11.43,2.82,2.82,0,1,0-.28,5.63,21.08,21.08,0,0,1,16.92,8.85,18.19,18.19,0,0,1,.84,17.1,10.09,10.09,0,0,1-6,6.27c-4.71,1.67-10.65.05-14.61-1.49a11.12,11.12,0,0,0,1.07-1.1,10.84,10.84,0,0,0,1.31-12,2.81,2.81,0,1,0-5.11,2.36,5.28,5.28,0,0,1-.54,6.06c-3,3.61-11.5,6-20.55,3.8-11.67-2.87-12.91-8.48-13-8.64a2.78,2.78,0,0,0-1.26-2,2.85,2.85,0,0,0-2.31-.34c-.21.06-20.66,5.81-27.46-7.81h0A10.18,10.18,0,0,1,63.65,116c4.12-3.91,9.92-4.76,11.14-4.07h0a2.83,2.83,0,0,0,4.06-1.56A13.87,13.87,0,0,1,86,102.45c3.45-1.28,7.71-.43,12.64,2.5a2.82,2.82,0,0,0,2.88-4.84C95,96.25,89.12,95.27,84,97.19a18.22,18.22,0,0,0-9.41,8.91,21,21,0,0,0-14.81,5.76,15.26,15.26,0,0,0-5,10.84,24.74,24.74,0,0,1-15.88-4.27c-5.07-3.79-8.1-10-9-18.56-1.84-17.3,16.47-20.68,17.24-20.81h0a2.81,2.81,0,0,0,2.29-2.23c.1-.51,2.63-12.49,14-14.11A35.67,35.67,0,0,1,84.24,65.6a2.83,2.83,0,0,0,2.17.26,2.87,2.87,0,0,0,1.71-1.36c.2-.37,5.1-9,18.36-5.71s14.9,8.75,14.92,8.75h0a2.81,2.81,0,0,0,3.4,2.23c.84-.18,20.9-4.49,27.7,14.77,1.59,4.52,2.53,10.45-2.17,13-5,2.71-13.73.68-16.41-2.77-4.48-5.77-2.21-9.15-2.16-9.23a2.8,2.8,0,0,0,.62-2.1,2.76,2.76,0,0,0-1.06-1.9,2.8,2.8,0,0,0-4,.53c-.21.28-5.14,6.79,2.15,16.15,4.2,5.42,15.9,8.45,23.55,4.26h0a12.24,12.24,0,0,0,4.41-4.14c4,3.1,11.28,10.28,9.14,20.84Z"/><path class="cls-1" d="M101.72,81.27a11.62,11.62,0,0,1-6.94,5,2.59,2.59,0,0,1-.78.12,2.82,2.82,0,0,1-.77-5.53,5.65,5.65,0,0,0,4.15-3.4,8.52,8.52,0,0,0-1.58-7.35,2.81,2.81,0,1,1,4.63-3.2,15.21,15.21,0,0,1,2.86,9c4.79,1.51,13.68,6.51,14.21,23a2.81,2.81,0,0,1-2.72,2.9h-.1a2.82,2.82,0,0,1-2.81-2.73c-.42-13.25-6.94-16.88-10.15-17.87Z"/><path class="cls-1" d="M121.7,129.36h0a2.82,2.82,0,0,1-4.16,3.18,2.87,2.87,0,0,1-1.29-1.77,10.79,10.79,0,0,0-5.37-7.63,14,14,0,0,0-9.88.06,16,16,0,0,1-3.14,8.44,2.82,2.82,0,0,1-4.66-3.16,8.77,8.77,0,0,0,2-7A7.27,7.27,0,0,0,91,117.78a2.82,2.82,0,1,1,1.66-5.38,13.69,13.69,0,0,1,7,5.32,19.41,19.41,0,0,1,13.66.29,16.08,16.08,0,0,1,8.46,11.35Z"/><path class="cls-1" d="M77.35,87.32a2.82,2.82,0,0,1-3.83,1.11,13.54,13.54,0,0,1-6.44-6.78A16.94,16.94,0,0,0,52.91,96.37a18.31,18.31,0,0,1,6.53,4.11,2.82,2.82,0,0,1-3.83,4.13,9,9,0,0,0-6.84-3.12,6.86,6.86,0,0,0-4.08,3.71,2.82,2.82,0,0,1-2.57,1.66,2.6,2.6,0,0,1-1.14-.25,2.81,2.81,0,0,1-1.43-3.69,12.81,12.81,0,0,1,7.68-6.81A22.57,22.57,0,0,1,66.42,76a15.44,15.44,0,0,1,2.82-6.65,2.81,2.81,0,0,1,4.43,3.46,8.48,8.48,0,0,0-1.64,6,7.52,7.52,0,0,0,4.22,4.7,2.81,2.81,0,0,1,1.35,1.69,2.85,2.85,0,0,1-.25,2.14Z"/></svg>