<svg id="Layer_1" data-name="Layer 1" xmlns="http://www.w3.org/2000/svg" viewBox="0 0 200 200"><defs><style>.cls-1{fill:#e03c31;}</style></defs><path d="M172.19,107.93l-70.07-70a3.16,3.16,0,0,0-4.32,0L75.54,60.15V48.68a3.07,3.07,0,0,0-3.07-3.07H54.14a3.07,3.07,0,0,0-3.06,3.07V84.59L27.76,107.93a3,3,0,0,0,0,4.32l8.82,8.83a3.08,3.08,0,0,0,4.32,0L100,62,159,121.08c1.49,1.55,3.73.59,4.32,0l8.83-8.83a3,3,0,0,0,0-4.32Zm-115-56.19H69.44V66.28L57.23,78.49Zm104,62.87L102.12,55.54a3.06,3.06,0,0,0-4.32,0l-59,59.07-4.53-4.51L100,44.36,165.7,110.1Z"/><path d="M148.83,118.77a3.07,3.07,0,0,0-3.07,3.06v42.91H54.16V121.83a3.06,3.06,0,1,0-6.12,0v46a3.06,3.06,0,0,0,3.06,3.06h97.73a3.06,3.06,0,0,0,3.06-3.06V121.83a3.06,3.06,0,0,0-3.06-3.06Z"/><path class="cls-1" d="M118.29,143.34a3.06,3.06,0,0,0,3.06-3.06V103.66a3.06,3.06,0,0,0-3.06-3.07H81.64a3.06,3.06,0,0,0-3.06,3.07V140.3a3.06,3.06,0,0,0,3.06,3.06h36.65ZM84.71,106.7h30.54v30.54H84.71Z"/></svg>