<svg id="Layer_1" data-name="Layer 1" xmlns="http://www.w3.org/2000/svg" viewBox="0 0 200 200"><defs><style>.cls-1{fill:#e03c31;}</style></defs><path d="M102,26.5A73.51,73.51,0,1,0,154,48,73.47,73.47,0,0,0,102,26.5Zm0,140A66.51,66.51,0,1,1,149,147,66.45,66.45,0,0,1,102,166.5Z"/><path d="M144,124h3.5a3.5,3.5,0,0,0,0-7h-91a3.5,3.5,0,0,0,0,7H102m24.5,0H137m-28,0h10.5"/><path class="cls-1" d="M64.52,92a3.5,3.5,0,0,0,5,0l8-8,8,8h0A3.49,3.49,0,0,0,88,93a3.52,3.52,0,0,0,3.52-3.52,3.49,3.49,0,0,0-1-2.48l-8-8,8-8a3.51,3.51,0,0,0-5-5l-8,8-8-8h0a3.51,3.51,0,0,0-5,5l8,8-8,8a3.46,3.46,0,0,0-1,2.48,3.5,3.5,0,0,0,1,2.49Z"/><path class="cls-1" d="M113.51,92A3.53,3.53,0,0,0,116,93a3.49,3.49,0,0,0,2.48-1l8-8,8,8h0A3.53,3.53,0,0,0,137,93a3.51,3.51,0,0,0,2.48-6l-8-8,8-8a3.51,3.51,0,1,0-5-5l-8,8-8-8h0a3.51,3.51,0,0,0-5,5l8,8-8,8a3.49,3.49,0,0,0-1,2.48,3.53,3.53,0,0,0,1,2.49Z"/></svg>