<svg id="Layer_1" data-name="Layer 1" xmlns="http://www.w3.org/2000/svg" viewBox="0 0 200 200"><defs><style>.cls-1{fill:#e03c31;}</style></defs><path d="M69.84,131.5H97.38V102.62H65.9a121.36,121.36,0,0,0,3.95,28.88Zm1.56,5.25c5.77,17.58,15.43,29.56,26,31.29V136.75Zm58.76-5.25a121.37,121.37,0,0,0,3.94-28.88H102.63V131.5Zm-1.56,5.25h-26V168C113.17,166.31,122.83,154.33,128.6,136.75ZM39.45,131.5h25a127.19,127.19,0,0,1-3.77-28.88H31.81A67.56,67.56,0,0,0,33,113a68.24,68.24,0,0,0,6.43,18.48Zm3,5.25A68.39,68.39,0,0,0,82.67,166c-7-6.43-12.87-16.67-16.77-29.26Zm118-5.25a68,68,0,0,0,7.66-28.88H139.35a127.2,127.2,0,0,1-3.76,28.88Zm-3,5.25H134.11c-3.9,12.58-9.74,22.8-16.75,29.24a68,68,0,0,0,40.14-29.24ZM69.84,68.5A121.87,121.87,0,0,0,65.9,97.37H97.38V68.5Zm1.56-5.25h26V32C86.83,33.69,77.17,45.67,71.4,63.25Zm58.76,5.25H102.63V97.37H134.1a121.36,121.36,0,0,0-3.94-28.87Zm-1.56-5.25c-5.77-17.58-15.43-29.56-26-31.29V63.25ZM39.47,68.5A68,68,0,0,0,31.8,97.37H60.65A127.18,127.18,0,0,1,64.42,68.5Zm3-5.25H65.89C69.79,50.67,75.63,40.44,82.65,34A68,68,0,0,0,42.51,63.25Zm118,5.25h-25a127.19,127.19,0,0,1,3.76,28.87h28.84a68.76,68.76,0,0,0-7.64-28.87Zm-3-5.25A68.44,68.44,0,0,0,117.33,34c7,6.43,12.87,16.67,16.78,29.26Zm-131,34.12A73.54,73.54,0,0,1,86,27.86,74.42,74.42,0,0,1,99.9,26.5H100a73.5,73.5,0,0,1,14,145.64,74.42,74.42,0,0,1-13.92,1.36H100A73.53,73.53,0,0,1,27.86,114a74.47,74.47,0,0,1-1.31-11.39H26.5V97.38Z"/><path class="cls-1" d="M35.31,48.6a7.78,7.78,0,1,0-7.77-7.78A7.78,7.78,0,0,0,35.31,48.6Zm0-10.32a2.55,2.55,0,1,1-2.54,2.55A2.55,2.55,0,0,1,35.31,38.28Z"/><path class="cls-1" d="M35.31,22.74A18.11,18.11,0,0,0,17.22,40.83a22.7,22.7,0,0,0,2.71,10.33,39.58,39.58,0,0,0,5.69,8.15,53.91,53.91,0,0,0,8.17,7.54,2.6,2.6,0,0,0,3,0A54,54,0,0,0,45,59.31a40,40,0,0,0,5.69-8.15,22.81,22.81,0,0,0,2.7-10.33A18.1,18.1,0,0,0,35.31,22.74Zm0,5.23h0A12.87,12.87,0,0,1,48.17,40.83c0,5.79-3.83,11.35-7.05,15a52.54,52.54,0,0,1-5.81,5.59C31.77,58.48,22.45,49.9,22.45,40.83A12.87,12.87,0,0,1,35.31,28Z"/></svg>