<svg id="Layer_1" data-name="Layer 1" xmlns="http://www.w3.org/2000/svg" viewBox="0 0 200 200"><defs><style>.cls-1{fill:#e03c31;}</style></defs><path d="M168.43,74.3v65.78c0,17.55-26.37,17.17-26.37,0V74.3C142.06,57,168.43,57,168.43,74.3ZM69.91,114.45v25.63c0,17.55-26.37,17.17-26.37,0V114.45C43.54,97.12,69.91,97.12,69.91,114.45Zm-19.26,0v25.63c0,8.08,12.14,7.9,12.14,0V114.45C62.79,106.47,50.65,106.47,50.65,114.45Zm52.1-20v45.63c0,17.54-26.38,17.17-26.38,0V94.45c0-17.33,26.38-17.33,26.38,0Zm-19.26,0v45.63c0,8.08,12.14,7.9,12.14,0V94.45c0-8-12.14-8-12.14,0Zm52.1,6.67v39c0,17.55-26.37,17.17-26.37,0v-39C109.22,83.79,135.59,83.79,135.59,101.12Zm-19.26,0v39c0,8.08,12.15,7.9,12.15,0v-39C128.48,93.14,116.33,93.14,116.33,101.12ZM149.17,74.3v65.78c0,8.08,12.15,7.9,12.15,0V74.3C161.32,66.32,149.17,66.32,149.17,74.3Z"/><path class="cls-1" d="M156.28,31.64a3.54,3.54,0,0,1,3.05,3.76L159,53c-.07,4.66-7.16,4.55-7.08-.11l.16-9.44L117,76.34a3.55,3.55,0,0,1-4.83.42L85.35,55.67l-39,41.75C43.2,100.85,38,96,41.2,92.59L82.38,48.44a3.55,3.55,0,0,1,4.79-.37l27,21.23L148,37.63l-9.4-1.33c-4.64-.65-3.65-7.68,1-7l16.74,2.37Z"/></svg>