<svg id="Layer_1" data-name="Layer 1" xmlns="http://www.w3.org/2000/svg" viewBox="0 0 200 200"><defs><style>.cls-1{fill:#e03c31;}</style></defs><path d="M174.44,83.14l-2.19-11.35a3.37,3.37,0,0,0-2.85-2.7l-5.59-.77-8.66-7.47A3.35,3.35,0,0,0,153,60h-8.48l-4.09-2.48a2.75,2.75,0,0,0-.38-.2l-3.37-1.49-8.53-4.59a3.35,3.35,0,0,0-1.59-.4,3.31,3.31,0,0,0-2,.67l-6.9,5.14-1.42.17L116,56a3.36,3.36,0,0,0-1.88-2.28l2.82-1.41a3.37,3.37,0,0,0,1.65-1.83l1.16-3.09a3.38,3.38,0,0,0-.24-2.86L113,33.34a3.35,3.35,0,0,0-2.85-1.69h-.06a3.37,3.37,0,0,0-2.86,1.58l-4.62,7.4L96,39.56a3.15,3.15,0,0,0-.53,0,3.38,3.38,0,0,0-2.71,1.36l-1,1.43-7,1.49-2.89-3.69V34.37a3.37,3.37,0,0,0-1.54-2.83A3.4,3.4,0,0,0,77,31.31l-8.8,4-5.51-1.59a3.37,3.37,0,0,0-3.85,4.92l2.64,4.56L60,45.2H55.88l-2-1.91a3.39,3.39,0,0,0-2.33-.93h-.31l-8.38.77a3.37,3.37,0,0,0-3,2.6l-1.81,7.87a3.4,3.4,0,0,0,1,3.28l1.94,1.71-1.24,6.91a3,3,0,0,0-.82.27L30.38,69.9a3.37,3.37,0,0,0-1.74,2l-3,8.9a3.36,3.36,0,0,0,.56,3.16L31.91,91a3.43,3.43,0,0,0,1.69,1.13l5.18,1.49V94a3.36,3.36,0,0,0,3,3.34l8.77.91h.35a3.35,3.35,0,0,0,2-.66l5-3.68.52,3.2a3.37,3.37,0,0,0,2.2,2.63l13,4.61L76,108.49l.79,3.39a3.37,3.37,0,0,0,3.28,2.6h3.31l.52,2.1a3.39,3.39,0,0,0,.61,1.25l.84,1.08L84,125a3.36,3.36,0,0,0,0,1.34l1.29,7a3.35,3.35,0,0,0,2.55,2.66l5.11,1.19.47,2.39a3.37,3.37,0,0,0,2.31,2.55l1,.3v2.42a3.34,3.34,0,0,0,.77,2.14l.28.34-9.72,12a3.36,3.36,0,0,0,1.52,5.29l3.22,1.11L99.62,171l.43.64v2.57a3.36,3.36,0,0,0,2.28,3.18,3.46,3.46,0,0,0,1.09.18,3.36,3.36,0,0,0,2.66-1.3l4.39-5.68a3.27,3.27,0,0,0,.54-1l.21-.64a3.37,3.37,0,0,0,1.72-1.19l3.61-4.78a1.51,1.51,0,0,0,.18-.26l6.19-10.06a3.4,3.4,0,0,0,.49-1.41l.69-6.43,14-6,8.7-3.33a3.36,3.36,0,0,0,1.72-1.47l8.77-15.35a3.27,3.27,0,0,0,.44-1.45l1-14.7L165.51,95l8.12-8.89a3.43,3.43,0,0,0,.81-2.92Zm-66.63,85.39-4.39,5.67v-3.61l-1.33-1.94-7.7-5.93-3.74-1.29,11.44-14.19-2-2.45v-4.9l-3.35-1-.9-4.52-7.22-1.68-1.3-7L89,118.09l-1.8-2.32L86,111.12H80.07l-.9-3.87-3.23-5.67-14.19-5-1.42-8.64-9.41,7L42.14,94V89.59l-1.8,1-5.81-1.68-5.67-7.1,3-8.9,8.64-4.13h2.19l2.06-11.48-3.35-3,1.81-7.87,8.38-.78,3,2.84h7.22l3.74-5.16L61.75,37l6.71,1.94,9.93-4.52v6.91l4.9,6.25,10.32-2.19,1.81-2.45,8.9,1.42L110.13,35l6.45,11.22-1.17,3.1-4.64,2.32-1.68,5.42,3.62-.26.9,3.74,5.29-.65,7.61-5.67,8.64,4.64,3.48,1.55,4.9,3H153l9.41,8.12,6.58.9,2.2,11.36L163,92.68l-7.61,8.38-1,15.87-8.77,15.35-8.77,3.35L121,142.47l-.9,8.38-6.19,10.06-3.61,4.78"/><path d="M103.42,178.28a3.93,3.93,0,0,1-1.32-.22,4.07,4.07,0,0,1-2.76-3.85v-2.35l-.25-.37-6.66-5.13-3.11-1.08a4.07,4.07,0,0,1-1.84-6.41l9.35-11.6a4.1,4.1,0,0,1-.84-2.48V142.9l-.47-.15a4.06,4.06,0,0,1-2.8-3.1l-.39-1.93-4.66-1.09a4.07,4.07,0,0,1-3.09-3.22l-1.29-7a4,4,0,0,1,0-1.62l1.26-5.74-.63-.81a4.22,4.22,0,0,1-.74-1.52l-.39-1.56H80.07a4.07,4.07,0,0,1-4-3.14l-.77-3.3-2.18-3.84-12.76-4.52a4.09,4.09,0,0,1-2.66-3.18l-.33-2.06-4.06,3a4.12,4.12,0,0,1-2.84.78L41.73,98a4.06,4.06,0,0,1-3.65-3.82l-4.67-1.35a4.07,4.07,0,0,1-2-1.37l-5.68-7.09A4.06,4.06,0,0,1,25,80.55l3-8.9a4.14,4.14,0,0,1,2.11-2.39l8.64-4.12a3.59,3.59,0,0,1,.51-.2l1.09-6.07-1.64-1.45a4.11,4.11,0,0,1-1.27-4l1.81-7.87a4.06,4.06,0,0,1,3.59-3.14l8.39-.78h.37a4,4,0,0,1,2.82,1.13l1.78,1.71h3.51l1-1.34L58.23,39a4,4,0,0,1,.31-4.55A4.1,4.1,0,0,1,62.88,33l5.27,1.52,8.56-3.89A4.11,4.11,0,0,1,80.6,31a4,4,0,0,1,1.87,3.42v5.49L84.94,43l6.31-1.34.89-1.21a4.09,4.09,0,0,1,3.92-1.6l6.24,1,4.37-7a4.07,4.07,0,0,1,3.46-1.91,4.14,4.14,0,0,1,3.53,2l6.45,11.23a4,4,0,0,1,.28,3.46l-1.16,3.09a4.05,4.05,0,0,1-2,2.22l-1.74.87a4,4,0,0,1,1.17,2l0,.21.61-.07,6.74-5a4.13,4.13,0,0,1,4.37-.32L137,55.23l3.32,1.47a4,4,0,0,1,.46.24l3.92,2.38H153a4.06,4.06,0,0,1,2.66,1l8.51,7.34,5.38.74A4.09,4.09,0,0,1,173,71.65L175.14,83a4.13,4.13,0,0,1-1,3.52l-14.77,16.23-.94,14.44a4.23,4.23,0,0,1-.53,1.76l-8.77,15.35a4.12,4.12,0,0,1-2.08,1.78l-8.71,3.33-13.59,5.86-.65,6a4.15,4.15,0,0,1-.58,1.7l-6.19,10.06-.23.33-3.61,4.76a3.86,3.86,0,0,1-1.72,1.32l-.1.31A3.92,3.92,0,0,1,111,171l-4.39,5.67A4.09,4.09,0,0,1,103.42,178.28Zm-45-85.65L59.13,97a2.66,2.66,0,0,0,1.73,2.07l13.26,4.7,2.57,4.58.79,3.39a2.66,2.66,0,0,0,2.59,2.06h3.86l.66,2.63a2.68,2.68,0,0,0,.48,1l1,1.33-1.41,6.4a2.65,2.65,0,0,0,0,1.05l1.29,7a2.67,2.67,0,0,0,2,2.1l5.55,1.29.57,2.84a2.67,2.67,0,0,0,1.82,2l1.48.45v2.94a2.65,2.65,0,0,0,.61,1.69l.64.78-10.08,12.5a2.71,2.71,0,0,0-.49,2.41,2.65,2.65,0,0,0,1.69,1.77l3.42,1.22,7,5.44.56.82v2.79a2.66,2.66,0,0,0,1.8,2.51,2.71,2.71,0,0,0,3-.89l4.39-5.67a2.61,2.61,0,0,0,.42-.81l.32-1,.36-.11a2.61,2.61,0,0,0,1.36-.94l3.62-4.77.14-.21,6.19-10.07a2.54,2.54,0,0,0,.38-1.1l.74-6.85,14.38-6.19,8.73-3.34a2.71,2.71,0,0,0,1.36-1.16l8.77-15.35a2.6,2.6,0,0,0,.34-1.15l1-14.94,15.1-16.59a2.75,2.75,0,0,0,.65-2.31h0l-2.19-11.35a2.67,2.67,0,0,0-2.25-2.13l-5.8-.79-8.82-7.62a2.69,2.69,0,0,0-1.74-.64h-8.67L140,58.15l-.3-.15-3.37-1.5-8.58-4.6a2.68,2.68,0,0,0-2.84.2l-7,5.26-2.24.27-.35-1.44a2.67,2.67,0,0,0-1.48-1.79l-1.35-.62,4.14-2.07a2.61,2.61,0,0,0,1.3-1.45l1.16-3.09a2.64,2.64,0,0,0-.18-2.26l-6.45-11.22a2.66,2.66,0,0,0-4.56-.08L103,41.4l-7.16-1.14a2.67,2.67,0,0,0-2.56,1.05l-1.2,1.63-7.71,1.64-3.32-4.23v-6a2.63,2.63,0,0,0-1.21-2.23A2.67,2.67,0,0,0,77.3,32l-9,4.1L62.49,34.4a2.66,2.66,0,0,0-3,3.88l2.88,5L60.4,45.9H55.59L53.4,43.8a2.68,2.68,0,0,0-2.09-.72l-8.38.77a2.66,2.66,0,0,0-2.34,2l-1.81,7.87a2.68,2.68,0,0,0,.83,2.59l2.24,2-1.4,7.78L40,66.2a3.11,3.11,0,0,0-.65.22l-8.64,4.12a2.71,2.71,0,0,0-1.37,1.56l-3,8.9a2.65,2.65,0,0,0,.45,2.5l5.67,7.09a2.74,2.74,0,0,0,1.34.9l5.69,1.64V94a2.66,2.66,0,0,0,2.39,2.64l8.77.9A2.64,2.64,0,0,0,52.5,97Zm44.29,83.65v-5.47l-1.14-1.66-7.52-5.8-4.59-1.58,11.71-14.52L99.35,145v-4.63l-3.25-1-.9-4.48L88,133.25l-1.4-7.56,1.64-7.43-1.7-2.18-1.06-4.25H79.51l-1-4.31-3-5.36L61.12,97.08l-1.3-7.91-8.7,6.44-9.68-1v-3.8l-1,.57-6.31-1.82L28.06,82l3.19-9.55,9.06-4.32h1.76L44,57.6l-3.37-3,2-8.78L51.82,45l3,2.86h6.58l3.26-4.49-4.4-7.58,8.16,2.36L79.1,33.27V41l4.48,5.72,9.62-2,1.91-2.58L104,43.53l6.18-9.89,7.21,12.54L116,49.85l-4.62,2.31-1.28,4.14,3.17-.23.9,3.71,4.47-.55,7.82-5.83,9,4.86,3.44,1.52,4.81,2.91h9.48l9.46,8.16,6.87.94L171.9,84l-15.81,17.37-1,15.78-9,15.71-9,3.44L121.62,143l-.87,8.13-6.28,10.2-3.65,4.83-1.13-.86,3.61-4.77,6.07-9.87.93-8.64,16.25-7,8.56-3.27,8.56-15,1-16,15.66-17.21-2-10.5-6.28-.86-9.37-8.1h-9.36L138.26,61l-3.4-1.51-8.29-4.45-7.4,5.52-6.1.74-.91-3.77-4,.29,2.07-6.7,4.67-2.33.94-2.52L110.1,36.4l-5.43,8.68-8.94-1.42L94,46,83,48.32l-5.33-6.8v-6l-9.16,4.16-5.27-1.52,3.09,5.32-4.23,5.83H54.24L51.3,46.46l-7.55.7-1.6,7,3.34,3L43.25,69.52H40.63L32.4,73.45,29.65,81.7,35,88.32l5.3,1.53,2.6-1.49v5l7.87.81,10.12-7.49L62.38,96l14.05,5,3.43,6.09.77,3.33h5.93l1.26,5,1.92,2.47L88,125.71l1.18,6.37,7.21,1.67.91,4.55,3.45,1.06v5.17l2.23,2.7L91.83,161.09l3,1.07,7.85,6.09,1.46,2.12v1.75l3.11-4,1.13.87Z"/><path class="cls-1" d="M135,107.94a1.58,1.58,0,0,0-.93-.28h-7.89c-.72,0-1.31.43-1.31,1v3.8a.86.86,0,0,0,.38.67,1.62,1.62,0,0,0,.93.28h7.89a1.58,1.58,0,0,0,.93-.28.84.84,0,0,0,.39-.67v-3.8A.84.84,0,0,0,135,107.94Z"/></svg>