<svg id="Layer_1" data-name="Layer 1" xmlns="http://www.w3.org/2000/svg" viewBox="0 0 200 200"><defs><style>.cls-1{fill:#e03c31;}</style></defs><path d="M124.77,32.3c-21.5,0-43.18,5.21-43.18,15.12V85.05a44.23,44.23,0,0,0-19-4.2,46,46,0,0,0-39.15,69.89A2.68,2.68,0,0,0,28,147.88a40.48,40.48,0,1,1,34.61,19.49A39.39,39.39,0,0,1,40.94,161a2.55,2.55,0,0,0-3.7.84,2.58,2.58,0,0,0,.84,3.69,46,46,0,0,0,24.7,7.22,45.18,45.18,0,0,0,24.53-7.22c7.39,4.54,21.5,7.22,37.46,7.22,21.5,0,43.18-5.2,43.18-15.11V47.42c0-9.91-21.67-15.12-43.17-15.12Zm37.8,103.32c0,3.36-13.27,9.74-37.8,9.74a101.16,101.16,0,0,1-19.49-1.68,43,43,0,0,0,3.19-16.13,125.22,125.22,0,0,0,16.3,1c15,0,30.07-2.52,37.8-7.39Zm-37.8-97.95c24.53,0,37.8,6.39,37.8,9.75s-13.27,9.74-37.8,9.74S87,50.78,87,47.42,100.24,37.67,124.77,37.67ZM87,87.91V55.15c7.73,4.87,22.85,7.39,37.8,7.39s30.07-2.52,37.8-7.39V69.43c0,3.36-13.27,9.74-37.8,9.74a105.81,105.81,0,0,1-21.5-2,2.74,2.74,0,1,0-1,5.38,117.54,117.54,0,0,0,22.51,2c15,0,30.07-2.52,37.8-7.4v36.29c0,3.36-13.27,9.75-37.8,9.75A103.94,103.94,0,0,1,108.31,122a48.16,48.16,0,0,0-5.38-17.47,125.63,125.63,0,0,0,21.84,1.85,116.36,116.36,0,0,0,22.51-2,2.74,2.74,0,1,0-1-5.38,105.81,105.81,0,0,1-21.5,2,108.57,108.57,0,0,1-26.21-3A55.17,55.17,0,0,0,87,87.91Zm37.8,79.46c-15,0-26.38-2.52-32.59-5.38a49,49,0,0,0,10.92-13.27,123.44,123.44,0,0,0,21.84,2c14.95,0,30.07-2.52,37.8-7.39v14.28c-.17,3.19-13.61,9.74-38,9.74Z"/><path d="M98.23,79a2.71,2.71,0,0,0-1.68-3.36,22.2,22.2,0,0,1-3-1.17,2.71,2.71,0,0,0-2,5A17.39,17.39,0,0,0,95,80.68a1.52,1.52,0,0,0,.84.17A2.83,2.83,0,0,0,98.23,79Z"/><path d="M153.83,102.86a1.48,1.48,0,0,0,.84-.17c1.18-.34,2.36-.84,3.53-1.18a2.71,2.71,0,0,0-2-5,22.27,22.27,0,0,0-3,1.18,2.71,2.71,0,0,0-1.68,3.36,2.35,2.35,0,0,0,2.35,1.85Z"/><path d="M32.54,153.93a2.74,2.74,0,1,0-4,3.7c.67.67,1.17,1.34,1.84,2a2.46,2.46,0,0,0,3.7,0,2.84,2.84,0,0,0,0-3.86,15.34,15.34,0,0,0-1.51-1.85Z"/><path class="cls-1" d="M62.61,141.5c-4.37,0-8.06-2.69-8.06-6.05a2.69,2.69,0,0,0-5.38,0c0,5.54,4.7,10.08,10.75,11.09v4.53a2.69,2.69,0,0,0,5.38,0v-4.53c6.21-1,10.75-5.71,10.75-11.09,0-6.22-6-11.42-13.44-11.42-4.37,0-8.06-2.69-8.06-6s3.69-6,8.06-6,8.06,2.69,8.06,6a2.69,2.69,0,0,0,5.38,0c0-5.55-4.7-10.08-10.75-11.09v-4.54a2.69,2.69,0,0,0-5.38,0v4.54c-6.21,1-10.75,5.71-10.75,11.09,0,6.21,6,11.42,13.44,11.42,4.37,0,8.06,2.69,8.06,6S67,141.5,62.61,141.5Z"/><path class="cls-1" d="M25.82,83.87a2.65,2.65,0,0,0,2.69-2.68V58.51a2.69,2.69,0,0,0-5.38,0V81.19a2.55,2.55,0,0,0,2.69,2.68Z"/><path class="cls-1" d="M25.82,50.11a2.66,2.66,0,0,0,2.69-2.69V37.84a2.69,2.69,0,1,0-5.38,0v9.58A2.56,2.56,0,0,0,25.82,50.11Z"/><path class="cls-1" d="M48.33,73A2.65,2.65,0,0,0,51,70.27V33a2.69,2.69,0,0,0-5.38,0v37.3A2.55,2.55,0,0,0,48.33,73Z"/><path class="cls-1" d="M70.67,73a2.64,2.64,0,0,0,2.69-2.68V51.62a2.69,2.69,0,1,0-5.38,0V70.27A2.77,2.77,0,0,0,70.67,73Z"/><path class="cls-1" d="M70.67,45.57a2.65,2.65,0,0,0,2.69-2.69V41.37a2.69,2.69,0,1,0-5.37,0v1.51A2.76,2.76,0,0,0,70.67,45.57Z"/></svg>