<svg id="Layer_1" data-name="Layer 1" xmlns="http://www.w3.org/2000/svg" viewBox="0 0 200 200"><defs><style>.cls-1{fill:#e03c31;}</style></defs><path class="cls-1" d="M147.51,101c8.08,0,14.64-6.56,14.64-14.13a14.64,14.64,0,0,0-14.64-14.63c-7.56,0-14.12,6.56-14.12,14.63A14.44,14.44,0,0,0,147.51,101Zm0-24.22A10.12,10.12,0,0,1,157.6,86.85c0,5-4.54,9.59-10.09,9.59a9.93,9.93,0,0,1-9.58-9.59C137.93,81.3,142.47,76.76,147.51,76.76Z"/><path d="M153.06,102H142.47c-13.12,0-23.71,10.09-23.71,23.2a2.27,2.27,0,1,0,4.54,0c0-10.59,8.57-18.66,19.17-18.66h10.59c10.6,0,19.18,8.07,19.18,18.66a2.27,2.27,0,1,0,4.54,0C176.78,112.08,166.18,102,153.06,102Z"/><path class="cls-1" d="M102.61,47C94.54,47,88,53.05,88,61.12c0,7.57,6.56,14.12,14.63,14.12a14.43,14.43,0,0,0,14.13-14.12A14.11,14.11,0,0,0,102.61,47Zm0,23.72c-5.54,0-10.09-4.54-10.09-9.59,0-5.55,4.54-9.59,10.09-9.59a9.58,9.58,0,0,1,9.59,9.59A9.92,9.92,0,0,1,102.61,70.71Z"/><path class="cls-1" d="M57.21,72.22c-8.07,0-14.13,6.56-14.13,14.63A14.1,14.1,0,0,0,57.21,101,14.42,14.42,0,0,0,71.33,86.85C71.33,78.78,64.78,72.22,57.21,72.22Zm0,24.21a9.58,9.58,0,0,1-9.59-9.58c0-5.55,4-10.09,9.59-10.09,5,0,9.58,4.54,9.58,10.09A9.92,9.92,0,0,1,57.21,96.43Z"/><path class="cls-1" d="M101.61,100a14.43,14.43,0,0,0-14.13,14.12,14.11,14.11,0,0,0,14.13,14.13c8.07,0,14.63-6.06,14.63-14.13C116.24,106.53,109.68,100,101.61,100Zm0,23.71A9.58,9.58,0,0,1,92,114.09a9.92,9.92,0,0,1,9.59-9.58c5.54,0,10.09,4.54,10.09,9.58C111.7,119.64,107.16,123.68,101.61,123.68Z"/><path d="M81.93,125.19a2.27,2.27,0,1,0,4.54,0A24,24,0,0,0,62.26,102H51.66A23.91,23.91,0,0,0,28,125.19a2.27,2.27,0,1,0,4.54,0,19.39,19.39,0,0,1,19.17-18.67h10.6A19.5,19.5,0,0,1,81.93,125.19Z"/><path d="M77.9,99.46c0-10.59,8.57-18.67,19.17-18.67h10.59c10.59,0,19.17,8.08,19.17,18.67.51,3,5,3,4.54,0,0-13.12-10.59-23.2-23.71-23.2H97.07a23.91,23.91,0,0,0-23.72,23.2A2.28,2.28,0,0,0,77.9,99.46Z"/><path d="M107.16,129.23H96.56c-13.12,0-23.71,10.59-23.71,23.21a2.27,2.27,0,0,0,4.54,0c0-10.09,8.58-18.67,19.17-18.67h10.6c10.59,0,19.17,8.58,19.17,18.67a2.27,2.27,0,0,0,4.54,0C130.87,139.82,119.77,129.23,107.16,129.23Z"/></svg>