<svg id="Layer_1" data-name="Layer 1" xmlns="http://www.w3.org/2000/svg" viewBox="0 0 200 200"><defs><style>.cls-1{fill:#e03c31;}</style></defs><path d="M123.63,51.15H81.69a9.32,9.32,0,0,1-9.32-9.32V32.51a9.32,9.32,0,0,1,9.32-9.32h41.94A9.32,9.32,0,0,1,133,32.51v9.32a9.32,9.32,0,0,1-9.32,9.32ZM81.69,27.85A4.68,4.68,0,0,0,77,32.51v9.32a4.66,4.66,0,0,0,4.66,4.66h41.94a4.64,4.64,0,0,0,4.66-4.66V32.51a4.66,4.66,0,0,0-4.66-4.66Z"/><path d="M146.93,172.31H58.4A9.3,9.3,0,0,1,49.08,163V44.16a9.3,9.3,0,0,1,9.32-9.32h9.31a2.33,2.33,0,1,1,0,4.66H58.4a4.66,4.66,0,0,0-4.66,4.66V163a4.66,4.66,0,0,0,4.66,4.66h88.53a4.66,4.66,0,0,0,4.66-4.66V44.16a4.66,4.66,0,0,0-4.66-4.66h-9.32a2.33,2.33,0,0,1,0-4.66h9.32a9.32,9.32,0,0,1,9.32,9.32V163a9.32,9.32,0,0,1-9.32,9.32Z"/><path d="M142.27,160.66H63.05a2.34,2.34,0,0,1-2.33-2.33V44.16a2.33,2.33,0,0,1,4.66,0V156h74.56V44.16a2.33,2.33,0,1,1,4.66,0V158.33a2.32,2.32,0,0,1-.68,1.65A2.36,2.36,0,0,1,142.27,160.66Z"/><path class="cls-1" d="M116.64,62.8a7,7,0,0,0-7,7v2.33a6.9,6.9,0,0,1-1.29,4A7,7,0,0,1,105,78.68V62.8a2.33,2.33,0,1,0,0-4.66h-4.66a2.33,2.33,0,1,0,0,4.66V78.68a7,7,0,0,1-4.66-6.56V69.79a7,7,0,0,0-7-7,2.33,2.33,0,0,0,0,4.66,2.36,2.36,0,0,1,1.65.68A2.32,2.32,0,0,1,91,69.79v2.33a11.67,11.67,0,0,0,9.32,11.42v4.89a2.33,2.33,0,0,0,0,4.66H105a2.33,2.33,0,0,0,0-4.66V83.54a11.67,11.67,0,0,0,9.32-11.42V69.79a2.34,2.34,0,0,1,2.33-2.33,2.33,2.33,0,1,0,0-4.66Z"/><path d="M123.63,114.06H81.69a7,7,0,0,1-7-7v-2.33a7,7,0,0,1,7-7h35a2.33,2.33,0,0,1,0,4.66H81.69a2.33,2.33,0,0,0-2.33,2.33v2.33a2.33,2.33,0,0,0,.69,1.65,2.3,2.3,0,0,0,1.64.68h41.94a2.32,2.32,0,0,0,2.33-2.33v-2.33a2.32,2.32,0,0,0-.68-1.65,2.36,2.36,0,0,0-1.65-.68,2.33,2.33,0,0,1,0-4.66,7,7,0,0,1,7,7v2.33a7,7,0,0,1-7,7Z"/><path class="cls-1" d="M126,125.71H79.36a2.33,2.33,0,1,1,0-4.66H126a2.33,2.33,0,1,1,0,4.66Z"/><path class="cls-1" d="M126,135H79.36a2.33,2.33,0,1,1,0-4.66H126a2.33,2.33,0,1,1,0,4.66Z"/><path class="cls-1" d="M126,144.35H79.36a2.33,2.33,0,0,1,0-4.66H126a2.33,2.33,0,0,1,0,4.66Z"/></svg>