<svg id="Layer_1" data-name="Layer 1" xmlns="http://www.w3.org/2000/svg" viewBox="0 0 200 200"><defs><style>.cls-1{fill:#e03c31;}</style></defs><path d="M156.58,115.83a68.79,68.79,0,1,0-48.16,47.47,36.26,36.26,0,1,0,48.16-47.47Zm-14.88-3.24a36.17,36.17,0,0,0-13.11,2.48,117.83,117.83,0,0,0,1.31-15.52h24.16a63.84,63.84,0,0,1-2.23,14.5,36.16,36.16,0,0,0-10.13-1.46ZM55.13,132.54l-1.47.91c-.43.27-.85.56-1.27.84s-1,.66-1.43,1-.82.59-1.23.89l-1.39,1.08c-.39.3-.79.62-1.18.94s-.92.77-1.38,1.18l-1.11,1-.33.3A63,63,0,0,1,27.13,99.55H51.29a108.47,108.47,0,0,0,5.35,32.1l-.19.12c-.45.25-.89.51-1.32.77ZM44.32,53.6c.12.1.24.2.34.3.37.34.74.66,1.11,1s.92.79,1.39,1.18l1.16.92c.47.37.94.74,1.41,1.09l1.21.87c.49.34,1,.69,1.45,1s.84.56,1.26.82,1,.63,1.48.93.85.52,1.29.77a2.12,2.12,0,0,1,.2.12,108.3,108.3,0,0,0-5.34,31.94H27.14A62.88,62.88,0,0,1,44.32,53.6Zm81.75,8.1c.5-.3,1-.6,1.48-.92s.84-.54,1.26-.83,1-.67,1.44-1,.81-.57,1.21-.88.94-.72,1.41-1.09.78-.6,1.16-.92l1.4-1.18,1.11-1c.11-.1.23-.2.33-.31a63.06,63.06,0,0,1,17.21,40.91H129.92a108.19,108.19,0,0,0-5.35-31.94l.21-.11,1.29-.76Zm-38,61H87.3c-.37,0-.74,0-1.09.09-.73.05-1.47.08-2.19.15-.44,0-.86.1-1.29.15q-1,.1-2,.24c-.47.06-.93.15-1.38.21l-1.83.32-1.43.3c-.59.12-1.18.26-1.75.39L73,125c-.57.15-1.12.3-1.69.47s-1,.29-1.43.44-1.11.35-1.65.54-1,.33-1.43.52l-1.59.6-1.41.59-1.57.69c-.38.17-.77.35-1.14.54a106.18,106.18,0,0,1-4.72-29.79H88.09ZM56.34,94.51a105.47,105.47,0,0,1,4.72-29.6l1.14.54c.52.23,1.06.47,1.58.68s.92.39,1.39.58l1.61.62c.47.16,1,.35,1.42.5s1.1.37,1.66.54l1.41.44,1.7.47c.47.13,1,.25,1.42.36l1.75.39,1.41.3c.61.12,1.23.22,1.83.32l1.38.22c.66.1,1.3.17,1.95.24l1.3.15c.72.06,1.46.11,2.18.15.37,0,.74.06,1.09.08s.52,0,.79,0v23H56.33Zm36.79-23c.27,0,.52,0,.79,0L95,71.43c.72-.05,1.46-.09,2.18-.15.44,0,.86-.11,1.3-.16.65-.06,1.31-.15,2-.23l1.37-.22c.61-.1,1.23-.2,1.84-.32s.94-.2,1.41-.3,1.17-.25,1.74-.39,1-.25,1.43-.37,1.15-.3,1.7-.47.94-.28,1.41-.43l1.66-.54,1.41-.5c.54-.21,1.08-.41,1.62-.63s.92-.38,1.39-.57,1.06-.45,1.58-.69.76-.35,1.14-.53a105.59,105.59,0,0,1,4.72,29.6H93.13Zm25-11.24c-.4.2-.81.38-1.23.57l-1.49.65c-.42.17-.84.36-1.25.52s-1,.41-1.53.59l-1.27.46c-.52.18-1,.35-1.57.5l-1.29.4c-.54.15-1.06.31-1.6.44s-.85.24-1.29.34l-1.65.37-1.27.26c-.57.1-1.15.21-1.72.29s-.84.15-1.26.2c-.6.09-1.21.15-1.79.22-.41.05-.79.1-1.2.13-.67.07-1.34.11-2,.16-.34,0-.67,0-1,.06-.18,0-.35,0-.54,0V33.78c10.43,1.41,19.57,11.47,25.33,26.34l-.35.17Zm-30-26.51V66.49a4.78,4.78,0,0,1-.54,0l-1-.07c-.67-.05-1.36-.08-2-.15-.4,0-.81-.1-1.19-.13l-1.8-.22-1.26-.2-1.72-.29c-.43-.08-.85-.18-1.27-.27s-1.11-.23-1.65-.37-.86-.21-1.29-.33L72.73,64c-.44-.12-.86-.27-1.29-.4l-1.56-.51-1.28-.45c-.51-.18-1-.39-1.53-.59s-.84-.33-1.24-.52l-1.5-.65-1.23-.57-.35-.19c5.76-14.87,14.9-24.93,25.34-26.34Zm-25,100.16,1.2-.57c.51-.24,1-.46,1.52-.67s.82-.36,1.22-.51l1.55-.59,1.26-.45,1.58-.52c.42-.13.84-.27,1.28-.39s1.07-.3,1.61-.43l1.28-.34,1.66-.37c.42-.08.84-.18,1.26-.27s1.14-.2,1.73-.3c.42-.07.82-.15,1.24-.2.61-.09,1.21-.15,1.82-.22.4-.05.79-.1,1.19-.13.67-.07,1.34-.1,2-.15.34,0,.67-.06,1-.07.19,0,.35,0,.54,0v32.71C77.66,159,68.52,149,62.75,134.11a2,2,0,0,0,.36-.17Zm42.32,14.92a35.92,35.92,0,0,0,.37,5.07,23.68,23.68,0,0,1-12.67,6.52V127.76a63.44,63.44,0,0,1,17.15,3,36,36,0,0,0-4.85,18.05Zm7.77-22.38a68.49,68.49,0,0,0-20.07-3.78V99.55h31.74A112.44,112.44,0,0,1,123,117.83a36.29,36.29,0,0,0-9.81,8.65Zm20.08-76.42c-.07.06-.13.13-.22.2-.3.27-.6.53-.92.79s-.92.8-1.4,1.17-.67.52-1,.79-.92.72-1.39,1.08l-1.06.75c-.47.34-.92.66-1.39,1s-.74.49-1.11.72-.94.6-1.43.89c-.19.12-.39.22-.57.34-3.65-9.06-8.52-16.48-14.2-21.61a63.28,63.28,0,0,1,24.68,13.9ZM58.4,57.77c-.18-.12-.38-.22-.57-.34l-1.43-.89-1.1-.72c-.47-.32-.95-.64-1.4-1l-1.06-.75c-.47-.35-.92-.71-1.39-1.08s-.67-.52-1-.79-.93-.79-1.4-1.17c-.3-.27-.62-.52-.92-.79a2.09,2.09,0,0,0-.22-.2A63,63,0,0,1,72.58,36.18C66.92,41.29,62.05,48.73,58.4,57.77ZM47.94,144.19a1.49,1.49,0,0,1,.22-.21l.9-.79c.47-.4.93-.8,1.41-1.19.32-.27.66-.52,1-.77s.92-.72,1.39-1.08l1.06-.75q.7-.51,1.41-1c.37-.26.74-.47,1.09-.73l1.43-.9.55-.34c3.65,9.06,8.52,16.48,14.2,21.61a62.87,62.87,0,0,1-24.66-13.86Zm93.76,35.9a31.07,31.07,0,0,1-30.85-26.28,32.74,32.74,0,0,1-.38-5,31.23,31.23,0,1,1,31.23,31.24Z"/><path class="cls-1" d="M141.7,136a5.16,5.16,0,0,1,5.16,5.15,2.52,2.52,0,0,0,5,0,10.21,10.21,0,0,0-7.68-9.87V128.4a2.52,2.52,0,0,0-5,0v2.89a10.19,10.19,0,0,0,2.52,20.07,5.16,5.16,0,1,1-5.16,5.16,2.52,2.52,0,1,0-5,0,10.23,10.23,0,0,0,7.68,9.88v2.89a2.52,2.52,0,0,0,5,0V166.4a10.2,10.2,0,0,0-2.52-20.08,5.16,5.16,0,1,1,0-10.31Z"/></svg>