<?xml version="1.0" encoding="utf-8"?>
<!-- Generator: Adobe Illustrator 25.4.1, SVG Export Plug-In . SVG Version: 6.00 Build 0)  -->
<svg version="1.1" id="Camada_1" xmlns="http://www.w3.org/2000/svg" xmlns:xlink="http://www.w3.org/1999/xlink" x="0px" y="0px"
	 viewBox="0 0 1920 1080" style="enable-background:new 0 0 1920 1080;" xml:space="preserve">
<style type="text/css">
	.st0{fill:#E03C31;}
	.st1{fill:none;stroke:#000000;stroke-width:5;stroke-miterlimit:10;}
	.st2{fill:#FFFFFF;}
	.st3{font-family:'BebasNeue-Regular';}
	.st4{font-size:32.5686px;}
</style>
<g>
	<path d="M958.25,335.53c-1.99-2.98-5.34-4.77-8.92-4.77h-27.24l-61.13-71.33c-2.04-2.38-5.02-3.75-8.15-3.74h-37.16l-18.23-27.4
		c-1.99-2.99-5.36-4.78-8.95-4.77h-42.9c-3.18,0-6.2,1.42-8.24,3.86l-50.41,60.49h-27.16c-3.38,0-6.55,1.59-8.58,4.29l-28.96,38.61
		h-37.54c-3.59,0-6.93,1.79-8.92,4.77l-39.71,59.58h-90.79v21.45h88.15l40.87,163.48c1.2,4.77,5.49,8.12,10.4,8.12h24.03
		l51.48,185.19c1.28,4.63,5.49,7.84,10.29,7.85H705l19.42,77.68h0c1.2,4.77,5.49,8.12,10.4,8.12h64.35c4.92,0,9.21-3.35,10.4-8.12
		l40.87-163.48h23.8c4.74,0,8.92-3.11,10.27-7.65l29.88-99.6h34.92c4.92,0,9.21-3.35,10.4-8.12l40.87-163.48h88.15v-21.45h-90.79
		L958.25,335.53z M590.41,352.2h31.42l18.23,27.4l17.85-11.9l-17.25-25.86l24.45-32.54h80.44v-21.45h-30.73l35.75-42.9h32.17
		l18.23,27.4c1.99,2.98,5.34,4.77,8.92,4.77h37.97l45.97,53.62h-19.59c-3.59,0-6.93,1.79-8.92,4.77l-21.45,32.17l17.85,11.9
		l18.27-27.4h63.6l28.59,42.9H561.82L590.41,352.2z M940.95,566.7h-27.09l-29.56-78.84l-20.1,7.51l30.91,82.42l-28.84,96.16h-77.82
		v21.45h39.89L790.8,845.55h-47.6l-19.42-77.68c-1.2-4.77-5.49-8.12-10.4-8.12h-34.75l-47.67-171.6h39.52
		c4.47,0,8.48-2.77,10.05-6.96l29.56-78.84h24.74c3.76,0,7.25-1.97,9.19-5.2l32.17-53.62l-18.38-11.05l-29.06,48.42h-69v21.45h27.43
		l-24.13,64.35h-69.99l-37.54-150.15h422.98L940.95,566.7z"/>
	<path d="M780.14,324.6l-32.17,42.9l17.16,12.87l28.96-38.61h37.54v-21.45h-42.9C785.35,320.31,782.17,321.9,780.14,324.6z"/>
	<path d="M713.65,631.33v21.45h53.62c4.39,0,8.33-2.66,9.96-6.74l42.9-107.25l-19.93-7.98l-40.19,100.52L713.65,631.33z"/>
	<path class="st0" d="M456.25,502.63h75.07v21.45h-75.07V502.63z"/>
	<path class="st0" d="M488.43,631.33h75.07v21.45h-75.07V631.33z"/>
	<path class="st0" d="M584.95,631.33h21.45v21.45h-21.45V631.33z"/>
	<path class="st0" d="M1013.95,524.08h53.62v21.45h-53.62V524.08z"/>
	<path class="st0" d="M949.6,642.05h42.9v21.45h-42.9V642.05z"/>
	<path class="st0" d="M1013.95,642.05h64.35v21.45h-64.35V642.05z"/>
	<path class="st0" d="M542.05,738.58h64.35v21.45h-64.35V738.58z"/>
	<path class="st0" d="M584.95,781.48h42.9v21.45h-42.9V781.48z"/>
	<path class="st0" d="M895.97,813.65h64.35v21.45h-64.35V813.65z"/>
	<path class="st0" d="M949.6,770.75h64.35v21.45H949.6V770.75z"/>
	<path class="st0" d="M542.05,835.1h42.9v21.45h-42.9V835.1z"/>
	<path class="st0" d="M488.43,556.26h21.45v21.45h-21.45V556.26z"/>
	<path class="st0" d="M1046.12,470.46h21.45v21.45h-21.45V470.46z"/>
</g>
<rect x="445" y="395" class="st0" width="644" height="22"/>
<polyline class="st1" points="1121.89,399 1142.86,399 1142.86,227.5 1121.89,227.5 "/>
<polyline class="st1" points="1121.89,867 1142.86,867 1142.86,412.5 1121.89,412.5 "/>
<line class="st1" x1="1142.86" y1="313.25" x2="1164" y2="313.25"/>
<line class="st1" x1="1142.86" y1="640.25" x2="1164" y2="640.25"/>
<rect x="1197" y="259" class="st0" width="247" height="109"/>
<rect x="1197" y="585" class="st0" width="247" height="109"/>
<g>
	<g>
		<text transform="matrix(1 0 0 1 1279.3018 294.6831)"><tspan x="0" y="0" class="st2 st3 st4">doença</tspan><tspan x="-33.95" y="29.85" class="st2 st3 st4">de alzheimer</tspan></text>
	</g>
	<g>
		<text transform="matrix(1 0 0 1 1279.8389 356.4858)" class="st2 st3 st4">clínica</text>
	</g>
</g>
<g>
	<text transform="matrix(1 0 0 1 1279.3018 620.6831)"><tspan x="0" y="0" class="st2 st3 st4">doença</tspan><tspan x="-33.95" y="29.85" class="st2 st3 st4">de alzheimer</tspan></text>
</g>
<g>
	<text transform="matrix(1 0 0 1 1255.0547 682.4858)" class="st2 st3 st4">pré-clínica</text>
</g>
</svg>
