<svg id="Camada_1" data-name="Camada 1" xmlns="http://www.w3.org/2000/svg" viewBox="0 0 1080 1080"><defs><style>.cls-1{font-size:30.97px;fill:#1d1d1b;font-family:SourceSansPro-Regular, Source Sans Pro;}.cls-2{letter-spacing:-0.02em;}.cls-3{letter-spacing:-0.01em;}.cls-4{letter-spacing:1.04em;}.cls-5{letter-spacing:1.68em;}.cls-6{letter-spacing:-0.02em;}.cls-7{letter-spacing:-0.01em;}.cls-8{letter-spacing:-0.01em;}.cls-9{letter-spacing:-0.02em;}.cls-10{letter-spacing:-0.01em;}.cls-11{fill:#e03c31;}.cls-12,.cls-16{fill:none;}.cls-12{stroke:#e03c31;stroke-width:6px;}.cls-12,.cls-13,.cls-16,.cls-17{stroke-miterlimit:10;}.cls-13,.cls-16,.cls-17{stroke:#fff;}.cls-13{stroke-width:13px;}.cls-14{font-size:100px;letter-spacing:0.03em;}.cls-14,.cls-15{font-family:BebasNeue-Regular, Bebas Neue;}.cls-15{font-size:48.81px;letter-spacing:0.02em;}.cls-17{fill:#fff;}</style></defs><text class="cls-1" transform="translate(461.16 676.23)">Dificuldade na <tspan class="cls-2" x="192.48" y="0">c</tspan><tspan x="205.95" y="0">omp</tspan><tspan class="cls-3" x="265.6" y="0">r</tspan><tspan x="276.04" y="0">eensão</tspan><tspan class="cls-4" x="369.07" y="0">	</tspan><tspan class="cls-5" x="407.43" y="0">	</tspan><tspan x="0" y="38.96">de situa</tspan><tspan class="cls-2" x="102.26" y="38.96">ç</tspan><tspan x="115.73" y="38.96">ões de ris</tspan><tspan class="cls-6" x="237.14" y="38.96">c</tspan><tspan x="250.61" y="38.96">o</tspan><tspan x="0" y="104.9">Menor </tspan><tspan class="cls-3" x="88.54" y="104.9">c</tspan><tspan x="102.36" y="104.9">a</tspan><tspan class="cls-7" x="117.97" y="104.9">p</tspan><tspan x="134.72" y="104.9">acidade </tspan><tspan class="cls-8" x="243.61" y="104.9">p</tspan><tspan x="260.37" y="104.9">a</tspan><tspan class="cls-9" x="275.98" y="104.9">r</tspan><tspan x="285.98" y="104.9">a cuidar das </tspan><tspan x="0" y="143.86">finan</tspan><tspan class="cls-3" x="66.15" y="143.86">ç</tspan><tspan x="79.97" y="143.86">as, </tspan><tspan class="cls-7" x="122.46" y="143.86">t</tspan><tspan x="132.49" y="143.86">omar decisões e planejar </tspan><tspan class="cls-8" x="0" y="182.83">a</tspan><tspan x="15.18" y="182.83">tividades </tspan><tspan class="cls-2" x="139.86" y="182.83">c</tspan><tspan x="153.33" y="182.83">ompl</tspan><tspan class="cls-10" x="220.88" y="182.83">e</tspan><tspan class="cls-3" x="236.02" y="182.83">x</tspan><tspan x="249.53" y="182.83">as ou sequenciais </tspan></text><rect class="cls-11" x="431.92" y="660.32" width="11.99" height="11.99"/><rect class="cls-11" x="431.92" y="764.22" width="11.99" height="11.99"/><line class="cls-12" x1="426.81" y1="303" x2="810" y2="303"/><path class="cls-13" d="M96.06,957a16.52,16.52,0,0,1-16.52-16.52V441.8c0-67.66-27.92-133.86-76.61-181.63-92.94-95.23-254.54-92.3-345.16,3.23C-389.87,311-412.47,374.49-413.59,441l-72.36,221.17h91.07a16.52,16.52,0,0,1,16.52,16.52V778.4a30.19,30.19,0,0,0,30.16,30.16h98a54.41,54.41,0,0,1,54.35,54.35v77.57A16.51,16.51,0,0,1-212.36,957a16.51,16.51,0,0,1-16.52-16.52V862.91A21.34,21.34,0,0,0-250.2,841.6c-145.21.88-167.83,13.28-161.2-146.37h-81.23a28.26,28.26,0,0,1-22.82-11.65,28.25,28.25,0,0,1-4-25.31l73.62-225.06C-449.38,194.61-141.36,63,26.07,236.59c55,53.94,86.51,128.74,86.51,205.21V940.48A16.52,16.52,0,0,1,96.06,957Z"/><text class="cls-14" transform="translate(426.81 180.82)">FUNÇÕEs<tspan x="0" y="95.86">EXECUTIVAs</tspan></text><text class="cls-15" transform="translate(426.81 428.17)">Comprometimento da <tspan x="0" y="49.83">capacidade de raciocinar, </tspan><tspan x="0" y="99.67">realizar tarefas complexas </tspan><tspan x="0" y="149.5">e julgar, incluindo:</tspan></text><path class="cls-11" d="M352.24,667.16a11.51,11.51,0,1,1-9.06,21.16,5.77,5.77,0,0,0-7.56,3l-9.07,21.17L337.13,717l7.09-16.54a23,23,0,1,0-17.67-31.82l10.58,4.53a11.53,11.53,0,0,1,15.11-6.05"/><path class="cls-11" d="M325,730.64h0a5.75,5.75,0,1,0-3-7.56,5.76,5.76,0,0,0,3,7.56"/><path class="cls-11" d="M194.58,666.89a11.51,11.51,0,0,1,8.55,21.38,5.75,5.75,0,0,0-3.21,7.48l8.55,21.37,10.69-4.27-6.68-16.7a23,23,0,1,0-35-10l10.68-4.27a11.53,11.53,0,0,1,6.42-15"/><path class="cls-11" d="M220.23,731h0a5.75,5.75,0,1,0-7.49-3.2,5.75,5.75,0,0,0,7.49,3.2"/><path class="cls-11" d="M291.14,653.51a5.34,5.34,0,0,1-2-.39,5.41,5.41,0,0,1-3-7l3.78-9.56a5.41,5.41,0,1,1,10.06,4l-3.78,9.55A5.41,5.41,0,0,1,291.14,653.51Z"/><path class="cls-11" d="M252.23,653.5a5.42,5.42,0,0,1-4.53-2.44l-5.64-8.6a5.41,5.41,0,0,1,9.06-5.93l5.63,8.6a5.4,5.4,0,0,1-4.52,8.37Z"/><path class="cls-11" d="M271.19,647.32a5.41,5.41,0,0,1-5.41-5.23l-.38-11.31a5.41,5.41,0,0,1,10.81-.37l.39,11.31a5.43,5.43,0,0,1-5.23,5.6Z"/><path d="M258.62,874H258c-2.91,0-6-.11-9.06-.33A21.61,21.61,0,0,1,234,866.2l-.06-.07a5.26,5.26,0,0,1-10.37-1.24V827.7a5.26,5.26,0,0,1,7.77-4.61,16.93,16.93,0,0,0,8.15,2.15h.15c5,0,9.89-2.21,14.19-6.31,5.09-4.94,9.36-11.67,14.68-23.18l0-.06c5.1-11.23,10.32-25.67,16-44.13A11.3,11.3,0,0,0,285,749a5.26,5.26,0,0,1,5.25-4.94h34.59a18.42,18.42,0,0,1,18.37,16.58c.12,1.12.46,5.09.46,10.95a146.45,146.45,0,0,1-2.85,29c0,.19-.08.37-.13.56-.24,1.13-.5,2.25-.75,3.3-3.45,14.48-9.18,26.9-17.06,37a5.16,5.16,0,0,1,.62,2.46v21a5.26,5.26,0,0,1-5.25,5.26h0a5.26,5.26,0,0,1-5.26-5.26v-8.66C298.63,867.75,279.7,874,258.62,874Zm-8.79-14.12h.11c2.75.2,5.47.3,8.07.3h.62c21.27,0,39.77-7.34,52.08-20.68,9.1-9.74,15.3-22,19-37.51.23-1,.48-2.07.7-3.11,0,0,0,0,0-.07l.09-.36a135.82,135.82,0,0,0,2.64-26.9c0-5.38-.31-8.92-.4-9.88a7.94,7.94,0,0,0-7.92-7.13H294.63l0,.09c-5.8,19-11.19,33.85-16.5,45.51l-.06.13c-5.88,12.71-10.78,20.31-16.88,26.24a37.94,37.94,0,0,1-4.83,3.91l1.68,0c17.89-.14,25.77-5.84,31.12-11.4,7.22-7.62,10.65-18.66,12.25-26.57a5.26,5.26,0,0,1,6.86-3.92l3.14,1.07a5.26,5.26,0,0,1,3.45,6c-2,9.55-6.33,23-15.71,32.93-10.3,10.7-23,15.52-41.07,15.67h0c-2.27,0-4.6-.09-7-.26a8,8,0,0,0-1.25,15.88Zm-15.7-24.68v2.42a21.49,21.49,0,0,1,2.08-2.08C235.51,835.46,234.82,835.34,234.13,835.2Zm96.37-36.64s0,0,0,.05S330.5,798.58,330.5,798.56Z"/><path d="M261.05,743a5.16,5.16,0,0,1-1.77-.31,42.43,42.43,0,1,1,28.9-.12,5.25,5.25,0,0,1-5.83-1.54,11.16,11.16,0,0,0-8.58-4h0a11.19,11.19,0,0,0-8.67,4A5.27,5.27,0,0,1,261.05,743Zm12.5-72.19a31.92,31.92,0,0,0-13.73,60.74,21.74,21.74,0,0,1,13.95-5h0a21.87,21.87,0,0,1,6.38,1,21.44,21.44,0,0,1,7.38,4,31.93,31.93,0,0,0-14-60.63Z"/><path d="M239.53,832.45a25.18,25.18,0,0,1-16.17-6.16c-.28-.23-.53-.47-.79-.71l-.1-.09a35.82,35.82,0,0,1-6.8-8.81l0-.06a76.29,76.29,0,0,1-6.78-18q-.08-.23-.15-.54A196.82,196.82,0,0,1,203.86,764l0-.39a1.5,1.5,0,0,1,0-.2A18.48,18.48,0,0,1,222.27,744h33.48l.36-1.16.06-.2a18.48,18.48,0,0,1,35.28,11c-5.78,18.86-11.12,33.61-16.35,45.11-5.73,12.39-10.43,19.73-16.24,25.37-5.67,5.41-12.29,8.28-19.17,8.31Zm-14.71-21a25.38,25.38,0,0,0,4.81,6.28l.12.12.41.37.09.08a14.72,14.72,0,0,0,9.28,3.59h.13c4.18,0,8.19-1.83,11.91-5.38,4.78-4.64,8.84-11.07,14-22.17s10.22-25.39,15.85-43.8a8,8,0,0,0-15.23-4.66,1.09,1.09,0,0,1-.05.17c-6.87,22.53-13.52,39.82-19.21,50-.43.79-.9,1.61-1.38,2.39a5.25,5.25,0,0,1-9.46-1c-.45-1.29-.88-2.74-1.33-4.43a5.26,5.26,0,0,1,.3-3.54l2.07-4.5a.31.31,0,0,1,.05-.1,259.28,259.28,0,0,0,11.78-30.36H222.27a8,8,0,0,0-8,8.36h0q0,.2,0,.48a185.37,185.37,0,0,0,4.55,32.08l.06.21,0,.11A66.9,66.9,0,0,0,224.82,811.5ZM209,798.88ZM219,796.1Zm0,0h0Zm-15.19-32.42c0,.08,0,.14,0,.18A1.1,1.1,0,0,1,203.84,763.67Z"/><path d="M8.92,423.26c.76,26.57-28.16,46.95-52.95,37.51v66.72a8.82,8.82,0,0,1-8.83,8.82h-58.95a8.81,8.81,0,0,1-8.23-5.49c-3.53-10.33,12.13-14.22,8.28-29.6-2.45-15.1-21.43-23.06-33.91-14.2-11.5,7.26-13.2,24.92-3.12,34.11,5.75,5.18,1.55,15.49-6.17,15.18-92-.4-63.12,11.92-67.78-75.54-24.89,9.72-54-10.76-53.25-37.47-.74-26.7,28.36-47.18,53.25-37.46,4.7-87-24.36-75.3,67.78-75.54,7.73-.3,11.91,10,6.17,15.18-10.14,9.18-8.26,26.79,3.34,33.9,12.52,8.66,31.33.61,33.7-14.43,3.8-15.29-11.78-19.12-8.29-29.51a8.85,8.85,0,0,1,8.23-5.5h59A8.88,8.88,0,0,1-44,318.77v67.07c24.75-9.61,53.66,10.93,53,37.42Z"/><path d="M-214.37,327.71c-7.71.26-11.4-10.75-4.67-15L94.75,97.48a8.23,8.23,0,1,1,9.31,13.58C98.56,113.07-207.95,328.41-214.37,327.71Z"/><path d="M-50.54,536c-7.71.26-11.4-10.75-4.66-15l313.78-215.2a8.23,8.23,0,1,1,9.31,13.58C262.39,321.33-44.12,536.67-50.54,536Z"/><path d="M-51.9,416.31c-7.71.26-11.4-10.75-4.66-15l313.78-215.2a8.24,8.24,0,0,1,9.32,13.58C261,201.67-45.48,417-51.9,416.31Z"/><path class="cls-11" d="M325.78,207.61c.75,26.57-28.17,46.94-53,37.5v66.72a8.82,8.82,0,0,1-8.82,8.83H205a8.83,8.83,0,0,1-8.22-5.5c-3.54-10.32,12.13-14.22,8.27-29.59-2.44-15.11-21.43-23.06-33.91-14.2-11.49,7.26-13.2,24.91-3.11,34.11,5.75,5.17,1.54,15.48-6.18,15.18-92-.41-63.12,11.92-67.78-75.55-24.88,9.72-54-10.76-53.24-37.46-.75-26.7,28.36-47.19,53.24-37.47,4.7-87-24.36-75.29,67.78-75.54,7.73-.3,11.92,10,6.18,15.18-10.14,9.19-8.27,26.79,3.33,33.9,12.53,8.66,31.34.62,33.7-14.43,3.81-15.29-11.77-19.11-8.28-29.51A8.81,8.81,0,0,1,205,94.29h59a8.87,8.87,0,0,1,8.82,8.82v67.07c24.76-9.61,53.67,10.94,53,37.43Z"/><path class="cls-11" d="M255.17,303V229.22c-.21-7.63,9.9-11.76,15.09-6.17,17.61,18.36,47.86-4.54,34.91-26.48-6.78-12.47-25.31-14.81-34.91-4.32-5.18,5.59-15.31,1.45-15.09-6.18V112.29H220.84c9.61,24.81-10.82,53.76-37.42,53-26.6.74-47-28.2-37.42-53H111.76v73.78c.3,7.73-10,11.92-15.18,6.18C79.06,173.74,49,196.86,61.94,218.64c6.75,12.42,25.21,14.82,34.82,4.41,5.17-5.75,15.48-1.55,15.18,6.18V303h34.24c-9.6-24.82,10.82-53.76,37.42-53,26.6-.74,47,28.2,37.42,53Z"/><rect class="cls-11" x="-1080" y="1006" width="5400" height="74"/><rect class="cls-16" x="931.92" y="1035.87" width="12.3" height="12.3"/><rect class="cls-17" x="956.37" y="1035.87" width="12.3" height="12.3"/><rect class="cls-16" x="980.82" y="1035.87" width="12.3" height="12.3"/><rect class="cls-16" x="1005.27" y="1035.87" width="12.3" height="12.3"/><rect class="cls-16" x="1029.72" y="1035.87" width="12.3" height="12.3"/></svg>