<svg id="Camada_1" data-name="Camada 1" xmlns="http://www.w3.org/2000/svg" viewBox="0 0 1080 1080"><defs><style>.cls-1{font-size:100px;letter-spacing:0.03em;}.cls-1,.cls-3{font-family:BebasNeue-Regular, Bebas Neue;}.cls-17,.cls-2{fill:none;}.cls-2{stroke:#e03c31;stroke-width:6px;}.cls-17,.cls-18,.cls-2{stroke-miterlimit:10;}.cls-3{font-size:48.81px;letter-spacing:0.02em;}.cls-4{font-size:30.97px;fill:#1d1d1b;font-family:SourceSansPro-Regular, Source Sans Pro;}.cls-5{letter-spacing:-0.01em;}.cls-6{letter-spacing:-0.01em;}.cls-7{letter-spacing:-0.02em;}.cls-8{letter-spacing:-0.02em;}.cls-9{letter-spacing:-0.02em;}.cls-10{letter-spacing:-0.01em;}.cls-11{letter-spacing:-0.02em;}.cls-12{letter-spacing:-0.02em;}.cls-13{letter-spacing:0em;}.cls-14{letter-spacing:-0.01em;}.cls-15{letter-spacing:0em;}.cls-16{fill:#e03c31;}.cls-17,.cls-18{stroke:#fff;}.cls-18{fill:#fff;}</style></defs><text class="cls-1" transform="translate(108.95 180.82)">HABILIDADES<tspan x="0" y="95.86">VISUAIS-ESPACIAIS</tspan></text><line class="cls-2" x1="110" y1="303" x2="713" y2="303"/><text class="cls-3" transform="translate(109.36 428.17)">Questões que não são justificadas por <tspan x="0" y="49.83">deficiência visual ou motora, incluindo:</tspan></text><text class="cls-4" transform="translate(137.09 570.23)">In<tspan class="cls-5" x="25.09" y="0">c</tspan><tspan x="38.9" y="0">a</tspan><tspan class="cls-6" x="54.51" y="0">p</tspan><tspan x="71.26" y="0">acidade de </tspan><tspan class="cls-5" x="0" y="38.96">r</tspan><tspan x="10.44" y="38.96">e</tspan><tspan class="cls-7" x="25.8" y="38.96">c</tspan><tspan x="39.27" y="38.96">onhe</tspan><tspan class="cls-8" x="105.21" y="38.96">c</tspan><tspan x="118.68" y="38.96">er </tspan><tspan class="cls-5" x="150.98" y="38.96">r</tspan><tspan x="161.42" y="38.96">o</tspan><tspan class="cls-9" x="178.2" y="38.96">s</tspan><tspan class="cls-10" x="190.56" y="38.96">t</tspan><tspan x="200.59" y="38.96">os ou </tspan><tspan x="0" y="77.93">obj</tspan><tspan class="cls-5" x="41.56" y="77.93">e</tspan><tspan class="cls-6" x="56.61" y="77.93">t</tspan><tspan x="66.65" y="77.93">os </tspan><tspan class="cls-7" x="102.6" y="77.93">c</tspan><tspan x="116.08" y="77.93">omuns</tspan><tspan x="0" y="143.86">P</tspan><tspan class="cls-5" x="17.53" y="143.86">r</tspan><tspan x="27.97" y="143.86">oblemas </tspan><tspan class="cls-6" x="145.59" y="143.86">p</tspan><tspan x="162.35" y="143.86">a</tspan><tspan class="cls-11" x="177.96" y="143.86">r</tspan><tspan x="187.96" y="143.86">a en</tspan><tspan class="cls-7" x="242.06" y="143.86">c</tspan><tspan x="255.54" y="143.86">ont</tspan><tspan class="cls-12" x="299.73" y="143.86">r</tspan><tspan x="309.73" y="143.86">ar </tspan><tspan x="0" y="182.83">i</tspan><tspan class="cls-10" x="7.62" y="182.83">t</tspan><tspan class="cls-13" x="17.65" y="182.83">ens no </tspan><tspan class="cls-14" x="109.05" y="182.83">c</tspan><tspan x="122.86" y="182.83">ampo visual</tspan><tspan x="0" y="248.76">Dificuldade em manus</tspan><tspan class="cls-6" x="289.01" y="248.76">e</tspan><tspan x="303.94" y="248.76">ar </tspan><tspan x="0" y="287.73">u</tspan><tspan class="cls-10" x="16.85" y="287.73">t</tspan><tspan class="cls-13" x="26.88" y="287.73">ensílios ou </tspan><tspan class="cls-15" x="171.08" y="287.73">v</tspan><tspan x="185.42" y="287.73">e</tspan><tspan class="cls-9" x="200.78" y="287.73">s</tspan><tspan x="213.14" y="287.73">ti</tspan><tspan class="cls-12" x="231.22" y="287.73">r</tspan><tspan x="241.23" y="287.73">-se </tspan></text><rect class="cls-16" x="107.85" y="554.32" width="11.99" height="11.99"/><rect class="cls-16" x="105.85" y="697.36" width="11.99" height="11.99"/><rect class="cls-16" x="103.86" y="803.33" width="11.99" height="11.99"/><path class="cls-16" d="M945.53,763.46a7.06,7.06,0,0,0-12,5v14.13H877a7.05,7.05,0,0,0-7.07,7.06v42.4a7.06,7.06,0,0,0,7.07,7.06h56.52v14.13a7.06,7.06,0,0,0,4.35,6.53,7.15,7.15,0,0,0,2.71.53,7,7,0,0,0,5-2.06l42.39-42.4a7,7,0,0,0,0-10Zm2.08,72.72v-4.13a7.07,7.07,0,0,0-7.07-7.07H884V796.72h56.52a7.07,7.07,0,0,0,7.07-7.07v-4.14l25.33,25.33Z"/><path class="cls-16" d="M596.42,858.24a7.07,7.07,0,0,0,12.06-5V839.11H665a7.07,7.07,0,0,0,7.06-7.07V789.65a7.06,7.06,0,0,0-7.06-7.06H608.48V768.46a7.07,7.07,0,0,0-12.06-5L554,805.85a7,7,0,0,0,0,10Zm-2.07-72.73v4.14a7.07,7.07,0,0,0,7.06,7.07h56.52V825H601.41a7.07,7.07,0,0,0-7.06,7.06v4.14L569,810.85Z"/><path class="cls-16" d="M876.6,745.19l40-40,10,10a7.06,7.06,0,0,0,12.06-5v-60a7.07,7.07,0,0,0-7.06-7.07H871.6a7.07,7.07,0,0,0-5,12.07l10,10-40,40a7.06,7.06,0,0,0,0,10l30,30a7.07,7.07,0,0,0,10,0m-25-35,40-40a7,7,0,0,0,0-10l-2.92-2.93h35.82v35.83l-2.92-2.93a7.06,7.06,0,0,0-10,0l-40,40Z"/><path class="cls-16" d="M603.34,650.27v60a7.05,7.05,0,0,0,12,5l10-10,40,40a7.07,7.07,0,0,0,10,0l30-30a7,7,0,0,0,0-10l-40-40,10-10a7.07,7.07,0,0,0-5-12.06h-60a7.07,7.07,0,0,0-7.06,7.07m14.12,7.07h35.82l-2.92,2.93a7.06,7.06,0,0,0,0,10l40,40-20,20-40-40a7.09,7.09,0,0,0-10,0l-2.93,2.93Z"/><path d="M661.27,1005.77H660a5.92,5.92,0,0,1-5.92-5.92v-78.6a69,69,0,0,1,68.89-68.9h35.25v13.17H722.92a55.77,55.77,0,0,0-55.72,55.73v78.6A5.93,5.93,0,0,1,661.27,1005.77Z"/><path d="M661.27,1007.78H660a7.94,7.94,0,0,1-7.93-7.93v-78.6a70.9,70.9,0,0,1,70.9-70.9h37.26v17.18H722.92a53.71,53.71,0,0,0-53.72,53.72v78.6A7.94,7.94,0,0,1,661.27,1007.78Zm61.65-153.42a66.44,66.44,0,0,0-11.79,1A67.1,67.1,0,0,0,656,921.25v78.6a3.93,3.93,0,0,0,3.92,3.92h1.32a3.93,3.93,0,0,0,3.92-3.92v-78.6a57.76,57.76,0,0,1,57.73-57.74h33.24v-9.15Z"/><rect x="697.76" y="929.5" width="13.17" height="76.28" rx="5.93"/><path d="M705,1007.78h-1.32a7.94,7.94,0,0,1-7.92-7.94l0-64.42a8,8,0,0,1,7.94-7.93H705a7.94,7.94,0,0,1,7.93,7.94l0,64.42A8,8,0,0,1,705,1007.78Zm0-4h0a3.93,3.93,0,0,0,3.92-3.92l0-64.43A3.91,3.91,0,0,0,705,931.5H703.7a3.93,3.93,0,0,0-3.92,3.92l0,64.43a3.93,3.93,0,0,0,3.92,3.92Z"/><rect x="833.69" y="929.5" width="13.17" height="76.18" rx="5.93"/><path d="M839.64,1007.69a7.94,7.94,0,0,1-7.94-7.93l0-64.33a8,8,0,0,1,7.93-7.94h1.32a7.92,7.92,0,0,1,7.93,7.93l0,64.33a8,8,0,0,1-7.93,7.94Zm1.27-76.19h-1.32a3.94,3.94,0,0,0-3.92,3.93l.05,64.33a3.93,3.93,0,0,0,3.92,3.92H841a3.92,3.92,0,0,0,3.92-3.92l0-64.33A3.93,3.93,0,0,0,840.91,931.5Z"/><path d="M884.65,1005.77h-1.31a5.92,5.92,0,0,1-5.93-5.92V921.24a55.78,55.78,0,0,0-55.72-55.72H746.32V852.35h75.37a69,69,0,0,1,68.89,68.89v78.61A5.92,5.92,0,0,1,884.65,1005.77Z"/><path d="M884.65,1007.78h-1.31a7.94,7.94,0,0,1-7.94-7.93V921.24a53.77,53.77,0,0,0-53.71-53.71H744.32V850.35h77.37a71,71,0,0,1,70.9,70.89v78.61A7.94,7.94,0,0,1,884.65,1007.78ZM748.33,863.51h73.36a57.8,57.8,0,0,1,57.73,57.73v78.61a3.93,3.93,0,0,0,3.92,3.92h1.31a3.93,3.93,0,0,0,3.92-3.92V921.24a67,67,0,0,0-66.88-66.88H748.33Z"/><path d="M771.41,843.75A66.77,66.77,0,1,1,838.19,777,66.84,66.84,0,0,1,771.41,843.75Zm0-117.49A50.72,50.72,0,1,0,822.13,777,50.78,50.78,0,0,0,771.41,726.26Z"/><path class="cls-16" d="M769.09,585.76a18,18,0,1,1,.09,36.08,9,9,0,0,0-9,9l.09,36.09,18.05-.05-.08-28.2a36.09,36.09,0,1,0-45.2-34.83l18,0a18.07,18.07,0,0,1,18-18.1"/><path class="cls-16" d="M769.38,694h0a9,9,0,1,0-9-9,9,9,0,0,0,9,9"/><rect class="cls-16" x="-2160" y="1006" width="5400" height="74"/><rect class="cls-17" x="931.92" y="1035.87" width="12.3" height="12.3"/><rect class="cls-17" x="956.37" y="1035.87" width="12.3" height="12.3"/><rect class="cls-18" x="980.82" y="1035.87" width="12.3" height="12.3"/><rect class="cls-17" x="1005.27" y="1035.87" width="12.3" height="12.3"/><rect class="cls-17" x="1029.72" y="1035.87" width="12.3" height="12.3"/></svg>