<svg id="Camada_1" data-name="Camada 1" xmlns="http://www.w3.org/2000/svg" viewBox="0 0 1080 1080"><defs><style>.cls-1,.cls-18{fill:none;}.cls-1{stroke:#e03c31;stroke-width:6px;}.cls-1,.cls-18,.cls-19{stroke-miterlimit:10;}.cls-2{font-size:100px;letter-spacing:0.03em;}.cls-2,.cls-3{font-family:BebasNeue-Regular, Bebas Neue;}.cls-3{font-size:48.81px;letter-spacing:0.02em;}.cls-4{font-size:30.97px;fill:#1d1d1b;font-family:SourceSansPro-Regular, Source Sans Pro;}.cls-5{letter-spacing:-0.01em;}.cls-6{letter-spacing:-0.01em;}.cls-7{letter-spacing:-0.02em;}.cls-8{letter-spacing:-0.02em;}.cls-9{letter-spacing:-0.02em;}.cls-10{letter-spacing:-0.03em;}.cls-11{letter-spacing:-0.02em;}.cls-12{letter-spacing:-0.01em;}.cls-13{letter-spacing:-0.02em;}.cls-14{letter-spacing:0em;}.cls-15{letter-spacing:0em;}.cls-16{letter-spacing:-0.06em;}.cls-17{fill:#e03c31;}.cls-18,.cls-19{stroke:#fff;}.cls-19{fill:#fff;}</style></defs><line class="cls-1" x1="110.71" y1="206.52" x2="470" y2="206.52"/><text class="cls-2" transform="translate(108.95 180.82)">linguagem</text><text class="cls-3" transform="translate(109.36 328.17)">Dificuldades envolvendo <tspan x="0" y="49.83">expressão, compreensão, </tspan><tspan x="0" y="99.67">leitura e escrita, não </tspan><tspan x="0" y="149.5">explicáveis por déficit </tspan><tspan x="0" y="199.34">sensorial ou motor, </tspan><tspan x="0" y="249.17">incluindo: </tspan></text><text class="cls-4" transform="translate(134.77 714.25)">P<tspan class="cls-5" x="17.53" y="0">r</tspan><tspan x="27.97" y="0">oblemas </tspan><tspan class="cls-6" x="145.59" y="0">p</tspan><tspan x="162.35" y="0">a</tspan><tspan class="cls-7" x="177.96" y="0">r</tspan><tspan x="187.96" y="0">a en</tspan><tspan class="cls-8" x="242.06" y="0">c</tspan><tspan x="255.54" y="0">ont</tspan><tspan class="cls-9" x="299.73" y="0">r</tspan><tspan x="309.73" y="0">ar </tspan><tspan x="0" y="38.96">e</tspan><tspan class="cls-10" x="15.36" y="38.96">/</tspan><tspan x="25.24" y="38.96">ou </tspan><tspan class="cls-11" x="65.07" y="38.96">c</tspan><tspan x="78.54" y="38.96">omp</tspan><tspan class="cls-5" x="138.19" y="38.96">r</tspan><tspan x="148.63" y="38.96">eender </tspan><tspan class="cls-12" x="245.78" y="38.96">p</tspan><tspan x="262.53" y="38.96">alav</tspan><tspan class="cls-9" x="316.11" y="38.96">r</tspan><tspan x="326.12" y="38.96">as</tspan><tspan x="0" y="104.9">Er</tspan><tspan class="cls-5" x="27.07" y="104.9">r</tspan><tspan x="37.5" y="104.9">os ao </tspan><tspan class="cls-13" x="112.05" y="104.9">f</tspan><tspan x="120.47" y="104.9">alar e esc</tspan><tspan class="cls-5" x="240.54" y="104.9">r</tspan><tspan class="cls-14" x="250.98" y="104.9">e</tspan><tspan class="cls-15" x="266.5" y="104.9">v</tspan><tspan x="280.84" y="104.9">e</tspan><tspan class="cls-16" x="296.2" y="104.9">r</tspan><tspan x="305.18" y="104.9">, </tspan><tspan class="cls-11" x="319.08" y="104.9">c</tspan><tspan x="332.56" y="104.9">omo </tspan><tspan x="0" y="143.86">t</tspan><tspan class="cls-5" x="10.47" y="143.86">r</tspan><tspan x="20.9" y="143.86">o</tspan><tspan class="cls-5" x="37.69" y="143.86">c</tspan><tspan x="51.5" y="143.86">as de </tspan><tspan class="cls-6" x="125.03" y="143.86">p</tspan><tspan x="141.78" y="143.86">alav</tspan><tspan class="cls-7" x="195.36" y="143.86">r</tspan><tspan x="205.36" y="143.86">as ou </tspan><tspan class="cls-5" x="279.97" y="143.86">f</tspan><tspan x="288.7" y="143.86">onemas</tspan></text><rect class="cls-17" x="105.53" y="698.34" width="11.99" height="11.99"/><rect class="cls-17" x="105.53" y="802.25" width="11.99" height="11.99"/><path d="M1020.53,359.38l-4.48,21.1a164.8,164.8,0,0,1,71.29,241.31q11,2.07,21.92,4.9a184.87,184.87,0,0,0,26.4-95.4C1135.66,453.79,1088,387.28,1020.53,359.38Z"/><path d="M1111,630.82l-2.59-.67c-7.09-1.84-14.39-3.47-21.68-4.84l-5.27-1,2.95-4.48a161.25,161.25,0,0,0-69.75-236.08l-2.66-1.17,6-28.15,4,1.64a189.41,189.41,0,0,1,90.44,272.46Zm-17.78-11.53c4.83,1,9.64,2.08,14.37,3.27a182.23,182.23,0,0,0-84.42-258.18l-3,14a168.41,168.41,0,0,1,73,240.89Z"/><path d="M883.37,380.48l-4.48-21.11c-67.51,27.9-115.13,94.41-115.13,171.91a184.87,184.87,0,0,0,26.4,95.4q11-2.83,21.91-4.89a164.82,164.82,0,0,1,71.3-241.31Z"/><path d="M788.47,630.81l-1.37-2.29a189.39,189.39,0,0,1,90.43-272.46l4-1.64,6,28.16-2.66,1.17a161.27,161.27,0,0,0-69.76,236.08l3,4.48-5.28,1c-7.33,1.38-14.62,3-21.67,4.83ZM876.3,364.36a182.24,182.24,0,0,0-84.42,258.19c4.71-1.18,9.52-2.27,14.36-3.26a168.43,168.43,0,0,1,73-240.89Z"/><path d="M851.32,639.11c-50,.19-99.91,12.87-149.34,37.62l-6.73,3.37v44.13a79.09,79.09,0,0,1,24.32-5.8v-22.9c44.25-21.11,88.06-31.93,131.8-32.1V639.11h0Z"/><path d="M693.47,726.9V679l7.71-3.86c49.72-24.9,100.23-37.62,150.13-37.81h1.84v27.89h-1.78c-42.56.16-86.29,10.74-130,31.44v23.43l-1.66.13a77,77,0,0,0-23.76,5.66ZM697,681.2v40.4a80.41,80.41,0,0,1,20.74-4.81V694.4l1-.48c43.94-21,87.93-31.81,130.78-32.27V640.91c-48.78.47-98.16,13.06-146.8,37.42Z"/><path d="M851.39,639.11v24.32c28.91-.12,57.87,4.92,87,13.92V851.87h24.31V677.36c29.11-9,58.06-14.05,87-13.94V639.11c-33.14-.13-66.24,5.34-99.17,16.06-32.92-10.72-66-16.18-99.17-16.06Z"/><path d="M964.47,853.65H936.58v-175c-30-9.16-57.83-13.52-85.18-13.45h-1.79V639.11h1.67l0-1.79h1.07a318.47,318.47,0,0,1,98.11,16c33.1-10.72,66.42-16.1,99.18-16h1.78v27.89h-1.8c-27.32-.13-55.15,4.3-85.17,13.47Zm-24.32-3.57h20.74V676l1.26-.39c30.2-9.34,58.26-13.93,85.71-14V640.89a315.05,315.05,0,0,0-96.83,16l-.56.18-.55-.18a315.46,315.46,0,0,0-96.75-16v20.75c27.48.08,55.54,4.67,85.7,14l1.26.39Z"/><path d="M1049.73,639.11v24.32c43.75.17,87.58,11,131.82,32.09V718.4a78.8,78.8,0,0,1,24.32,5.89V680.1l-6.71-3.36c-49.42-24.76-99.36-37.43-149.35-37.62h-.08Z"/><path d="M1207.66,727l-2.48-1a77,77,0,0,0-23.77-5.76l-1.65-.13v-23.4c-43.71-20.7-87.45-31.27-130-31.43H1048V637.15l1.94.18c49.91.2,100.4,12.92,150.07,37.81l7.7,3.86Zm-24.32-10.21a80.14,80.14,0,0,1,20.74,4.89V681.2l-5.72-2.86c-48.64-24.37-98-37-146.84-37.42v20.73c42.88.46,86.88,11.3,130.8,32.25l1,.49Z"/><path d="M725.67,742.45a54.71,54.71,0,1,0,54.71,54.71,54.89,54.89,0,0,0-54.71-54.71m449.83,0a54.71,54.71,0,1,0,54.71,54.71,54.89,54.89,0,0,0-54.71-54.71M725.67,766.77a30.4,30.4,0,1,1-30.39,30.39,30.21,30.21,0,0,1,30.39-30.39m449.83,0a30.4,30.4,0,1,1-30.39,30.39,30.21,30.21,0,0,1,30.39-30.39"/><path d="M1175.5,853.66a56.5,56.5,0,1,1,56.5-56.5A56.56,56.56,0,0,1,1175.5,853.66Zm0-109.42a52.92,52.92,0,1,0,52.92,52.92A53,53,0,0,0,1175.5,744.24ZM725.67,853.66a56.5,56.5,0,1,1,56.5-56.5A56.56,56.56,0,0,1,725.67,853.66Zm0-109.42a52.92,52.92,0,1,0,52.92,52.92A53,53,0,0,0,725.67,744.24Zm449.83,85.1a32.18,32.18,0,1,1,32.19-32.18A31.84,31.84,0,0,1,1175.5,829.34Zm0-60.79a28.61,28.61,0,1,0,28.61,28.61A28.3,28.3,0,0,0,1175.5,768.55ZM725.67,829.34a32.18,32.18,0,1,1,32.19-32.18A31.84,31.84,0,0,1,725.67,829.34Zm0-60.79a28.61,28.61,0,1,0,28.61,28.61A28.3,28.3,0,0,0,725.67,768.55Z"/><path class="cls-17" d="M946.32,311.68a29.12,29.12,0,1,1,0,58.23,14.56,14.56,0,0,0-14.56,14.56V442.7h29.12V397.2a58.24,58.24,0,1,0-72.79-56.4H917.2a29.16,29.16,0,0,1,29.12-29.12"/><path class="cls-17" d="M946.32,486.37h0a14.56,14.56,0,1,0-14.56-14.56,14.56,14.56,0,0,0,14.56,14.56"/><path d="M881.56,535a19.83,19.83,0,1,0,19.83,19.82A19.82,19.82,0,0,0,881.56,535"/><path d="M1028.82,535a19.83,19.83,0,1,0,19.82,19.82A19.82,19.82,0,0,0,1028.82,535"/><path d="M986.86,590.93H923.52a10.56,10.56,0,0,0,0,21.11h63.34a10.56,10.56,0,1,0,0-21.11"/><rect class="cls-17" x="-3240" y="1006" width="5400" height="74"/><rect class="cls-18" x="931.92" y="1035.87" width="12.3" height="12.3"/><rect class="cls-18" x="956.37" y="1035.87" width="12.3" height="12.3"/><rect class="cls-18" x="980.82" y="1035.87" width="12.3" height="12.3"/><rect class="cls-19" x="1005.27" y="1035.87" width="12.3" height="12.3"/><rect class="cls-18" x="1029.72" y="1035.87" width="12.3" height="12.3"/></svg>