<?xml version="1.0" encoding="utf-8"?>
<!-- Generator: Adobe Illustrator 25.4.1, SVG Export Plug-In . SVG Version: 6.00 Build 0)  -->
<svg version="1.1" id="Camada_1" xmlns="http://www.w3.org/2000/svg" xmlns:xlink="http://www.w3.org/1999/xlink" x="0px" y="0px"
	 viewBox="0 0 1080 1080" style="enable-background:new 0 0 1080 1080;" xml:space="preserve">
<style type="text/css">
	.st0{fill:#E03C31;}
	.st1{font-family:'BebasNeue-Regular';}
	.st2{font-size:100px;}
	.st3{letter-spacing:3;}
	.st4{fill:#1D1D1B;}
	.st5{font-family:'SourceSansPro-Regular';}
	.st6{font-size:30.97px;}
	.st7{font-size:48.81px;}
	.st8{fill:none;stroke:#E03C31;stroke-width:6;stroke-miterlimit:10;}
	.st9{fill:#FFFFFF;stroke:#FFFFFF;stroke-miterlimit:10;}
	.st10{fill:none;stroke:#FFFFFF;stroke-miterlimit:10;}
	.st11{fill:none;}
	.st12{fill:#FFFFFF;}
</style>
<rect y="1006" class="st0" width="1080" height="74"/>
<text transform="matrix(1 0 0 1 108.95 180.82)" class="st1 st2 st3">memória</text>
<text transform="matrix(1 0 0 1 139.14 676.25)" class="st4 st5 st6">R</text>
<text transform="matrix(1 0 0 1 156.45 676.25)" class="st4 st5 st6">ep</text>
<text transform="matrix(1 0 0 1 189 676.25)" class="st4 st5 st6">e</text>
<text transform="matrix(1 0 0 1 204.05 676.25)" class="st4 st5 st6">ti</text>
<text transform="matrix(1 0 0 1 222.14 676.25)" class="st4 st5 st6">ç</text>
<text transform="matrix(1 0 0 1 235.95 676.25)" class="st4 st5 st6">ão de</text>
<text transform="matrix(1 0 0 1 307.09 676.25)" class="st4 st5 st6"> </text>
<text transform="matrix(1 0 0 1 139.14 715.21)" class="st4 st5 st6">pe</text>
<text transform="matrix(1 0 0 1 171.69 715.21)" class="st4 st5 st6">r</text>
<text transform="matrix(1 0 0 1 182.13 715.21)" class="st4 st5 st6">gun</text>
<text transform="matrix(1 0 0 1 231.52 715.21)" class="st4 st5 st6">t</text>
<text transform="matrix(1 0 0 1 241.34 715.21)" class="st4 st5 st6">as e assun</text>
<text transform="matrix(1 0 0 1 373.03 715.21)" class="st4 st5 st6">t</text>
<text transform="matrix(1 0 0 1 383.06 715.21)" class="st4 st5 st6">os</text>
<text transform="matrix(1 0 0 1 139.14 781.15)" class="st4 st5 st6">Esquecimen</text>
<text transform="matrix(1 0 0 1 297.55 781.15)" class="st4 st5 st6">t</text>
<text transform="matrix(1 0 0 1 307.59 781.15)" class="st4 st5 st6">o de </text>
<text transform="matrix(1 0 0 1 369.31 781.15)" class="st4 st5 st6">e</text>
<text transform="matrix(1 0 0 1 384.82 781.15)" class="st4 st5 st6">v</text>
<text transform="matrix(1 0 0 1 399.16 781.15)" class="st4 st5 st6">en</text>
<text transform="matrix(1 0 0 1 431.47 781.15)" class="st4 st5 st6">t</text>
<text transform="matrix(1 0 0 1 441.5 781.15)" class="st4 st5 st6">os, </text>
<text transform="matrix(1 0 0 1 139.14 820.11)" class="st4 st5 st6">c</text>
<text transform="matrix(1 0 0 1 152.61 820.11)" class="st4 st5 st6">omp</text>
<text transform="matrix(1 0 0 1 212.26 820.11)" class="st4 st5 st6">r</text>
<text transform="matrix(1 0 0 1 222.7 820.11)" class="st4 st5 st6">omissos ou de onde </text>
<text transform="matrix(1 0 0 1 139.14 859.08)" class="st4 st5 st6">gua</text>
<text transform="matrix(1 0 0 1 187.21 859.08)" class="st4 st5 st6">r</text>
<text transform="matrix(1 0 0 1 197.64 859.08)" class="st4 st5 st6">da per</text>
<text transform="matrix(1 0 0 1 279.93 859.08)" class="st4 st5 st6">t</text>
<text transform="matrix(1 0 0 1 289.97 859.08)" class="st4 st5 st6">en</text>
<text transform="matrix(1 0 0 1 322.27 859.08)" class="st4 st5 st6">c</text>
<text transform="matrix(1 0 0 1 335.74 859.08)" class="st4 st5 st6">es</text>
<text transform="matrix(1 0 0 1 109.36 362.17)" class="st1 st7">Problemas</text>
<text transform="matrix(1 0 0 1 109.36 412)" class="st1 st7">para reter </text>
<text transform="matrix(1 0 0 1 109.36 461.84)" class="st1 st7">informações </text>
<text transform="matrix(1 0 0 1 109.36 511.67)" class="st1 st7">recentes, </text>
<text transform="matrix(1 0 0 1 109.36 561.51)" class="st1 st7">incluindo:</text>
<rect x="109.9" y="660.34" class="st0" width="11.99" height="11.99"/>
<rect x="109.9" y="764.25" class="st0" width="11.99" height="11.99"/>
<line class="st8" x1="110.71" y1="206.52" x2="406" y2="206.52"/>
<rect x="931.92" y="1035.87" class="st9" width="12.3" height="12.3"/>
<rect x="956.37" y="1035.87" class="st10" width="12.3" height="12.3"/>
<rect x="980.82" y="1035.87" class="st10" width="12.3" height="12.3"/>
<rect x="1005.27" y="1035.87" class="st10" width="12.3" height="12.3"/>
<rect x="1029.72" y="1035.87" class="st10" width="12.3" height="12.3"/>
<path class="st11" d="M1080,204.66v-22.19c-5.2,3.6-10.49,7.27-15.85,10.97C1069.55,196.98,1074.84,200.72,1080,204.66z"/>
<path d="M1052.56,201.47c-6.25,4.32-12.55,8.69-18.88,13.06c16.83,9.32,32.31,20.59,46.32,33.7v-26.96
	C1071.25,214.02,1062.08,207.41,1052.56,201.47z"/>
<path d="M961.22,167.11c-49.72-8.14-101.85-1.77-150.74,18.39c-49.48,20.41-91.57,53.2-121.71,94.84
	c-32.28,44.6-48.91,97.42-48.08,152.77l0.02,1.09l-73.96,226.05c-0.72,2.2-1.09,4.47-1.09,6.78c0,11.96,9.73,21.7,21.7,21.7h88
	l-0.28,6.77c-3.56,85.83,3.28,110.38,16.3,123.79c16.76,17.25,51.62,16.82,109.37,16.1c9.2-0.11,18.72-0.23,28.99-0.29
	c0,0,0.01,0,0.01,0c15.37,0,27.86,12.47,27.88,27.8l-0.01,77.91c-0.02,0.32-0.02,0.65,0,0.97c0.27,5.53,4.99,9.77,10.5,9.52
	c5.52-0.27,9.79-4.98,9.51-10.5l-0.01-0.32v-77.57c-0.03-26.35-21.5-47.82-47.86-47.85H731.8c-20.2-0.02-36.64-16.46-36.66-36.65
	v-99.7c0-5.52-4.5-10.02-10.02-10.02H585.08l74.85-228.78c0.69-34.46,6.96-67.15,18.66-97.16c12.44-31.93,30.79-60.15,54.52-83.88
	c44.87-47.26,109.59-74.64,177.6-75.13c32.94-0.25,64.82,5.66,94.81,17.52c3.75,1.48,7.45,3.06,11.09,4.71l19.95-13.68
	C1013.1,179.96,987.78,171.46,961.22,167.11z"/>
<path class="st12" d="M737.77,263.4C690.13,311,667.53,374.49,666.41,441l-72.36,221.19h91.07c9.12,0,16.52,7.4,16.52,16.52
	c0,0,0,0,0,0v99.69c0.02,16.65,13.51,30.14,30.16,30.16h98c30,0.03,54.32,24.35,54.35,54.35v77.57c0.45,9.11-6.57,16.86-15.69,17.31
	c-9.11,0.45-16.86-6.57-17.31-15.69c-0.03-0.54-0.03-1.08,0-1.63v-77.57c-0.02-11.78-9.57-21.32-21.35-21.31
	c-145.21,0.88-167.83,13.28-161.2-146.37h-81.23c-15.57,0-28.2-12.63-28.2-28.2c0-2.99,0.48-5.96,1.41-8.8l73.62-225.02
	c-3.16-210.85,237.01-338.14,408.46-245.11l5.94-4.08c-26.34-14.73-55.05-24.8-85.28-29.74c-52.1-8.52-106.67-1.88-157.8,19.2
	c-51.71,21.33-95.73,55.64-127.28,99.24c-33.73,46.59-51.2,101.72-50.56,159.49L554.4,656.2c-1.15,3.5-1.73,7.14-1.73,10.83
	c0,19.13,15.56,34.7,34.7,34.7h74.47c-2.55,67.55,0.22,106.01,20.23,126.62c20.65,21.26,55.54,20.82,118.86,20.04
	c9.18-0.11,18.68-0.23,28.87-0.29c0,0,0,0,0.01,0c8.17,0,14.83,6.65,14.84,14.81v77.42c-0.03,0.7-0.03,1.4,0.01,2.09
	c0.6,12.29,10.8,21.89,22.98,21.89c0.38,0,0.76-0.01,1.14-0.03c12.62-0.62,22.39-11.35,21.87-23.95V862.9
	c-0.04-33.51-27.33-60.81-60.85-60.84h-97.99c-13.04-0.01-23.65-10.63-23.67-23.66v-99.69c0-12.69-10.33-23.02-23.02-23.02h-82.1
	l69.88-213.6l0.02-0.98c1.16-69.01,25.18-128.87,69.46-173.11l0.12-0.12c42.45-44.75,103.8-70.68,168.32-71.14
	c31.21-0.24,61.5,5.37,89.94,16.61c1.07,0.42,2.13,0.87,3.2,1.31l6.36-4.36C919.98,171.11,807.73,189.65,737.77,263.4z"/>
<path class="st12" d="M1027.67,218.69c-2,1.39-4.01,2.77-6.01,4.16c21.1,10.89,40.09,24.91,56.63,41.86l0.1,0.1
	c0.55,0.54,1.08,1.09,1.62,1.63v-9.19C1064.22,241.66,1046.56,228.82,1027.67,218.69z"/>
<path class="st12" d="M1058.42,197.42c7.36,4.71,14.56,9.86,21.58,15.45v-8.2c-5.16-3.94-10.45-7.68-15.85-11.21
	C1062.25,194.77,1060.34,196.09,1058.42,197.42z"/>
<path class="st12" d="M1080,221.27v-8.41c-7.02-5.59-14.23-10.74-21.58-15.45c-1.95,1.35-3.9,2.7-5.86,4.06
	C1062.08,207.41,1071.25,214.02,1080,221.27z"/>
<path class="st12" d="M1033.68,214.53c-2,1.39-4.01,2.77-6.02,4.16c18.89,10.12,36.55,22.97,52.33,38.56v-9.02
	C1066,235.12,1050.51,223.85,1033.68,214.53z"/>
<path class="st12" d="M1005.52,201.26c-29.99-11.86-61.87-17.76-94.81-17.52c-68,0.48-132.73,27.86-177.6,75.13
	c-23.74,23.73-42.08,51.96-54.52,83.88c-11.7,30.01-17.97,62.69-18.66,97.16l-74.85,228.78h100.04c5.52,0,10.02,4.5,10.02,10.02
	v99.7c0.02,20.19,16.46,36.63,36.66,36.65h97.99c26.36,0.03,47.83,21.5,47.86,47.85v77.57l0.01,0.32c0.27,5.52-4,10.23-9.51,10.5
	c-5.51,0.25-10.23-4-10.5-9.52c-0.02-0.32-0.02-0.65,0-0.97l0.01-77.91c-0.02-15.33-12.51-27.8-27.88-27.8c0,0-0.01,0-0.01,0
	c-10.27,0.06-19.79,0.18-28.99,0.29c-57.75,0.71-92.62,1.15-109.37-16.1c-13.02-13.41-19.87-37.96-16.3-123.79l0.28-6.77h-88
	c-11.97,0-21.7-9.74-21.7-21.7c0-2.3,0.36-4.58,1.09-6.78l73.96-226.05l-0.02-1.09c-0.83-55.34,15.79-108.17,48.08-152.77
	c30.14-41.64,72.23-74.43,121.71-94.84c48.9-20.17,101.02-26.53,150.74-18.39c26.55,4.34,51.88,12.85,75.33,25.17l6.1-4.18
	C871.21,95.07,631.04,222.36,634.2,433.21l-73.62,225.02c-0.93,2.84-1.41,5.81-1.41,8.8c0,15.57,12.62,28.2,28.2,28.2h81.23
	c-6.63,159.65,15.99,147.25,161.2,146.37c11.78-0.01,21.33,9.53,21.35,21.31v77.57c-0.03,0.54-0.03,1.08,0,1.63
	c0.45,9.11,8.2,16.14,17.31,15.69c9.11-0.45,16.14-8.2,15.69-17.31v-77.57c-0.03-30-24.35-54.32-54.35-54.35h-98
	c-16.65-0.02-30.14-13.51-30.16-30.16v-99.69c0,0,0,0,0,0c0-9.12-7.4-16.52-16.52-16.52h-91.07L666.41,441
	c1.12-66.51,23.72-130,71.36-177.6c69.96-73.75,182.21-92.29,272.53-53.11l6.31-4.33C1012.97,204.31,1009.27,202.74,1005.52,201.26z
	"/>
<path d="M860.96,312.71c-6.73,4.25-3.04,15.26,4.67,15c3.16,0.34,79.1-51.7,156.02-104.86c-5.75-2.97-11.66-5.69-17.72-8.19
	L860.96,312.71z"/>
<path d="M1080,182.47v-19.98l-31.4,21.53c5.28,2.95,10.47,6.1,15.55,9.42C1069.51,189.74,1074.8,186.08,1080,182.47z"/>
<path d="M1036.56,192.28l-19.95,13.68c5.83,2.64,11.53,5.5,17.07,8.57c6.32-4.37,12.63-8.74,18.88-13.06
	C1047.33,198.21,1042,195.14,1036.56,192.28z"/>
<path d="M1058.42,197.42c1.92-1.33,3.83-2.65,5.73-3.97c-5.08-3.33-10.27-6.47-15.55-9.42l-5.94,4.08
	C1047.98,190.99,1053.24,194.1,1058.42,197.42z"/>
<path d="M1010.3,210.29l-6.36,4.36c6.06,2.5,11.97,5.23,17.72,8.19c2-1.38,4.01-2.77,6.01-4.16
	C1021.98,215.65,1016.19,212.85,1010.3,210.29z"/>
<path d="M1052.56,201.47c1.96-1.36,3.91-2.71,5.86-4.06c-5.18-3.32-10.44-6.43-15.76-9.32l-6.1,4.18
	C1042,195.14,1047.33,198.21,1052.56,201.47z"/>
<path d="M1016.61,205.96l-6.31,4.33c5.89,2.55,11.68,5.35,17.37,8.4c2.01-1.39,4.01-2.77,6.02-4.16
	C1028.14,211.46,1022.44,208.61,1016.61,205.96z"/>
<path d="M1024.8,521c-6.74,4.25-3.05,15.26,4.66,15c1.58,0.17,21.45-12.83,50.54-32.51v-20.35L1024.8,521z"/>
<path d="M1023.44,401.31c-6.74,4.25-3.05,15.26,4.66,15c1.61,0.17,22.06-13.22,51.9-33.42v-20.37L1023.44,401.31z"/>
<path d="M1035.92,385.84v-67.07c-0.03-4.87-3.96-8.8-8.83-8.83h-59c-3.61-0.02-6.86,2.16-8.23,5.5
	c-3.49,10.39,12.09,14.22,8.29,29.51c-2.37,15.04-21.18,23.09-33.7,14.43c-11.6-7.11-13.48-24.72-3.34-33.9
	c5.74-5.18,1.56-15.48-6.17-15.18c-92.14,0.24-63.08-11.46-67.78,75.54c-24.89-9.72-53.99,10.76-53.25,37.46
	c-0.75,26.71,28.36,47.19,53.25,37.47c4.66,87.46-24.22,75.14,67.78,75.54c7.72,0.31,11.92-10,6.17-15.18
	c-10.08-9.19-8.38-26.85,3.12-34.11c12.48-8.86,31.46-0.9,33.91,14.2c3.85,15.38-11.81,19.27-8.28,29.6
	c1.36,3.34,4.62,5.52,8.23,5.49h59c0,0,0.01,0,0.01,0c4.87,0,8.82-3.95,8.82-8.82v-66.72c16.02,6.09,33.72-0.24,44.08-12.61v-49.7
	C1069.63,386.02,1051.91,379.63,1035.92,385.84z"/>
</svg>
