<svg id="Camada_1" data-name="Camada 1" xmlns="http://www.w3.org/2000/svg" viewBox="0 0 1080 1080"><defs><style>.cls-1,.cls-18{fill:none;}.cls-1{stroke:#e03c31;stroke-width:6px;}.cls-1,.cls-18,.cls-19{stroke-miterlimit:10;}.cls-2{font-size:48.81px;letter-spacing:0.02em;}.cls-17,.cls-2{font-family:BebasNeue-Regular, Bebas Neue;}.cls-3{font-size:30.97px;fill:#1d1d1b;font-family:SourceSansPro-Regular, Source Sans Pro;}.cls-4{letter-spacing:-0.01em;}.cls-5{letter-spacing:0em;}.cls-6{letter-spacing:-0.02em;}.cls-7{letter-spacing:-0.02em;}.cls-8{letter-spacing:-0.01em;}.cls-9{letter-spacing:-0.02em;}.cls-10{letter-spacing:-0.01em;}.cls-11{letter-spacing:0em;}.cls-12{letter-spacing:0em;}.cls-13{letter-spacing:0.19em;}.cls-14{letter-spacing:1.68em;}.cls-15{letter-spacing:-0.02em;}.cls-16{fill:#e03c31;}.cls-17{font-size:100px;letter-spacing:0.03em;}.cls-18,.cls-19{stroke:#fff;}.cls-19{fill:#fff;}</style></defs><path d="M-59.47,359.38l-4.48,21.1A164.53,164.53,0,0,1,34.41,531.26,164.15,164.15,0,0,1,7.34,621.79q11,2.07,21.92,4.9a184.87,184.87,0,0,0,26.4-95.4C55.66,453.79,8,387.28-59.47,359.38Z"/><path d="M31,630.82l-2.59-.67c-7.09-1.84-14.39-3.47-21.68-4.84l-5.27-1,3-4.48a160.76,160.76,0,0,0,26.47-88.57A161.17,161.17,0,0,0-65.39,383.75L-68,382.58l6-28.15,4,1.64A189.07,189.07,0,0,1,59.23,531.29a189,189,0,0,1-26.9,97.24ZM13.17,619.29c4.83,1,9.64,2.08,14.37,3.27a181.9,181.9,0,0,0,24.54-91.27,181.9,181.9,0,0,0-109-166.91l-3,14A168.33,168.33,0,0,1,38,531.26,167.88,167.88,0,0,1,13.17,619.29Z"/><path d="M-30.27,639.11v24.32c43.75.17,87.58,11,131.82,32.09V718.4a78.8,78.8,0,0,1,24.32,5.89V680.1l-6.71-3.36C69.74,652,19.8,639.31-30.19,639.12h-.08Z"/><path d="M127.66,727l-2.48-1a77,77,0,0,0-23.77-5.76l-1.65-.13v-23.4c-43.71-20.7-87.45-31.27-130-31.43H-32V637.15l1.94.18c49.91.2,100.4,12.92,150.07,37.81l7.7,3.86Zm-24.32-10.21a80.14,80.14,0,0,1,20.74,4.89V681.2l-5.72-2.86c-48.64-24.37-98-37-146.84-37.42v20.73c42.88.46,86.88,11.3,130.8,32.25l1,.49Z"/><path d="M-354.33,742.45A54.89,54.89,0,0,0-409,797.16a54.89,54.89,0,0,0,54.7,54.71,54.89,54.89,0,0,0,54.71-54.71,54.89,54.89,0,0,0-54.71-54.71m449.83,0a54.71,54.71,0,1,0,54.71,54.71A54.89,54.89,0,0,0,95.5,742.45m-449.83,24.32a30.21,30.21,0,0,1,30.4,30.39,30.22,30.22,0,0,1-30.4,30.4,30.22,30.22,0,0,1-30.39-30.4,30.2,30.2,0,0,1,30.39-30.39m449.83,0a30.4,30.4,0,1,1-30.39,30.39A30.21,30.21,0,0,1,95.5,766.77"/><path d="M95.5,853.66a56.5,56.5,0,1,1,56.5-56.5A56.56,56.56,0,0,1,95.5,853.66Zm0-109.42a52.92,52.92,0,1,0,52.92,52.92A53,53,0,0,0,95.5,744.24ZM-354.33,853.66a56.56,56.56,0,0,1-56.49-56.5,56.56,56.56,0,0,1,56.49-56.5,56.56,56.56,0,0,1,56.5,56.5A56.56,56.56,0,0,1-354.33,853.66Zm0-109.42a53,53,0,0,0-52.92,52.92,53,53,0,0,0,52.92,52.92,53,53,0,0,0,52.92-52.92A53,53,0,0,0-354.33,744.24ZM95.5,829.34a32.18,32.18,0,1,1,32.19-32.18A31.84,31.84,0,0,1,95.5,829.34Zm0-60.79a28.61,28.61,0,1,0,28.61,28.61A28.3,28.3,0,0,0,95.5,768.55Zm-449.83,60.79a31.84,31.84,0,0,1-32.18-32.18A31.84,31.84,0,0,1-354.33,765a31.84,31.84,0,0,1,32.19,32.18A31.84,31.84,0,0,1-354.33,829.34Zm0-60.79a28.3,28.3,0,0,0-28.6,28.61,28.3,28.3,0,0,0,28.6,28.61,28.31,28.31,0,0,0,28.61-28.61A28.31,28.31,0,0,0-354.33,768.55Z"/><line class="cls-1" x1="213.81" y1="303" x2="785" y2="303"/><text class="cls-2" transform="translate(213.81 393.48)">incluindo:</text><text class="cls-3" transform="translate(243.05 483.25)">Al<tspan class="cls-4" x="24.74" y="0">t</tspan><tspan class="cls-5" x="34.78" y="0">e</tspan><tspan class="cls-6" x="50.14" y="0">r</tspan><tspan x="60.14" y="0">a</tspan><tspan class="cls-7" x="75.75" y="0">ç</tspan><tspan x="89.23" y="0">ões de humor</tspan><tspan x="0" y="65.94">Agi</tspan><tspan class="cls-7" x="40.08" y="65.94">t</tspan><tspan x="49.89" y="65.94">a</tspan><tspan class="cls-8" x="65.5" y="65.94">ç</tspan><tspan x="79.31" y="65.94">ão</tspan><tspan x="0" y="131.88">A</tspan><tspan class="cls-4" x="16.85" y="131.88">pa</tspan><tspan x="48.78" y="131.88">tia</tspan><tspan x="0" y="197.81">Desin</tspan><tspan class="cls-4" x="71.94" y="197.81">t</tspan><tspan class="cls-5" x="81.98" y="197.81">e</tspan><tspan class="cls-8" x="97.34" y="197.81">r</tspan><tspan x="107.78" y="197.81">esse</tspan><tspan x="0" y="263.75">Isolamen</tspan><tspan class="cls-4" x="119.39" y="263.75">t</tspan><tspan class="cls-5" x="129.42" y="263.75">o social</tspan><tspan class="cls-9" x="0" y="329.69">P</tspan><tspan x="16.79" y="329.69">e</tspan><tspan class="cls-8" x="32.15" y="329.69">r</tspan><tspan x="42.58" y="329.69">da de em</tspan><tspan class="cls-4" x="161.35" y="329.69">pa</tspan><tspan x="193.29" y="329.69">tia</tspan></text><text class="cls-3" transform="translate(642.05 483.25)">Desinibi<tspan class="cls-8" x="104.31" y="0">ç</tspan><tspan x="118.12" y="0">ão</tspan><tspan x="0" y="65.94">Compor</tspan><tspan class="cls-7" x="104.86" y="65.94">t</tspan><tspan x="114.68" y="65.94">amen</tspan><tspan class="cls-10" x="188.27" y="65.94">t</tspan><tspan x="198.3" y="65.94">os </tspan><tspan x="0" y="104.9">obsessi</tspan><tspan class="cls-11" x="95.82" y="104.9">v</tspan><tspan x="110.16" y="104.9">os, </tspan><tspan class="cls-7" x="0" y="143.86">c</tspan><tspan x="13.47" y="143.86">ompulsi</tspan><tspan class="cls-12" x="118.46" y="143.86">v</tspan><tspan x="132.8" y="143.86">os</tspan><tspan class="cls-13" x="162.56" y="143.86">	</tspan><tspan class="cls-14" x="174.61" y="143.86" xml:space="preserve">		</tspan><tspan x="0" y="182.83">ou socialmen</tspan><tspan class="cls-4" x="172.81" y="182.83">t</tspan><tspan class="cls-5" x="182.85" y="182.83">e </tspan><tspan x="0" y="221.79">ina</tspan><tspan class="cls-7" x="40.17" y="221.79">c</tspan><tspan x="53.64" y="221.79">ei</tspan><tspan class="cls-15" x="76.62" y="221.79">t</tspan><tspan x="86.44" y="221.79">á</tspan><tspan class="cls-11" x="102.05" y="221.79">v</tspan><tspan x="116.39" y="221.79">eis </tspan></text><rect class="cls-16" x="213.81" y="467.34" width="11.99" height="11.99"/><rect class="cls-16" x="213.81" y="530.25" width="11.99" height="11.99"/><rect class="cls-16" x="213.81" y="598.29" width="11.99" height="11.99"/><rect class="cls-16" x="213.81" y="664.33" width="11.99" height="11.99"/><rect class="cls-16" x="213.81" y="729.3" width="11.99" height="11.99"/><rect class="cls-16" x="213.81" y="796.24" width="11.99" height="11.99"/><rect class="cls-16" x="608.81" y="467.34" width="11.99" height="11.99"/><rect class="cls-16" x="608.81" y="530.25" width="11.99" height="11.99"/><rect class="cls-16" x="608.81" y="598.29" width="11.99" height="11.99"/><text class="cls-17" transform="translate(213.81 180.82)">PERSONALIDADE OU <tspan x="0" y="95.86">COMPORTAMENTO</tspan></text><path d="M875.13,924.65a57,57,0,1,1,57-57A57,57,0,0,1,875.13,924.65Zm0-101.57a44.58,44.58,0,1,0,44.58,44.58A44.63,44.63,0,0,0,875.13,823.08Z"/><path d="M920.44,1073.61H830.2a16.38,16.38,0,0,1-16.37-16.36l.74-85.7c-40.85-6.65-62.06-18.38-67.75-21.94l-.2-.13a29.09,29.09,0,0,1-11.33-33.79l22.63-65.56a28.3,28.3,0,0,1,16.26-17.19,29.75,29.75,0,0,1,24.87,1.2l.19.1c12.41,7,18,22.43,13,36l-13.52,38.88c14,4.18,39.08,9.46,76.44,9.46,34.56,0,59.9-4.84,76.38-9.56l-13.88-39.61s0-.09,0-.14a29.79,29.79,0,0,1,2.84-24.76,28.45,28.45,0,0,1,20-13.36c13.69-2.36,27.43,6,32.6,20l0,.13,22.21,64.28a1,1,0,0,0,0,.1,29.14,29.14,0,0,1-11.33,33.8l-.21.14c-5.69,3.55-26.91,15.29-67.75,21.93l.73,85.65A16.39,16.39,0,0,1,920.44,1073.61ZM753.51,939.16c4.13,2.56,25.54,14.73,68.2,20.93a6.19,6.19,0,0,1,5.32,6.19l-.78,91a3.85,3.85,0,0,0,4,3.89h90.24a3.86,3.86,0,0,0,3.95-4l-.77-91a6.19,6.19,0,0,1,5.31-6.19c42.65-6.2,64.07-18.37,68.2-20.93a16.71,16.71,0,0,0,6.6-19.13c0-.07-.05-.14-.08-.22L981.4,855.42c-3.1-8.3-11-13.35-18.88-12A16.23,16.23,0,0,0,951,851a17.39,17.39,0,0,0-1.65,14.39l16,45.64a6.2,6.2,0,0,1-3.93,8c-16.88,5.49-45.55,12-86.3,12-45.2,0-73.56-7.56-86.44-12.06a6.21,6.21,0,0,1-3.81-7.9l15.63-44.92a.56.56,0,0,1,0-.12c2.88-7.78-.32-16.93-7.28-20.9a17.39,17.39,0,0,0-14.41-.69,16,16,0,0,0-9.19,9.69L747,919.81A16.73,16.73,0,0,0,753.51,939.16Z"/><polygon class="cls-16" points="873.39 802.51 874.65 768.01 862.25 771.15 864.15 730.58 880.51 737.2 876.59 758.06 888.78 754.97 873.39 802.51"/><path class="cls-16" d="M873.39,804.15a1.33,1.33,0,0,1-.28,0,1.62,1.62,0,0,1-1.35-1.67l1.18-32.32-10.29,2.61a1.63,1.63,0,0,1-1.44-.32,1.66,1.66,0,0,1-.6-1.34l1.91-40.58a1.62,1.62,0,0,1,.75-1.3,1.64,1.64,0,0,1,1.49-.14l16.37,6.62a1.63,1.63,0,0,1,1,1.82l-3.45,18.35,9.71-2.46a1.6,1.6,0,0,1,1.59.47,1.63,1.63,0,0,1,.37,1.62L875,803A1.64,1.64,0,0,1,873.39,804.15Zm1.26-37.77a1.62,1.62,0,0,1,1,.36,1.63,1.63,0,0,1,.61,1.33l-.84,22.76,10.86-33.55L877,759.64a1.63,1.63,0,0,1-2-1.88l3.68-19.55-13-5.25L864,769l10.27-2.6A1.41,1.41,0,0,1,874.65,766.38Z"/><polygon class="cls-16" points="835.97 808.4 814.34 781.49 807.02 791.99 781.89 760.07 798.6 754.36 809.29 772.7 816.48 762.39 835.97 808.4"/><path class="cls-16" d="M836,810a1.65,1.65,0,0,1-1.27-.61l-20.27-25.21-6.07,8.7a1.62,1.62,0,0,1-1.3.7,1.66,1.66,0,0,1-1.33-.62l-25.12-31.92a1.63,1.63,0,0,1-.28-1.47,1.64,1.64,0,0,1,1-1.09l16.7-5.71a1.63,1.63,0,0,1,1.94.73l9.4,16.13,5.73-8.22a1.64,1.64,0,0,1,2.85.3l19.49,46a1.63,1.63,0,0,1-.67,2A1.6,1.6,0,0,1,836,810Zm-21.63-30.18a1.62,1.62,0,0,1,1.27.61l14.27,17.75-13.75-32.47-5.5,7.89a1.64,1.64,0,0,1-2.76-.11l-10-17.19-13.25,4.53,22.33,28.37,6.06-8.68a1.61,1.61,0,0,1,1.28-.7Z"/><polygon class="cls-16" points="913.18 810.62 931.51 781.36 919.19 777.88 941.12 743.69 951.99 757.6 938.16 773.71 950.26 777.13 913.18 810.62"/><path class="cls-16" d="M913.18,812.25a1.58,1.58,0,0,1-1-.38,1.63,1.63,0,0,1-.34-2.12L929,782.34l-10.22-2.88a1.65,1.65,0,0,1-.93-2.46l21.92-34.19a1.64,1.64,0,0,1,1.3-.76,1.65,1.65,0,0,1,1.36.63l10.87,13.91a1.64,1.64,0,0,1,0,2.07l-12.16,14.17,9.64,2.72a1.62,1.62,0,0,1,1.14,1.2,1.63,1.63,0,0,1-.49,1.59l-37.09,33.49A1.62,1.62,0,0,1,913.18,812.25Zm8.58-35.34L932,779.79a1.64,1.64,0,0,1,1.09,1,1.67,1.67,0,0,1-.14,1.46l-12.1,19.3L947,777.89l-9.26-2.61a1.63,1.63,0,0,1-.79-2.64l13-15.09-8.62-11Z"/><path class="cls-16" d="M734.24,862.43a6.59,6.59,0,0,1-6.37-8.13,77.25,77.25,0,0,1,16-31.63,6.56,6.56,0,1,1,10.08,8.39,64.38,64.38,0,0,0-13.33,26.38A6.55,6.55,0,0,1,734.24,862.43Z"/><path class="cls-16" d="M718.56,848.14a6.56,6.56,0,0,1-6.37-8.13,50.65,50.65,0,0,1,10.36-20.49,6.55,6.55,0,0,1,10.07,8.39,37.26,37.26,0,0,0-7.7,15.24A6.55,6.55,0,0,1,718.56,848.14Z"/><path class="cls-16" d="M1011.23,862.43a6.56,6.56,0,0,1-6.36-5,64.38,64.38,0,0,0-13.33-26.38,6.56,6.56,0,1,1,10.08-8.39,77.13,77.13,0,0,1,16,31.63,6.59,6.59,0,0,1-6.37,8.13Z"/><path class="cls-16" d="M1026.91,848.14a6.55,6.55,0,0,1-6.36-5,37.26,37.26,0,0,0-7.7-15.24,6.56,6.56,0,0,1,10.08-8.39A50.76,50.76,0,0,1,1033.28,840a6.56,6.56,0,0,1-4.8,7.94A6.48,6.48,0,0,1,1026.91,848.14Z"/><rect class="cls-16" x="-4320" y="1006" width="5400" height="74"/><rect class="cls-18" x="931.92" y="1035.87" width="12.3" height="12.3"/><rect class="cls-18" x="956.37" y="1035.87" width="12.3" height="12.3"/><rect class="cls-18" x="980.82" y="1035.87" width="12.3" height="12.3"/><rect class="cls-18" x="1005.27" y="1035.87" width="12.3" height="12.3"/><rect class="cls-19" x="1029.72" y="1035.87" width="12.3" height="12.3"/></svg>